<svg height="1251.609" viewBox="0 0 1775 1251.609" width="1775" xmlns="http://www.w3.org/2000/svg"><g opacity=".305" transform="translate(-319 -755.7)"><path d="m599.793 755.7-102.593 4.494 3 45.244 91.087-2.637z" fill="#a500fb" transform="translate(-71.412)"/><path d="m597.4 772.189-11.75 28.345-79.881 1.978-7.55-39.312h-1.019l3 45.244 91.087-2.637z" fill="#7200bc" transform="translate(-71.412 -3.006)"/><path d="m618.443 766.6-13.843 3.955 4.315 7.91 11.506-4.315z" fill="#7200bc" transform="translate(-114.452 -4.368)"/><path d="m581.573 766.6-5.573 4.614 5.573 2.936 4.614-3.775z" fill="#7200bc" transform="translate(-102.991 -4.368)"/><path d="m525.933 791.9-5.633 3.176 5.633 2.217 8.27-2.217z" fill="#7200bc" transform="translate(-80.669 -14.507)"/><path d="m1115.042 862.6h-95.342l6.592 43.566h94.023z" fill="#a500fb" transform="translate(-280.8 -42.839)"/><path d="m1187.6 854.3 9.588 45.9 80.48-1.978-4.734-43.926z" fill="#a500fb" transform="translate(-348.085 -39.513)"/><path d="m1197.158 944.1-98.158 1.318 9.888 45.184 88.271-1.978z" fill="#a500fb" transform="translate(-312.579 -75.5)"/><path d="m1115.042 900.533h-82.518l-10.247-37.933h-2.577l6.592 43.566h94.023l-5.273-43.566h-2.7z" fill="#7200bc" transform="translate(-280.8 -42.839)"/><path d="m1277.668 898.225-3-27.805-2.937 23.491h-68.615l-14.138-39.611h-1.378l9.588 45.9z" fill="#7200bc" transform="translate(-348.085 -39.513)"/><path d="m1197.118 944.1-6.891.12c.6 9.888 2.337 38.053 1.738 38.832-.659 1.019-78.862 1.318-78.862 1.318l-12.7-38.952h-1.5l9.888 45.184 88.271-1.978v-44.524z" fill="#7200bc" transform="translate(-312.539 -75.5)"/><path d="m1152.892 873.3-6.292 4.135 5.273 2.157 3.775-1.5z" fill="#7200bc" transform="translate(-331.654 -47.127)"/><path d="m1123.5 873.3-3.3 3.176 4.434.959 2.637-2.038z" fill="#7200bc" transform="translate(-321.075 -47.127)"/><path d="m1216.082 955.9-14.682 3.176 1.8 6.112 19.476-7.611z" fill="#7200bc" transform="translate(-353.615 -80.228)"/><path d="m1186.535 952.9-4.135 1.8 2.037 3 3.9-1.5z" fill="#7200bc" transform="translate(-346.001 -79.026)"/><path d="m1220.7 898.9h6.592v4.674l-5.633 2.637z" fill="#7200bc" transform="translate(-361.349 -57.386)"/><path d="m1223.355 885.2-4.255 1.5 2.157 2.936 4.734-1.139z" fill="#7200bc" transform="translate(-360.708 -51.896)"/><path d="m414.342 1178.6h-95.342l6.592 43.566h94.023z" fill="#a500fb" transform="translate(0 -169.474)"/><path d="m414.342 1216.533h-82.518l-10.247-37.933h-2.577l6.592 43.566h94.023l-5.273-43.566h-2.7z" fill="#7200bc" transform="translate(0 -169.474)"/><path d="m452.132 1189.3-6.232 4.135 5.273 2.157 3.775-1.5z" fill="#7200bc" transform="translate(-50.854 -173.762)"/><path d="m422.756 1189.3-3.356 3.176 4.494.959 2.637-2.037z" fill="#7200bc" transform="translate(-40.235 -173.762)"/><path d="m621.118 981.1-1.318 44.225 88.391-1.618-1.318-40.63z" fill="#a500fb" transform="translate(-120.543 -90.327)"/><path d="m773.4 985.5 3.3 40.27h75.2v-40.27z" fill="#a500fb" transform="translate(-182.097 -92.09)"/><path d="m656.1 1064.8v41.289h79.222l-1.322-41.289z" fill="#a500fb" transform="translate(-135.09 -123.869)"/><path d="m887.005 1060.4-92.705 2.637 6.951 43.926 90.068-2.637z" fill="#a500fb" transform="translate(-190.473 -122.106)"/><g fill="#7200bc"><path d="m707.651 1006.748-4.734 13-74.248.959-7.011-39.551-.539-.06-1.318 44.225 88.391-1.618z" transform="translate(-120.543 -90.327)"/><path d="m851.9 1025.77v-14.083l-4.255 10.127-65.319-1.618-5.753-34.7h-3.173l3.3 40.27z" transform="translate(-182.097 -92.09)"/><path d="m886.705 1060.46v37.573l-78.2 3-10.187-38.053-4.015.06 6.951 43.926 90.068-2.637-4.315-43.925z" transform="translate(-190.473 -122.106)"/><path d="m734 1064.8h-1.378l-.779 37.334-70.952-1.318-2.157-36.015h-2.634v41.289h79.222z" transform="translate(-135.09 -123.869)"/><path d="m744.671 992.2-7.071 1.318 1.5 5.393 6.772-1.8z" transform="translate(-167.751 -94.775)"/><path d="m719.357 997.8-2.157 3.356 5.453 2.517 2.637-4.315z" transform="translate(-159.575 -97.019)"/><path d="m816.9 1002.7-16 .42 2.457 6.472 12.584-3.955z" transform="translate(-193.118 -98.983)"/><path d="m832.232 1012.5-6.232 1.678 7.73 3.476 1.978-2.577z" transform="translate(-203.176 -102.91)"/><path d="m757.058 1069.5-15.521 2.157-2.337 6.951 7.311-1.858z" transform="translate(-168.392 -125.753)"/><path d="m760.918 1084.7-1.318 4.794 4.614-.839v-2.637z" transform="translate(-176.567 -131.844)"/><path d="m751.4 1108.1v6.232l4.914-1.438-2.457-3.176z" transform="translate(-173.281 -141.221)"/><path d="m925.473 1096-5.573 1.978v4.434l5.573-2.157z" transform="translate(-240.806 -136.372)"/><path d="m912.156 1088.7-3.356 3.536 3.356 1.318 3.3-2.457z" transform="translate(-236.358 -133.447)"/></g><path d="m1494.818 944-1.318 44.225 88.45-1.618-1.318-40.57z" fill="#a500fb" transform="translate(-470.672 -75.46)"/><path d="m1529.9 1027.7v41.289h79.162l-1.318-41.289z" fill="#a500fb" transform="translate(-485.259 -109.002)"/><path d="m1581.411 969.648-4.734 13-74.248.959-7.011-39.551-.6-.06-1.318 44.225 88.45-1.618z" fill="#7200bc" transform="translate(-470.672 -75.46)"/><path d="m1607.743 1027.7h-1.378l-.719 37.334-70.952-1.318-2.157-36.015h-2.637v41.289h79.162z" fill="#7200bc" transform="translate(-485.259 -109.002)"/><path d="m1618.471 955.1-7.071 1.318 1.5 5.393 6.772-1.8z" fill="#7200bc" transform="translate(-517.92 -79.908)"/><path d="m1593.157 960.7-2.157 3.356 5.453 2.517 2.637-4.315z" fill="#7200bc" transform="translate(-509.745 -82.152)"/><path d="m1647.2 948.5 3.3 40.21h75.2v-40.21z" fill="#a500fb" transform="translate(-532.267 -77.263)"/><path d="m1725.7 988.71v-14.022l-4.255 10.068-65.379-1.618-5.693-34.637h-3.173l3.3 40.21z" fill="#7200bc" transform="translate(-532.267 -77.263)"/><path d="m1690.7 965.6-16 .419 2.457 6.472 12.584-3.955z" fill="#7200bc" transform="translate(-543.287 -84.116)"/><path d="m1706.032 975.4-6.232 1.678 7.73 3.476 1.978-2.577z" fill="#7200bc" transform="translate(-553.346 -88.043)"/><path d="m1630.858 1032.4-15.521 2.157-2.337 6.951 7.311-1.858z" fill="#7200bc" transform="translate(-518.561 -110.885)"/><path d="m1634.718 1047.6-1.318 4.794 4.614-.839v-2.637z" fill="#7200bc" transform="translate(-526.736 -116.977)"/><path d="m1625.2 1071v6.232l4.914-1.438-2.457-3.176z" fill="#7200bc" transform="translate(-523.45 -126.354)"/><path d="m1669.918 1235-1.318 44.225 88.45-1.678-1.318-40.57z" fill="#a500fb" transform="translate(-540.842 -192.076)"/><path d="m1822.2 1239.4 3.3 40.27h75.267v-40.27z" fill="#a500fb" transform="translate(-602.396 -193.839)"/><path d="m1756.511 1260.588-4.734 13-74.248 1.019-7.011-39.607h-.6l-1.318 44.225 88.45-1.678z" fill="#7200bc" transform="translate(-540.842 -192.076)"/><path d="m1900.763 1279.67v-14.083l-4.315 10.127-65.319-1.678-5.693-34.637h-3.236l3.3 40.27z" fill="#7200bc" transform="translate(-602.396 -193.839)"/><path d="m1793.531 1246-7.131 1.318 1.5 5.453 6.772-1.8z" fill="#7200bc" transform="translate(-588.049 -196.484)"/><path d="m1768.2 1251.7-2.1 3.356 5.393 2.457 2.7-4.255z" fill="#7200bc" transform="translate(-579.914 -198.768)"/><path d="m1865.8 1256.5-16 .479 2.457 6.412 12.524-3.955z" fill="#7200bc" transform="translate(-613.457 -200.692)"/><path d="m1881.092 1266.4-6.292 1.618 7.79 3.476 1.978-2.577z" fill="#7200bc" transform="translate(-623.475 -204.659)"/><path d="m2210.418 852.6-1.318 44.225 88.45-1.618-1.318-40.63z" fill="#a500fb" transform="translate(-757.444 -38.832)"/><path d="m2362.7 857 3.356 40.27h75.207v-40.27z" fill="#a500fb" transform="translate(-818.998 -40.595)"/><path d="m2297.011 878.248-4.734 12.944-74.248 1.019-7.011-39.611h-.6l-1.318 44.225 88.45-1.618z" fill="#7200bc" transform="translate(-757.444 -38.832)"/><path d="m2441.263 897.27v-14.082l-4.315 10.127-65.319-1.678-5.693-34.637h-3.236l3.356 40.27z" fill="#7200bc" transform="translate(-818.998 -40.595)"/><path d="m2278.071 870.7-7.071 1.318 1.5 5.453 6.772-1.858z" fill="#7200bc" transform="translate(-782.25 -46.085)"/><path d="m2245.757 865.3-2.157 3.416 5.453 2.457 2.637-4.315z" fill="#7200bc" transform="translate(-771.27 -43.921)"/><path d="m2390.3 902.191 16-.479-2.457-6.412-12.584 3.955z" fill="#7200bc" transform="translate(-830.058 -55.944)"/><path d="m2472.4 865.8-16 .479 2.457 6.412 12.524-3.955z" fill="#7200bc" transform="translate(-856.547 -44.122)"/><path d="m2472.692 878.7-6.292 1.678 7.79 3.476 1.978-2.577z" fill="#7200bc" transform="translate(-860.555 -49.291)"/><path d="m2254.192 879.6-6.292 1.678 7.79 3.416 1.978-2.517z" fill="#7200bc" transform="translate(-772.993 -49.652)"/><path d="m2087.465 955.3-92.765 2.637 6.951 43.866 90.068-2.637z" fill="#a500fb" transform="translate(-671.525 -79.988)"/><path d="m2087.105 955.3v37.573l-78.2 3-10.187-38.053-4.015.12 6.951 43.866 90.068-2.637-4.255-43.866z" fill="#7200bc" transform="translate(-671.525 -79.988)"/><path d="m2125.873 990.8-5.573 1.978v4.435l5.573-2.157z" fill="#7200bc" transform="translate(-721.858 -94.214)"/><path d="m2112.6 983.5-3.3 3.536 3.3 1.318 3.3-2.457z" fill="#7200bc" transform="translate(-717.45 -91.289)"/><path d="m1862.805 798-92.705 2.637 6.891 43.866 90.128-2.637z" fill="#a500fb" transform="translate(-581.518 -16.951)"/><path d="m1862.445 798v37.633l-78.2 2.936-10.187-38.053-3.955.12 6.891 43.866 90.128-2.637-4.317-43.865z" fill="#7200bc" transform="translate(-581.518 -16.951)"/><path d="m1872.8 808.8-16 .42 2.457 6.472 12.524-3.955z" fill="#7200bc" transform="translate(-616.262 -21.279)"/><path d="m1901.232 816.2-6.232 1.678 7.73 3.416 1.978-2.517z" fill="#7200bc" transform="translate(-631.571 -24.245)"/><path d="m1823.533 842-5.633 2.037v4.434l5.633-2.157z" fill="#7200bc" transform="translate(-600.673 -34.584)"/><path d="m2516.542 962.2h-95.342l6.592 43.566h94.024z" fill="#a500fb" transform="translate(-842.441 -82.753)"/><path d="m2516.542 1000.133h-82.518l-10.247-37.933h-2.577l6.592 43.566h94.024l-5.274-43.566h-2.7z" fill="#7200bc" transform="translate(-842.441 -82.753)"/><path d="m2468.492 999.9-6.292 4.075 5.274 2.157 3.835-1.438z" fill="#7200bc" transform="translate(-858.871 -97.861)"/><path d="m2496 977.9-3.3 3.176 4.435.959 2.637-2.037z" fill="#7200bc" transform="translate(-871.094 -89.045)"/><path d="m2544.4 1001.7-3.3 3.176 4.494.959 2.636-2.1z" fill="#7200bc" transform="translate(-890.49 -98.582)"/><path d="m2598.618 1043.7-98.218 1.318 9.948 45.184 88.271-1.978z" fill="#a500fb" transform="translate(-874.18 -115.414)"/><path d="m2598.618 1043.7-6.892.12c.6 9.888 2.337 38.053 1.738 38.832-.659 1.019-78.862 1.318-78.862 1.318l-12.7-38.952h-1.5l9.888 45.184 88.271-1.978v-44.524z" fill="#7200bc" transform="translate(-874.18 -115.414)"/><path d="m2542.492 1095.629 14.682-3.116-1.8-6.112-19.476 7.551z" fill="#7200bc" transform="translate(-888.406 -132.526)"/><path d="m2611.035 1088.7-4.135 1.858 2.038 2.936 3.9-1.5z" fill="#7200bc" transform="translate(-916.859 -133.447)"/><path d="m2546.835 1075.9-4.135 1.8 2.1 3 3.835-1.5z" fill="#7200bc" transform="translate(-891.131 -128.318)"/><path d="m2589.1 953.9 9.588 45.9 80.48-1.978-4.794-43.926z" fill="#a500fb" transform="translate(-909.726 -79.427)"/><path d="m2679.168 997.826-3-27.806-2.936 23.491h-68.615l-14.139-39.611h-1.378l9.588 45.9z" fill="#7200bc" transform="translate(-909.726 -79.427)"/><path d="m2668.682 964.8-14.682 3.116 1.8 6.112 19.476-7.611z" fill="#7200bc" transform="translate(-935.734 -83.795)"/><path d="m2686.5 986.8h6.592v4.614l-5.633 2.637z" fill="#7200bc" transform="translate(-948.758 -92.611)"/><path d="m2697.295 968-4.195 1.5 2.1 3 4.734-1.2z" fill="#7200bc" transform="translate(-951.403 -85.077)"/><path d="m3118.3 854.4 9.588 45.9 80.54-1.978-4.794-43.926z" fill="#a500fb" transform="translate(-1121.799 -39.553)"/><path d="m3208.428 898.326-3.056-27.806-2.937 23.491h-68.615l-14.142-39.611h-1.378l9.588 45.9z" fill="#7200bc" transform="translate(-1121.799 -39.553)"/><path d="m3151.4 899h6.592v4.674l-5.633 2.637z" fill="#7200bc" transform="translate(-1135.063 -57.426)"/><path d="m3154.095 885.3-4.195 1.5 2.1 2.936 4.734-1.139z" fill="#7200bc" transform="translate(-1134.462 -51.936)"/><path d="m3211.9 1235.6-92.705 2.637 6.892 43.866 90.068-2.637z" fill="#a500fb" transform="translate(-1122.16 -192.316)"/><path d="m3211.545 1235.6v37.634l-78.2 2.936-10.187-38.053-3.955.12 6.892 43.866 90.068-2.637-4.263-43.866z" fill="#7200bc" transform="translate(-1122.16 -192.316)"/><path d="m3250.333 1271.1-5.633 1.978v4.495l5.633-2.157z" fill="#7200bc" transform="translate(-1172.453 -206.542)"/><path d="m3237 1263.8-3.3 3.536 3.3 1.318 3.3-2.4z" fill="#7200bc" transform="translate(-1168.045 -203.617)"/><path d="m2969.7 1055.6v41.289h79.222l-1.322-41.289z" fill="#a500fb" transform="translate(-1062.249 -120.183)"/><path d="m3047.6 1055.6h-1.378l-.779 37.334-70.952-1.318-2.157-36.015h-2.634v41.289h79.222z" fill="#7200bc" transform="translate(-1062.249 -120.183)"/><path d="m3070.7 1060.3-15.521 2.157-2.277 6.951 7.251-1.858z" fill="#7200bc" transform="translate(-1095.591 -122.067)"/><path d="m3074.518 1075.5-1.318 4.794 4.614-.839v-2.637z" fill="#7200bc" transform="translate(-1103.726 -128.158)"/><path d="m3065 1098.9v6.232l4.914-1.438-2.457-3.176z" fill="#7200bc" transform="translate(-1100.44 -137.535)"/><path d="m1110.318 2633.4-1.318 44.225 88.39-1.618-1.318-40.63z" fill="#a500fb" transform="translate(-316.587 -752.475)"/><path d="m1262.6 2637.8 3.3 40.27h75.2v-40.27z" fill="#a500fb" transform="translate(-378.141 -754.238)"/><path d="m1196.851 2659.048-4.734 13-74.248.959-7.011-39.611h-.539l-1.319 44.229 88.39-1.618z" fill="#7200bc" transform="translate(-316.587 -752.475)"/><path d="m1341.1 2678.07v-14.083l-4.255 10.127-65.319-1.678-5.753-34.637h-3.173l3.3 40.27z" fill="#7200bc" transform="translate(-378.141 -754.238)"/><path d="m1233.871 2644.4-7.071 1.318 1.5 5.453 6.772-1.8z" fill="#7200bc" transform="translate(-363.795 -756.883)"/><path d="m1208.557 2650.1-2.157 3.356 5.453 2.517 2.637-4.314z" fill="#7200bc" transform="translate(-355.619 -759.167)"/><path d="m1306.1 2655-16 .419 2.457 6.472 12.584-3.955z" fill="#7200bc" transform="translate(-389.161 -761.131)"/><path d="m1321.432 2664.8-6.232 1.678 7.73 3.416 1.978-2.517z" fill="#7200bc" transform="translate(-399.22 -765.058)"/><path d="m1451.893 2761.3-102.593 4.554 3 45.184 91.087-2.637z" fill="#a500fb" transform="translate(-412.885 -803.73)"/><path d="m1449.5 2777.789-11.745 28.345-79.881 1.978-7.491-39.311-1.079.06 3 45.184 91.087-2.637z" fill="#7200bc" transform="translate(-412.885 -806.736)"/><path d="m1470.543 2772.2-13.843 3.955 4.315 7.91 11.506-4.315z" fill="#7200bc" transform="translate(-455.925 -808.098)"/><path d="m1433.673 2772.2-5.573 4.614 5.573 2.937 4.614-3.775z" fill="#7200bc" transform="translate(-444.464 -808.098)"/><path d="m1378.073 2797.5-5.573 3.176 5.573 2.217 8.27-2.217z" fill="#7200bc" transform="translate(-422.182 -818.237)"/><path d="m2120.318 2636.7-1.318 44.225 88.45-1.678-1.319-40.57z" fill="#a500fb" transform="translate(-721.337 -753.797)"/><path d="m2272.6 2641.1 3.3 40.27h75.267v-40.27z" fill="#a500fb" transform="translate(-782.891 -755.56)"/><path d="m2155.4 2720.4v41.229h79.162l-1.318-41.229z" fill="#a500fb" transform="translate(-735.924 -787.339)"/><path d="m2206.911 2662.288-4.734 13-74.248 1.019-7.011-39.611h-.6l-1.318 44.229 88.45-1.678z" fill="#7200bc" transform="translate(-721.337 -753.797)"/><path d="m2351.163 2681.37v-14.083l-4.315 10.067-65.319-1.618-5.693-34.637h-3.236l3.3 40.27z" fill="#7200bc" transform="translate(-782.891 -755.56)"/><path d="m2233.243 2720.4h-1.378l-.779 37.274-70.952-1.318-2.157-35.956h-2.577v41.229h79.162z" fill="#7200bc" transform="translate(-735.924 -787.339)"/><path d="m2243.931 2647.7-7.131 1.318 1.5 5.453 6.772-1.858z" fill="#7200bc" transform="translate(-768.545 -758.205)"/><path d="m2218.657 2653.3-2.157 3.416 5.453 2.457 2.637-4.315z" fill="#7200bc" transform="translate(-760.41 -760.449)"/><path d="m2316.2 2658.2-16 .479 2.457 6.412 12.525-3.955z" fill="#7200bc" transform="translate(-793.952 -762.413)"/><path d="m2331.492 2668.1-6.292 1.618 7.79 3.476 1.978-2.577z" fill="#7200bc" transform="translate(-803.97 -766.38)"/><path d="m2256.3 2725.1-15.461 2.1-2.337 6.951 7.251-1.8z" fill="#7200bc" transform="translate(-769.226 -789.223)"/><path d="m2260.218 2740.2-1.318 4.794 4.614-.839v-2.637z" fill="#7200bc" transform="translate(-777.401 -795.274)"/><path d="m2250.6 2763.6v6.292l4.974-1.5-2.517-3.116z" fill="#7200bc" transform="translate(-774.075 -804.651)"/></g></svg>