<svg xmlns="http://www.w3.org/2000/svg" width="1775" height="1251.609" viewBox="0 0 1775 1251.609">
  <g id="characters" transform="translate(-73 -4051)">
    <g id="bricks" transform="translate(-246 3295.3)" opacity="0.305">
      <g id="Grupo_72" data-name="Grupo 72" transform="translate(425.788 755.7)">
        <path id="Caminho_2073" data-name="Caminho 2073" d="M599.793,755.7,497.2,760.194l3,45.244,91.087-2.637Z" transform="translate(-497.2 -755.7)" fill="#a500fb"/>
        <path id="Caminho_2074" data-name="Caminho 2074" d="M597.4,772.189,585.65,800.534l-79.881,1.978L498.219,763.2H497.2l3,45.244,91.087-2.637Z" transform="translate(-497.2 -758.706)" fill="#7200bc"/>
        <path id="Caminho_2075" data-name="Caminho 2075" d="M618.443,766.6,604.6,770.555l4.315,7.91,11.506-4.315Z" transform="translate(-540.24 -760.068)" fill="#7200bc"/>
        <path id="Caminho_2076" data-name="Caminho 2076" d="M581.573,766.6,576,771.214l5.573,2.936,4.614-3.775Z" transform="translate(-528.779 -760.068)" fill="#7200bc"/>
        <path id="Caminho_2077" data-name="Caminho 2077" d="M525.933,791.9l-5.633,3.176,5.633,2.217,8.27-2.217Z" transform="translate(-506.457 -770.207)" fill="#7200bc"/>
      </g>
      <g id="Grupo_73" data-name="Grupo 73" transform="translate(738.9 814.787)">
        <path id="Caminho_2078" data-name="Caminho 2078" d="M1115.042,862.6H1019.7l6.592,43.566h94.023Z" transform="translate(-1019.7 -857.626)" fill="#a500fb"/>
        <path id="Caminho_2079" data-name="Caminho 2079" d="M1187.6,854.3l9.588,45.9,80.48-1.978-4.734-43.926Z" transform="translate(-1086.985 -854.3)" fill="#a500fb"/>
        <path id="Caminho_2080" data-name="Caminho 2080" d="M1197.158,944.1,1099,945.418l9.888,45.184,88.271-1.978Z" transform="translate(-1051.479 -890.287)" fill="#a500fb"/>
        <path id="Caminho_2081" data-name="Caminho 2081" d="M1115.042,900.533h-82.518L1022.277,862.6H1019.7l6.592,43.566h94.023l-5.273-43.566h-2.7Z" transform="translate(-1019.7 -857.626)" fill="#7200bc"/>
        <path id="Caminho_2082" data-name="Caminho 2082" d="M1277.668,898.225l-3-27.805-2.937,23.491h-68.615L1188.978,854.3H1187.6l9.588,45.9Z" transform="translate(-1086.985 -854.3)" fill="#7200bc"/>
        <path id="Caminho_2083" data-name="Caminho 2083" d="M1197.118,944.1l-6.891.12c.6,9.888,2.337,38.053,1.738,38.832-.659,1.019-78.862,1.318-78.862,1.318l-12.7-38.952h-1.5l9.888,45.184,88.271-1.978V944.1Z" transform="translate(-1051.439 -890.287)" fill="#7200bc"/>
        <path id="Caminho_2084" data-name="Caminho 2084" d="M1152.892,873.3l-6.292,4.135,5.273,2.157,3.775-1.5Z" transform="translate(-1070.554 -861.914)" fill="#7200bc"/>
        <path id="Caminho_2085" data-name="Caminho 2085" d="M1123.5,873.3l-3.3,3.176,4.434.959,2.637-2.038Z" transform="translate(-1059.975 -861.914)" fill="#7200bc"/>
        <path id="Caminho_2086" data-name="Caminho 2086" d="M1216.082,955.9l-14.682,3.176,1.8,6.112,19.476-7.611Z" transform="translate(-1092.515 -895.015)" fill="#7200bc"/>
        <path id="Caminho_2087" data-name="Caminho 2087" d="M1186.535,952.9l-4.135,1.8,2.037,3,3.9-1.5Z" transform="translate(-1084.901 -893.813)" fill="#7200bc"/>
        <path id="Caminho_2088" data-name="Caminho 2088" d="M1220.7,898.9h6.592v4.674l-5.633,2.637Z" transform="translate(-1100.249 -872.173)" fill="#7200bc"/>
        <path id="Caminho_2089" data-name="Caminho 2089" d="M1223.355,885.2l-4.255,1.5,2.157,2.936,4.734-1.139Z" transform="translate(-1099.608 -866.683)" fill="#7200bc"/>
      </g>
      <g id="Grupo_74" data-name="Grupo 74" transform="translate(319 1009.126)">
        <path id="Caminho_2090" data-name="Caminho 2090" d="M414.342,1178.6H319l6.592,43.566h94.023Z" transform="translate(-319 -1178.6)" fill="#a500fb"/>
        <path id="Caminho_2091" data-name="Caminho 2091" d="M414.342,1216.533H331.824L321.577,1178.6H319l6.592,43.566h94.023l-5.273-43.566h-2.7Z" transform="translate(-319 -1178.6)" fill="#7200bc"/>
        <path id="Caminho_2092" data-name="Caminho 2092" d="M452.132,1189.3l-6.232,4.135,5.273,2.157,3.775-1.5Z" transform="translate(-369.854 -1182.888)" fill="#7200bc"/>
        <path id="Caminho_2093" data-name="Caminho 2093" d="M422.756,1189.3l-3.356,3.176,4.494.959,2.637-2.037Z" transform="translate(-359.235 -1182.888)" fill="#7200bc"/>
      </g>
      <g id="Grupo_75" data-name="Grupo 75" transform="translate(499.257 890.773)">
        <path id="Caminho_2094" data-name="Caminho 2094" d="M621.118,981.1l-1.318,44.225,88.391-1.618-1.318-40.63Z" transform="translate(-619.8 -981.1)" fill="#a500fb"/>
        <path id="Caminho_2095" data-name="Caminho 2095" d="M773.4,985.5l3.3,40.27H851.9V985.5Z" transform="translate(-681.354 -982.863)" fill="#a500fb"/>
        <path id="Caminho_2096" data-name="Caminho 2096" d="M656.1,1064.8v41.289h79.222L734,1064.8Z" transform="translate(-634.347 -1014.642)" fill="#a500fb"/>
        <path id="Caminho_2097" data-name="Caminho 2097" d="M887.005,1060.4l-92.705,2.637,6.951,43.926,90.068-2.637Z" transform="translate(-689.73 -1012.879)" fill="#a500fb"/>
        <path id="Caminho_2098" data-name="Caminho 2098" d="M707.651,1006.748l-4.734,13-74.248.959-7.011-39.551-.539-.06-1.318,44.225,88.391-1.618Z" transform="translate(-619.8 -981.1)" fill="#7200bc"/>
        <path id="Caminho_2099" data-name="Caminho 2099" d="M851.9,1025.77v-14.083l-4.255,10.127-65.319-1.618-5.753-34.7H773.4l3.3,40.27Z" transform="translate(-681.354 -982.863)" fill="#7200bc"/>
        <path id="Caminho_2100" data-name="Caminho 2100" d="M886.705,1060.46v37.573l-78.2,3-10.187-38.053-4.015.06,6.951,43.926,90.068-2.637-4.315-43.925Z" transform="translate(-689.73 -1012.879)" fill="#7200bc"/>
        <path id="Caminho_2101" data-name="Caminho 2101" d="M734,1064.8h-1.378l-.779,37.334-70.952-1.318-2.157-36.015H656.1v41.289h79.222Z" transform="translate(-634.347 -1014.642)" fill="#7200bc"/>
        <path id="Caminho_2102" data-name="Caminho 2102" d="M744.671,992.2l-7.071,1.318,1.5,5.393,6.772-1.8Z" transform="translate(-667.008 -985.548)" fill="#7200bc"/>
        <path id="Caminho_2103" data-name="Caminho 2103" d="M719.357,997.8l-2.157,3.356,5.453,2.517,2.637-4.315Z" transform="translate(-658.832 -987.792)" fill="#7200bc"/>
        <path id="Caminho_2104" data-name="Caminho 2104" d="M816.9,1002.7l-16,.42,2.457,6.472,12.584-3.955Z" transform="translate(-692.375 -989.756)" fill="#7200bc"/>
        <path id="Caminho_2105" data-name="Caminho 2105" d="M832.232,1012.5,826,1014.178l7.73,3.476,1.978-2.577Z" transform="translate(-702.433 -993.683)" fill="#7200bc"/>
        <path id="Caminho_2106" data-name="Caminho 2106" d="M757.058,1069.5l-15.521,2.157-2.337,6.951,7.311-1.858Z" transform="translate(-667.649 -1016.526)" fill="#7200bc"/>
        <path id="Caminho_2107" data-name="Caminho 2107" d="M760.918,1084.7l-1.318,4.794,4.614-.839v-2.637Z" transform="translate(-675.824 -1022.617)" fill="#7200bc"/>
        <path id="Caminho_2108" data-name="Caminho 2108" d="M751.4,1108.1v6.232l4.914-1.438-2.457-3.176Z" transform="translate(-672.538 -1031.994)" fill="#7200bc"/>
        <path id="Caminho_2109" data-name="Caminho 2109" d="M925.473,1096l-5.573,1.978v4.434l5.573-2.157Z" transform="translate(-740.063 -1027.145)" fill="#7200bc"/>
        <path id="Caminho_2110" data-name="Caminho 2110" d="M912.156,1088.7l-3.356,3.536,3.356,1.318,3.3-2.457Z" transform="translate(-735.615 -1024.22)" fill="#7200bc"/>
      </g>
      <path id="Caminho_2111" data-name="Caminho 2111" d="M1494.818,944l-1.318,44.225,88.45-1.618-1.318-40.57Z" transform="translate(-470.672 -75.46)" fill="#a500fb"/>
      <path id="Caminho_2112" data-name="Caminho 2112" d="M1529.9,1027.7v41.289h79.162l-1.318-41.289Z" transform="translate(-485.259 -109.002)" fill="#a500fb"/>
      <path id="Caminho_2113" data-name="Caminho 2113" d="M1581.411,969.648l-4.734,13-74.248.959-7.011-39.551-.6-.06-1.318,44.225,88.45-1.618Z" transform="translate(-470.672 -75.46)" fill="#7200bc"/>
      <path id="Caminho_2114" data-name="Caminho 2114" d="M1607.743,1027.7h-1.378l-.719,37.334-70.952-1.318-2.157-36.015H1529.9v41.289h79.162Z" transform="translate(-485.259 -109.002)" fill="#7200bc"/>
      <path id="Caminho_2115" data-name="Caminho 2115" d="M1618.471,955.1l-7.071,1.318,1.5,5.393,6.772-1.8Z" transform="translate(-517.92 -79.908)" fill="#7200bc"/>
      <path id="Caminho_2116" data-name="Caminho 2116" d="M1593.157,960.7,1591,964.056l5.453,2.517,2.637-4.315Z" transform="translate(-509.745 -82.152)" fill="#7200bc"/>
      <g id="Grupo_76" data-name="Grupo 76" transform="translate(1114.933 871.237)">
        <path id="Caminho_2117" data-name="Caminho 2117" d="M1647.2,948.5l3.3,40.21H1725.7V948.5Z" transform="translate(-1647.2 -948.5)" fill="#a500fb"/>
        <path id="Caminho_2118" data-name="Caminho 2118" d="M1725.7,988.71V974.688l-4.255,10.068-65.379-1.618-5.693-34.637H1647.2l3.3,40.21Z" transform="translate(-1647.2 -948.5)" fill="#7200bc"/>
        <path id="Caminho_2119" data-name="Caminho 2119" d="M1690.7,965.6l-16,.419,2.457,6.472,12.584-3.955Z" transform="translate(-1658.22 -955.353)" fill="#7200bc"/>
        <path id="Caminho_2120" data-name="Caminho 2120" d="M1706.032,975.4l-6.232,1.678,7.73,3.476,1.978-2.577Z" transform="translate(-1668.279 -959.28)" fill="#7200bc"/>
      </g>
      <path id="Caminho_2121" data-name="Caminho 2121" d="M1630.858,1032.4l-15.521,2.157-2.337,6.951,7.311-1.858Z" transform="translate(-518.561 -110.885)" fill="#7200bc"/>
      <path id="Caminho_2122" data-name="Caminho 2122" d="M1634.718,1047.6l-1.318,4.794,4.614-.839v-2.637Z" transform="translate(-526.736 -116.977)" fill="#7200bc"/>
      <path id="Caminho_2123" data-name="Caminho 2123" d="M1625.2,1071v6.232l4.914-1.438-2.457-3.176Z" transform="translate(-523.45 -126.354)" fill="#7200bc"/>
      <g id="Grupo_77" data-name="Grupo 77" transform="translate(1127.758 1042.924)">
        <path id="Caminho_2124" data-name="Caminho 2124" d="M1669.918,1235l-1.318,44.225,88.45-1.678-1.318-40.57Z" transform="translate(-1668.6 -1235)" fill="#a500fb"/>
        <path id="Caminho_2125" data-name="Caminho 2125" d="M1822.2,1239.4l3.3,40.27h75.267V1239.4Z" transform="translate(-1730.154 -1236.763)" fill="#a500fb"/>
        <path id="Caminho_2126" data-name="Caminho 2126" d="M1756.511,1260.588l-4.734,13-74.248,1.019L1670.518,1235h-.6l-1.318,44.225,88.45-1.678Z" transform="translate(-1668.6 -1235)" fill="#7200bc"/>
        <path id="Caminho_2127" data-name="Caminho 2127" d="M1900.763,1279.67v-14.083l-4.315,10.127-65.319-1.678-5.693-34.637H1822.2l3.3,40.27Z" transform="translate(-1730.154 -1236.763)" fill="#7200bc"/>
        <path id="Caminho_2128" data-name="Caminho 2128" d="M1793.531,1246l-7.131,1.318,1.5,5.453,6.772-1.8Z" transform="translate(-1715.807 -1239.408)" fill="#7200bc"/>
        <path id="Caminho_2129" data-name="Caminho 2129" d="M1768.2,1251.7l-2.1,3.356,5.393,2.457,2.7-4.255Z" transform="translate(-1707.672 -1241.692)" fill="#7200bc"/>
        <path id="Caminho_2130" data-name="Caminho 2130" d="M1865.8,1256.5l-16,.479,2.457,6.412,12.524-3.955Z" transform="translate(-1741.215 -1243.616)" fill="#7200bc"/>
        <path id="Caminho_2131" data-name="Caminho 2131" d="M1881.092,1266.4l-6.292,1.618,7.79,3.476,1.978-2.577Z" transform="translate(-1751.233 -1247.583)" fill="#7200bc"/>
      </g>
      <path id="Caminho_2132" data-name="Caminho 2132" d="M2210.418,852.6l-1.318,44.225,88.45-1.618-1.318-40.63Z" transform="translate(-757.444 -38.832)" fill="#a500fb"/>
      <path id="Caminho_2133" data-name="Caminho 2133" d="M2362.7,857l3.356,40.27h75.207V857Z" transform="translate(-818.998 -40.595)" fill="#a500fb"/>
      <path id="Caminho_2134" data-name="Caminho 2134" d="M2297.011,878.248l-4.734,12.944-74.248,1.019-7.011-39.611h-.6l-1.318,44.225,88.45-1.618Z" transform="translate(-757.444 -38.832)" fill="#7200bc"/>
      <path id="Caminho_2135" data-name="Caminho 2135" d="M2441.263,897.27V883.188l-4.315,10.127-65.319-1.678L2365.936,857H2362.7l3.356,40.27Z" transform="translate(-818.998 -40.595)" fill="#7200bc"/>
      <path id="Caminho_2136" data-name="Caminho 2136" d="M2278.071,870.7,2271,872.018l1.5,5.453,6.772-1.858Z" transform="translate(-782.25 -46.085)" fill="#7200bc"/>
      <path id="Caminho_2137" data-name="Caminho 2137" d="M2245.757,865.3l-2.157,3.416,5.453,2.457,2.637-4.315Z" transform="translate(-771.27 -43.921)" fill="#7200bc"/>
      <path id="Caminho_2138" data-name="Caminho 2138" d="M2390.3,902.191l16-.479-2.457-6.412-12.584,3.955Z" transform="translate(-830.058 -55.944)" fill="#7200bc"/>
      <path id="Caminho_2139" data-name="Caminho 2139" d="M2472.4,865.8l-16,.479,2.457,6.412,12.524-3.955Z" transform="translate(-856.547 -44.122)" fill="#7200bc"/>
      <path id="Caminho_2140" data-name="Caminho 2140" d="M2472.692,878.7l-6.292,1.678,7.79,3.476,1.978-2.577Z" transform="translate(-860.555 -49.291)" fill="#7200bc"/>
      <path id="Caminho_2141" data-name="Caminho 2141" d="M2254.192,879.6l-6.292,1.678,7.79,3.416,1.978-2.517Z" transform="translate(-772.993 -49.652)" fill="#7200bc"/>
      <g id="Grupo_78" data-name="Grupo 78" transform="translate(1323.175 875.312)">
        <path id="Caminho_2142" data-name="Caminho 2142" d="M2087.465,955.3l-92.765,2.637,6.951,43.866,90.068-2.637Z" transform="translate(-1994.7 -955.3)" fill="#a500fb"/>
        <path id="Caminho_2143" data-name="Caminho 2143" d="M2087.105,955.3v37.573l-78.2,3-10.187-38.053-4.015.12,6.951,43.866,90.068-2.637-4.255-43.866Z" transform="translate(-1994.7 -955.3)" fill="#7200bc"/>
        <path id="Caminho_2144" data-name="Caminho 2144" d="M2125.873,990.8l-5.573,1.978v4.435l5.573-2.157Z" transform="translate(-2045.033 -969.526)" fill="#7200bc"/>
        <path id="Caminho_2145" data-name="Caminho 2145" d="M2112.6,983.5l-3.3,3.536,3.3,1.318,3.3-2.457Z" transform="translate(-2040.625 -966.601)" fill="#7200bc"/>
      </g>
      <g id="Grupo_79" data-name="Grupo 79" transform="translate(1188.582 781.049)">
        <path id="Caminho_2146" data-name="Caminho 2146" d="M1862.805,798l-92.705,2.637,6.891,43.866,90.128-2.637Z" transform="translate(-1770.1 -798)" fill="#a500fb"/>
        <path id="Caminho_2147" data-name="Caminho 2147" d="M1862.445,798v37.633l-78.2,2.936-10.187-38.053-3.955.12,6.891,43.866,90.128-2.637L1862.805,798Z" transform="translate(-1770.1 -798)" fill="#7200bc"/>
        <path id="Caminho_2148" data-name="Caminho 2148" d="M1872.8,808.8l-16,.42,2.457,6.472,12.524-3.955Z" transform="translate(-1804.844 -802.328)" fill="#7200bc"/>
        <path id="Caminho_2149" data-name="Caminho 2149" d="M1901.232,816.2,1895,817.878l7.73,3.416,1.978-2.517Z" transform="translate(-1820.153 -805.294)" fill="#7200bc"/>
        <path id="Caminho_2150" data-name="Caminho 2150" d="M1823.533,842l-5.633,2.037v4.434l5.633-2.157Z" transform="translate(-1789.255 -815.633)" fill="#7200bc"/>
      </g>
      <g id="Grupo_80" data-name="Grupo 80" transform="translate(1578.759 879.447)">
        <path id="Caminho_2151" data-name="Caminho 2151" d="M2516.542,962.2H2421.2l6.592,43.566h94.024Z" transform="translate(-2421.2 -962.2)" fill="#a500fb"/>
        <path id="Caminho_2152" data-name="Caminho 2152" d="M2516.542,1000.133h-82.518L2423.777,962.2H2421.2l6.592,43.566h94.024l-5.274-43.566h-2.7Z" transform="translate(-2421.2 -962.2)" fill="#7200bc"/>
        <path id="Caminho_2153" data-name="Caminho 2153" d="M2468.492,999.9l-6.292,4.075,5.274,2.157,3.835-1.438Z" transform="translate(-2437.63 -977.308)" fill="#7200bc"/>
        <path id="Caminho_2154" data-name="Caminho 2154" d="M2496,977.9l-3.3,3.176,4.435.959,2.637-2.037Z" transform="translate(-2449.853 -968.492)" fill="#7200bc"/>
        <path id="Caminho_2155" data-name="Caminho 2155" d="M2544.4,1001.7l-3.3,3.176,4.494.959,2.636-2.1Z" transform="translate(-2469.249 -978.029)" fill="#7200bc"/>
      </g>
      <g id="Grupo_81" data-name="Grupo 81" transform="translate(1626.22 928.286)">
        <path id="Caminho_2156" data-name="Caminho 2156" d="M2598.618,1043.7l-98.218,1.318,9.948,45.184,88.271-1.978Z" transform="translate(-2500.4 -1043.7)" fill="#a500fb"/>
        <path id="Caminho_2157" data-name="Caminho 2157" d="M2598.618,1043.7l-6.892.12c.6,9.888,2.337,38.053,1.738,38.832-.659,1.019-78.862,1.318-78.862,1.318l-12.7-38.952h-1.5l9.888,45.184,88.271-1.978V1043.7Z" transform="translate(-2500.4 -1043.7)" fill="#7200bc"/>
        <path id="Caminho_2158" data-name="Caminho 2158" d="M2542.492,1095.629l14.682-3.116-1.8-6.112-19.476,7.551Z" transform="translate(-2514.626 -1060.812)" fill="#7200bc"/>
        <path id="Caminho_2159" data-name="Caminho 2159" d="M2611.035,1088.7l-4.135,1.858,2.038,2.936,3.9-1.5Z" transform="translate(-2543.079 -1061.733)" fill="#7200bc"/>
        <path id="Caminho_2160" data-name="Caminho 2160" d="M2546.835,1075.9l-4.135,1.8,2.1,3,3.835-1.5Z" transform="translate(-2517.351 -1056.604)" fill="#7200bc"/>
      </g>
      <g id="Grupo_82" data-name="Grupo 82" transform="translate(1679.374 874.473)">
        <path id="Caminho_2161" data-name="Caminho 2161" d="M2589.1,953.9l9.588,45.9,80.48-1.978-4.794-43.926Z" transform="translate(-2589.1 -953.9)" fill="#a500fb"/>
        <path id="Caminho_2162" data-name="Caminho 2162" d="M2679.168,997.826l-3-27.806-2.936,23.491h-68.615L2590.478,953.9H2589.1l9.588,45.9Z" transform="translate(-2589.1 -953.9)" fill="#7200bc"/>
        <path id="Caminho_2163" data-name="Caminho 2163" d="M2668.682,964.8,2654,967.916l1.8,6.112,19.476-7.611Z" transform="translate(-2615.108 -958.268)" fill="#7200bc"/>
        <path id="Caminho_2164" data-name="Caminho 2164" d="M2686.5,986.8h6.592v4.614l-5.633,2.637Z" transform="translate(-2628.132 -967.084)" fill="#7200bc"/>
        <path id="Caminho_2165" data-name="Caminho 2165" d="M2697.295,968l-4.195,1.5,2.1,3,4.734-1.2Z" transform="translate(-2630.777 -959.55)" fill="#7200bc"/>
      </g>
      <g id="Grupo_83" data-name="Grupo 83" transform="translate(1996.501 814.847)">
        <path id="Caminho_2166" data-name="Caminho 2166" d="M3118.3,854.4l9.588,45.9,80.54-1.978-4.794-43.926Z" transform="translate(-3118.3 -854.4)" fill="#a500fb"/>
        <path id="Caminho_2167" data-name="Caminho 2167" d="M3208.428,898.326l-3.056-27.806-2.937,23.491h-68.615L3119.678,854.4H3118.3l9.588,45.9Z" transform="translate(-3118.3 -854.4)" fill="#7200bc"/>
        <path id="Caminho_2168" data-name="Caminho 2168" d="M3151.4,899h6.592v4.674l-5.633,2.637Z" transform="translate(-3131.564 -872.273)" fill="#7200bc"/>
        <path id="Caminho_2169" data-name="Caminho 2169" d="M3154.095,885.3l-4.195,1.5,2.1,2.936,4.734-1.139Z" transform="translate(-3130.963 -866.783)" fill="#7200bc"/>
      </g>
      <g id="Grupo_84" data-name="Grupo 84" transform="translate(1997.04 1043.284)">
        <path id="Caminho_2170" data-name="Caminho 2170" d="M3211.9,1235.6l-92.705,2.637,6.892,43.866,90.068-2.637Z" transform="translate(-3119.2 -1235.6)" fill="#a500fb"/>
        <path id="Caminho_2171" data-name="Caminho 2171" d="M3211.545,1235.6v37.634l-78.2,2.936-10.187-38.053-3.955.12,6.892,43.866,90.068-2.637L3211.9,1235.6Z" transform="translate(-3119.2 -1235.6)" fill="#7200bc"/>
        <path id="Caminho_2172" data-name="Caminho 2172" d="M3250.333,1271.1l-5.633,1.978v4.495l5.633-2.157Z" transform="translate(-3169.493 -1249.826)" fill="#7200bc"/>
        <path id="Caminho_2173" data-name="Caminho 2173" d="M3237,1263.8l-3.3,3.536,3.3,1.318,3.3-2.4Z" transform="translate(-3165.085 -1246.901)" fill="#7200bc"/>
      </g>
      <g id="Grupo_85" data-name="Grupo 85" transform="translate(1907.451 935.417)">
        <path id="Caminho_2174" data-name="Caminho 2174" d="M2969.7,1055.6v41.289h79.222L3047.6,1055.6Z" transform="translate(-2969.7 -1055.6)" fill="#a500fb"/>
        <path id="Caminho_2175" data-name="Caminho 2175" d="M3047.6,1055.6h-1.378l-.779,37.334-70.952-1.318-2.157-36.015H2969.7v41.289h79.222Z" transform="translate(-2969.7 -1055.6)" fill="#7200bc"/>
        <path id="Caminho_2176" data-name="Caminho 2176" d="M3070.7,1060.3l-15.521,2.157-2.277,6.951,7.251-1.858Z" transform="translate(-3003.042 -1057.484)" fill="#7200bc"/>
        <path id="Caminho_2177" data-name="Caminho 2177" d="M3074.518,1075.5l-1.318,4.794,4.614-.839v-2.637Z" transform="translate(-3011.177 -1063.575)" fill="#7200bc"/>
        <path id="Caminho_2178" data-name="Caminho 2178" d="M3065,1098.9v6.232l4.914-1.438-2.457-3.176Z" transform="translate(-3007.891 -1072.952)" fill="#7200bc"/>
      </g>
      <g id="Grupo_86" data-name="Grupo 86" transform="translate(792.413 1880.925)">
        <path id="Caminho_2179" data-name="Caminho 2179" d="M1110.318,2633.4,1109,2677.625l88.39-1.618-1.318-40.63Z" transform="translate(-1109 -2633.4)" fill="#a500fb"/>
        <path id="Caminho_2180" data-name="Caminho 2180" d="M1262.6,2637.8l3.3,40.27H1341.1V2637.8Z" transform="translate(-1170.554 -2635.163)" fill="#a500fb"/>
        <path id="Caminho_2181" data-name="Caminho 2181" d="M1196.851,2659.048l-4.734,13-74.248.959-7.011-39.611h-.539L1109,2677.625l88.39-1.618Z" transform="translate(-1109 -2633.4)" fill="#7200bc"/>
        <path id="Caminho_2182" data-name="Caminho 2182" d="M1341.1,2678.07v-14.083l-4.255,10.127-65.319-1.678-5.753-34.637H1262.6l3.3,40.27Z" transform="translate(-1170.554 -2635.163)" fill="#7200bc"/>
        <path id="Caminho_2183" data-name="Caminho 2183" d="M1233.871,2644.4l-7.071,1.318,1.5,5.453,6.772-1.8Z" transform="translate(-1156.208 -2637.808)" fill="#7200bc"/>
        <path id="Caminho_2184" data-name="Caminho 2184" d="M1208.557,2650.1l-2.157,3.356,5.453,2.517,2.637-4.314Z" transform="translate(-1148.032 -2640.092)" fill="#7200bc"/>
        <path id="Caminho_2185" data-name="Caminho 2185" d="M1306.1,2655l-16,.419,2.457,6.472,12.584-3.955Z" transform="translate(-1181.574 -2642.056)" fill="#7200bc"/>
        <path id="Caminho_2186" data-name="Caminho 2186" d="M1321.432,2664.8l-6.232,1.678,7.73,3.416,1.978-2.517Z" transform="translate(-1191.633 -2645.983)" fill="#7200bc"/>
      </g>
      <g id="Grupo_87" data-name="Grupo 87" transform="translate(936.415 1957.57)">
        <path id="Caminho_2187" data-name="Caminho 2187" d="M1451.893,2761.3l-102.593,4.554,3,45.184,91.087-2.637Z" transform="translate(-1349.3 -2761.3)" fill="#a500fb"/>
        <path id="Caminho_2188" data-name="Caminho 2188" d="M1449.5,2777.789l-11.745,28.345-79.881,1.978-7.491-39.311-1.079.06,3,45.184,91.087-2.637Z" transform="translate(-1349.3 -2764.306)" fill="#7200bc"/>
        <path id="Caminho_2189" data-name="Caminho 2189" d="M1470.543,2772.2l-13.843,3.955,4.315,7.91,11.506-4.315Z" transform="translate(-1392.34 -2765.668)" fill="#7200bc"/>
        <path id="Caminho_2190" data-name="Caminho 2190" d="M1433.673,2772.2l-5.573,4.614,5.573,2.937,4.614-3.775Z" transform="translate(-1380.879 -2765.668)" fill="#7200bc"/>
        <path id="Caminho_2191" data-name="Caminho 2191" d="M1378.073,2797.5l-5.573,3.176,5.573,2.217,8.27-2.217Z" transform="translate(-1358.597 -2775.807)" fill="#7200bc"/>
      </g>
      <g id="Grupo_88" data-name="Grupo 88" transform="translate(1397.663 1882.903)">
        <path id="Caminho_2192" data-name="Caminho 2192" d="M2120.318,2636.7,2119,2680.925l88.45-1.678-1.319-40.57Z" transform="translate(-2119 -2636.7)" fill="#a500fb"/>
        <path id="Caminho_2193" data-name="Caminho 2193" d="M2272.6,2641.1l3.3,40.27h75.267V2641.1Z" transform="translate(-2180.554 -2638.463)" fill="#a500fb"/>
        <path id="Caminho_2194" data-name="Caminho 2194" d="M2155.4,2720.4v41.229h79.162l-1.318-41.229Z" transform="translate(-2133.587 -2670.242)" fill="#a500fb"/>
        <path id="Caminho_2195" data-name="Caminho 2195" d="M2206.911,2662.288l-4.734,13-74.248,1.019-7.011-39.611h-.6L2119,2680.925l88.45-1.678Z" transform="translate(-2119 -2636.7)" fill="#7200bc"/>
        <path id="Caminho_2196" data-name="Caminho 2196" d="M2351.163,2681.37v-14.083l-4.315,10.067-65.319-1.618-5.693-34.637H2272.6l3.3,40.27Z" transform="translate(-2180.554 -2638.463)" fill="#7200bc"/>
        <path id="Caminho_2197" data-name="Caminho 2197" d="M2233.243,2720.4h-1.378l-.779,37.274-70.952-1.318-2.157-35.956H2155.4v41.229h79.162Z" transform="translate(-2133.587 -2670.242)" fill="#7200bc"/>
        <path id="Caminho_2198" data-name="Caminho 2198" d="M2243.931,2647.7l-7.131,1.318,1.5,5.453,6.772-1.858Z" transform="translate(-2166.208 -2641.108)" fill="#7200bc"/>
        <path id="Caminho_2199" data-name="Caminho 2199" d="M2218.657,2653.3l-2.157,3.416,5.453,2.457,2.637-4.315Z" transform="translate(-2158.073 -2643.352)" fill="#7200bc"/>
        <path id="Caminho_2200" data-name="Caminho 2200" d="M2316.2,2658.2l-16,.479,2.457,6.412,12.525-3.955Z" transform="translate(-2191.615 -2645.316)" fill="#7200bc"/>
        <path id="Caminho_2201" data-name="Caminho 2201" d="M2331.492,2668.1l-6.292,1.618,7.79,3.476,1.978-2.577Z" transform="translate(-2201.633 -2649.283)" fill="#7200bc"/>
        <path id="Caminho_2202" data-name="Caminho 2202" d="M2256.3,2725.1l-15.461,2.1-2.337,6.951,7.251-1.8Z" transform="translate(-2166.889 -2672.126)" fill="#7200bc"/>
        <path id="Caminho_2203" data-name="Caminho 2203" d="M2260.218,2740.2l-1.318,4.794,4.614-.839v-2.637Z" transform="translate(-2175.064 -2678.177)" fill="#7200bc"/>
        <path id="Caminho_2204" data-name="Caminho 2204" d="M2250.6,2763.6v6.292l4.974-1.5-2.517-3.116Z" transform="translate(-2171.738 -2687.554)" fill="#7200bc"/>
      </g>
    </g>
  </g>
</svg>
