<svg width="1920" height="923" viewBox="0 0 1920 923" fill="none" xmlns="http://www.w3.org/2000/svg">
<g opacity="0.500041">
<path d="M585.755 464.55C590.551 463.035 595.6 462.025 600.649 461.268C606.96 460.258 613.523 460.006 620.087 459.501C627.66 459.249 635.233 458.996 642.554 458.996C650.632 458.996 689.507 457.734 713.489 456.219C747.82 453.947 749.84 449.908 713.489 449.656C608.979 450.666 576.92 312.077 527.19 328.233C504.975 335.301 499.421 362.565 506.237 382.76C513.558 403.712 533.248 422.645 551.928 437.034C541.578 432.742 529.714 429.713 520.121 426.179C509.266 422.14 496.897 417.849 485.032 422.14C483.518 422.645 482.508 424.665 483.518 425.927C484.275 426.684 484.78 427.441 485.537 428.199C458.274 421.383 427.729 413.557 400.213 405.732C399.456 377.711 352.755 365.089 352.755 359.031C352.755 354.992 358.561 355.496 358.561 352.215C358.561 331.515 295.199 272.949 254.809 270.172C254.304 270.172 253.547 270.93 253.547 272.192C253.547 275.978 257.586 280.017 257.586 282.037C257.586 283.299 255.818 283.551 254.556 283.551C254.304 283.551 213.409 264.114 193.719 264.114C189.427 264.114 185.136 264.619 180.592 265.881C176.553 265.124 174.028 264.619 174.028 264.619C172.766 260.58 185.388 255.026 183.369 248.715C180.844 241.394 166.708 242.152 160.902 235.588C169.232 229.53 171.756 222.966 170.494 216.403C174.533 215.646 178.32 213.121 180.087 209.84C180.339 209.335 180.592 208.83 180.844 208.325C182.359 208.577 183.621 208.83 185.136 208.83C191.952 209.335 197.505 207.063 201.797 203.276C212.147 215.393 228.303 225.238 242.187 231.802C260.867 240.384 284.091 246.443 305.549 244.423C310.093 243.919 314.637 242.656 318.676 240.637C323.977 239.88 327.763 236.85 329.53 232.559C334.579 226.753 336.851 219.18 333.065 210.849C327.511 197.975 308.073 188.635 292.169 182.576C289.898 177.022 286.111 171.721 281.315 168.187C280.81 167.682 280.557 167.177 280.052 166.672C265.664 144.71 226.788 110.884 179.835 108.612C179.582 108.612 179.33 108.359 179.077 108.359C171.504 105.582 161.406 100.281 153.076 105.077C150.299 106.845 148.027 109.369 147.27 112.398C146.008 112.651 144.746 113.155 143.484 113.408C142.979 113.66 142.726 113.66 142.221 113.913C140.202 112.398 137.173 112.651 135.406 114.67C133.386 116.69 132.629 119.214 132.629 121.738C126.318 119.214 119.502 118.962 115.715 125.777C115.21 126.787 114.706 127.797 114.453 128.807C108.647 123.253 101.831 116.185 96.2774 118.204C91.986 119.719 92.491 124.515 94.0056 128.554C87.6946 120.476 83.1508 110.631 77.8495 100.786C80.374 95.9897 78.6068 90.4361 76.0825 85.6398C73.053 79.5812 68.7618 71.7557 61.441 69.2313C58.1593 67.9692 53.8679 68.2215 50.8386 70.2411C48.5667 68.9789 46.0424 67.9692 43.5179 66.9594C19.0315 59.1338 -0.153809 21.268 -13.5331 25.5595C-14.0381 25.812 -46.6026 -13.0635 -101.382 4.60714C-133.694 14.9571 -146.568 36.4144 -141.772 60.1435C-146.063 60.1435 -144.296 53.5801 -150.102 55.5996C-152.627 56.357 -154.898 58.3765 -156.918 60.396C-160.705 58.124 -164.996 56.6093 -168.278 56.8618C-170.802 55.5996 -173.326 56.6093 -174.841 58.6289C-175.094 58.124 -175.346 57.6192 -175.598 57.1143C-174.084 56.8618 -173.074 55.8521 -172.569 54.3374C-172.569 54.0849 -172.569 54.0849 -172.317 53.8325C-171.054 53.0752 -170.045 51.5606 -170.55 49.7935C-171.054 47.2691 -172.064 44.9972 -173.326 42.9777C-176.608 35.9094 -183.676 29.3461 -191.754 31.1131C-194.784 28.8412 -198.065 27.8314 -201.852 29.0936C-206.396 30.6082 -209.425 36.1619 -212.454 40.2008C-216.493 37.9289 -220.532 35.6569 -224.319 33.385C-235.426 26.5692 -246.533 19.7534 -258.398 14.1997C-260.165 13.19 -261.932 11.9278 -263.699 11.1705C-266.981 8.89855 -270.515 7.3839 -274.302 5.8693C-275.816 5.36437 -277.331 6.87899 -276.321 8.14121C-276.069 14.9571 -277.583 17.4814 -281.37 15.4619C-282.885 14.9571 -284.399 14.1997 -285.914 13.6948C-288.438 12.6851 -290.963 11.6753 -293.487 10.4131C-299.041 7.88876 -304.342 5.61683 -309.643 2.83997C-309.895 2.58752 -310.148 3.09245 -309.895 3.34487C-303.332 7.13142 -296.769 10.6656 -290.205 14.1997C-288.691 14.9571 -286.671 16.2192 -284.652 17.4814C-284.904 17.7339 -285.409 17.9863 -285.409 18.2387C-285.661 18.7436 -285.914 19.5009 -285.914 20.0058C-285.661 21.0155 -285.157 22.0253 -284.399 22.7826C-284.147 24.0448 -283.389 25.0545 -282.632 26.0643C-280.36 28.3362 -275.564 31.3655 -271.525 31.3655C-269 31.618 -266.476 31.3655 -265.214 29.5985C-264.457 29.5985 -263.952 29.5985 -263.447 29.5985C-262.437 30.1033 -261.427 30.6082 -260.417 31.1131C-255.116 37.6765 -249.31 43.9875 -244.514 49.2887C-246.029 51.3082 -246.029 53.8325 -245.524 56.3569C-246.029 61.1532 -244.261 65.9496 -240.98 69.7362C-240.98 69.9886 -240.727 69.9886 -240.475 70.241C-239.718 71.5032 -238.708 72.7654 -237.698 73.7752C-236.436 74.7849 -234.921 75.7947 -233.407 76.2995C-234.164 81.6007 -235.426 87.1543 -233.911 91.9506C-235.426 97.5043 -230.125 103.563 -224.066 105.582C-224.571 108.612 -224.571 111.893 -224.066 115.175C-222.299 125.02 -216.493 133.35 -208.668 139.409C-210.94 156.575 -211.697 175.508 -205.891 192.169C-187.463 245.686 -114.256 250.482 -54.4279 231.044C-45.0877 228.015 -30.4463 231.549 -30.4463 231.549C-28.1743 230.792 -29.9414 224.986 -26.6597 222.966C-15.5524 242.151 27.1096 256.793 29.8864 255.783C32.9157 254.773 35.1876 254.016 31.401 243.414C29.8864 238.617 27.3621 234.073 25.5951 229.277C25.3426 228.52 25.0901 227.762 25.0901 227.005C31.401 238.365 45.0327 246.948 57.1498 251.744C57.907 251.997 58.6644 252.249 59.6742 252.754C63.4608 255.026 67.2473 257.045 71.2864 258.56C73.0535 266.385 81.1315 275.221 90.7241 280.269C90.2192 281.784 90.2192 283.299 90.4717 284.813C91.4813 290.367 94.2582 295.668 98.2973 299.96C88.4522 297.94 80.1218 298.95 78.1021 306.271C75.5779 315.611 85.1704 321.922 92.2387 326.213C98.8022 330 107.385 336.563 115.968 340.35C115.463 340.602 114.706 340.855 114.201 341.107C107.133 343.379 98.5497 342.874 92.4911 344.641C83.9083 347.418 85.1704 357.011 86.6851 361.554C92.2387 377.711 117.987 388.061 129.599 390.332C134.648 394.624 139.445 399.42 144.746 403.712C151.814 409.265 161.154 416.081 170.999 416.838C175.291 418.858 180.34 419.363 186.398 417.343C190.437 416.081 191.699 412.547 191.699 407.498C199.272 408.003 207.098 412.547 212.904 410.528C221.235 407.751 206.341 396.391 217.953 392.604C221.235 391.595 225.021 391.342 228.808 392.1C279.295 422.392 368.911 481.967 412.835 474.899C427.224 472.627 434.797 465.307 438.079 458.238C497.907 472.627 592.066 479.948 590.804 475.909C589.037 470.86 580.706 467.831 580.202 466.569C580.706 466.317 585.25 464.802 585.755 464.55Z" fill="#131336"/>
<path d="M700.629 451.15C701.331 451.15 702.034 451.15 702.737 451.15C620.958 442.012 590.262 338.674 550.427 337.737C564.486 345.47 578.545 367.262 578.545 378.978C578.545 387.18 578.311 381.087 568.938 381.087C538.242 381.087 596.589 382.025 621.193 426.546C620.49 417.876 615.803 410.143 612.991 402.411C632.206 431.233 666.651 451.15 700.629 451.15Z" fill="url(#paint0_linear_8_4885)"/>
<path opacity="0.47" d="M197.296 116.553C199.639 117.959 287.042 149.592 294.775 197.629C294.775 195.754 295.009 193.88 295.009 192.005C295.009 175.134 326.409 203.721 326.409 216.844C326.409 220.827 325.471 225.045 323.831 229.028C324.534 228.091 325.237 227.154 325.706 225.982C330.392 220.593 332.501 213.563 328.986 205.83C323.831 193.88 305.788 185.21 291.026 179.586C288.917 174.431 285.402 169.51 280.95 166.229C280.481 165.761 280.247 165.292 279.778 164.823C266.656 144.672 231.039 113.506 188.157 110.929C190.969 113.272 194.484 114.912 197.296 116.553Z" fill="url(#paint1_linear_8_4885)"/>
<path d="M463.051 426.78C442.665 421.625 421.107 415.767 401.19 410.378C400.487 384.368 357.137 372.651 357.137 367.028C357.137 363.278 362.526 363.747 362.526 360.701C362.526 346.173 328.549 311.258 295.743 294.153C316.598 309.618 352.216 337.971 352.216 358.592C352.216 378.041 408.688 407.8 369.79 403.582C389.942 405.926 397.675 450.682 397.675 432.639C398.143 410.612 371.665 412.955 463.051 426.78Z" fill="url(#paint2_linear_8_4885)"/>
<path opacity="0.39" d="M271.609 317.081C272.781 317.081 280.514 323.877 284.497 332.313C283.56 318.253 270.906 294.821 251.692 283.104C251.457 282.87 213.497 265.061 195.219 265.061C191.236 265.061 187.252 265.53 183.034 266.702C179.285 265.999 176.942 265.53 176.942 265.53C175.77 261.781 187.487 256.626 185.612 250.768C183.269 243.972 170.147 244.675 164.757 238.583C171.787 233.662 174.13 228.038 173.896 222.649C168.506 233.896 156.79 241.395 156.79 241.395C166.163 241.395 176.239 244.675 176.239 253.814C176.239 258.266 173.427 262.484 171.318 266.233C165.694 266.467 159.368 266.702 156.087 267.17C156.087 259.203 154.447 247.956 146.011 242.098C146.948 239.754 147.651 236.942 147.651 235.536C147.651 230.85 145.777 226.398 142.028 223.117C143.902 221.711 144.84 219.368 144.84 217.025C144.84 214.682 143.434 210.464 143.434 213.979V214.213C143.434 217.962 140.153 218.9 136.638 218.9C135.467 218.9 134.295 218.9 132.889 218.9C132.42 218.9 131.952 218.9 131.483 218.9C131.717 219.134 144.137 225.695 143.434 241.16C141.325 240.457 139.216 240.223 136.873 240.223C133.826 240.223 130.78 240.926 128.203 242.566C129.843 242.098 131.483 241.863 133.123 241.863C137.576 241.863 140.856 243.269 143.668 245.613C143.902 246.081 143.902 246.081 144.137 246.081C149.76 251.471 152.807 261.078 154.447 267.873C146.948 269.045 144.371 271.154 157.962 276.543C158.43 273.732 167.569 271.623 176.942 269.982C216.777 270.217 212.325 309.115 212.325 289.431C212.325 279.121 205.53 270.451 194.751 267.873C195.219 267.873 195.688 267.873 195.922 267.873C213.262 267.873 249.817 280.293 263.877 295.992C267.157 299.742 265.986 302.553 265.986 303.959C265.986 304.194 265.986 304.428 265.517 304.428C263.642 304.428 261.299 302.085 259.424 302.085C258.487 302.085 257.315 302.788 257.315 304.194C257.315 307.709 262.236 310.286 271.375 324.814C271.609 325.049 271.844 325.283 271.844 325.283C271.844 325.283 271.844 325.283 271.844 325.049C271.844 322.94 270.438 320.831 270.438 318.722C270.672 317.081 270.906 317.081 271.609 317.081Z" fill="#84A9D9"/>
<path opacity="0.31" d="M139.288 169.358C139.288 191.385 142.802 163.969 142.802 161.626C142.802 148.738 134.835 136.084 123.353 136.084C120.307 136.084 118.667 132.569 116.324 128.352C116.324 128.586 116.089 128.586 116.089 128.82C111.169 123.899 105.31 118.276 100.39 118.744C112.809 125.305 111.403 139.599 117.495 139.599C126.165 139.599 139.288 151.315 139.288 169.358Z" fill="#84A9D9"/>
<path opacity="0.24" d="M72.958 122.845C72.958 104.802 58.6642 108.551 58.6642 96.1322C58.6642 83.9473 34.0601 59.5775 28.202 52.5478C22.8126 48.0956 17.6573 42.7062 12.9709 37.7853C15.7828 43.4091 18.1261 49.2672 21.8752 53.4851C27.2647 60.0462 38.5122 61.2178 39.6839 71.7624C39.6839 71.7624 40.1526 71.5281 40.6212 71.5281C43.4331 71.5281 53.2747 88.6338 53.2747 96.1321C53.2747 101.522 49.2912 107.145 49.2912 107.145C68.2715 107.614 72.958 144.403 72.958 122.845Z" fill="#84A9D9"/>
</g>
<g opacity="0.495909">
<path d="M1571.96 257.733C1563.1 256.749 1554.24 256.749 1545.62 257.487C1546.85 254.288 1544.64 251.334 1537.01 248.381C1519.29 241.736 1496.4 242.474 1476.71 246.904C1476.22 244.197 1474.74 241.49 1472.03 239.275C1460.22 229.184 1439.79 232.383 1425.27 237.552C1407.8 243.951 1387.37 252.073 1379.74 265.117C1378.76 266.839 1377.77 268.562 1376.79 270.285C1374.82 271.27 1373.1 272.254 1371.37 273.485C1359.56 270.777 1344.3 277.668 1341.35 285.544C1339.87 289.236 1341.35 293.174 1344.3 296.619C1343.81 297.358 1343.32 297.85 1342.82 298.588C1342.58 298.588 1342.33 298.588 1342.09 298.588C1341.1 298.834 1340.12 299.327 1339.38 299.819C1339.38 299.08 1338.64 298.588 1337.66 298.342C1338.39 297.604 1339.13 296.865 1339.38 295.881C1339.38 295.389 1339.13 294.896 1338.64 294.896C1330.52 293.666 1325.1 302.034 1324.12 306.464C1323.87 307.448 1324.37 308.433 1325.35 308.925C1325.84 311.878 1328.55 315.078 1332.49 316.555C1338.39 323.692 1351.68 326.153 1363.74 324.676C1363.5 325.169 1363.5 325.415 1363.25 325.907C1359.56 339.197 1380.23 345.35 1396.23 343.381C1411.24 341.412 1425.76 335.998 1439.79 332.06C1455.79 327.63 1471.54 323.2 1487.54 318.77C1495.91 316.555 1504.28 314.093 1511.66 311.14V311.14C1515.35 315.078 1522.73 316.062 1528.89 315.324C1538.24 314.34 1549.31 310.894 1558.17 306.218C1563.34 305.479 1567.77 303.264 1572.7 301.295C1585.74 295.389 1607.4 288.498 1608.87 276.438C1610.84 262.656 1586.97 259.21 1571.96 257.733Z" fill="#131336"/>
<path d="M1449.88 232.63C1441.52 232.876 1432.66 234.845 1425.27 237.552C1407.8 243.951 1387.37 252.073 1379.74 265.117C1378.76 266.839 1377.77 268.562 1376.79 270.285C1374.82 271.27 1373.1 272.254 1371.37 273.485C1359.56 270.777 1344.3 277.669 1341.35 285.544C1339.87 289.236 1341.35 293.174 1344.3 296.619C1343.81 297.358 1343.32 297.85 1342.82 298.588C1342.58 298.588 1342.33 298.588 1342.09 298.588C1341.1 298.834 1340.12 299.327 1339.38 299.819C1339.38 299.08 1338.64 298.588 1337.66 298.342C1338.39 297.604 1339.13 296.865 1339.38 295.881C1339.38 295.389 1339.13 294.896 1338.64 294.896C1330.52 293.666 1325.1 302.034 1324.12 306.464C1323.87 307.448 1324.37 308.433 1325.35 308.925C1325.6 310.894 1327.07 312.863 1329.04 314.586C1329.04 314.093 1329.04 313.847 1329.04 313.355C1329.04 307.448 1332.49 302.526 1336.18 302.526C1338.15 302.526 1340.36 303.511 1341.59 304.987C1342.33 302.034 1346.52 298.342 1346.52 297.112C1346.52 286.036 1358.82 277.422 1372.36 277.422C1372.85 277.422 1373.1 277.422 1373.59 277.422V277.422C1375.56 277.422 1378.51 274.715 1379.5 274.715C1380.97 274.715 1380.73 275.454 1380.73 273.238C1380.73 269.547 1387.37 260.933 1387.37 266.593C1387.37 268.07 1389.34 276.192 1389.34 272.5C1389.34 255.518 1417.15 252.073 1408.04 252.073C1389.34 252.073 1429.7 239.029 1449.88 232.63Z" fill="url(#paint3_linear_8_4885)"/>
<path d="M1909.42 177.254C1892.56 177.254 1879.17 186.852 1870.24 186.852C1866.53 186.852 1864.79 184.883 1864.79 183.161C1864.79 179.715 1871.98 176.762 1871.98 171.593C1871.98 170.609 1871.24 168.148 1870.24 168.148V168.148C1859.34 169.378 1849.17 170.855 1839.5 172.578C1838.01 171.101 1837.02 169.132 1837.02 165.933C1837.02 152.643 1893.55 118.925 1893.55 87.4223C1893.55 76.8394 1887.85 64.0415 1870.24 64.0415C1857.35 64.0415 1841.98 69.7021 1829.09 69.7021C1821.15 69.7021 1816.44 66.9949 1816.44 63.5492V63.3031C1816.69 58.8731 1818.43 54.443 1818.43 50.013C1818.43 41.1528 1808.26 35 1800.33 35C1779.5 35 1751.24 56.1658 1751.24 77.5778C1751.24 82.9923 1753.22 87.9146 1758.18 91.6063C1750.99 95.298 1744.79 100.466 1739.83 106.619C1737.35 107.111 1734.87 107.85 1732.39 108.588C1724.71 110.557 1718.01 113.018 1710.33 115.725C1702.15 118.925 1696.2 122.124 1689.5 124.832C1668.18 123.601 1639.42 128.277 1610.41 140.337C1609.67 140.583 1608.92 141.075 1608.18 141.321C1607.93 141.321 1607.68 141.567 1607.44 141.567C1605.2 142.552 1603.97 143.536 1603.22 144.521C1602.23 145.013 1601.49 145.505 1600.99 145.998C1588.59 156.334 1594.3 165.933 1605.95 170.609C1606.44 171.593 1607.19 172.824 1607.93 173.808C1590.33 179.715 1574.46 189.806 1574.46 203.834C1574.46 204.08 1574.46 204.573 1574.46 204.819C1569.75 206.049 1565.29 208.511 1565.29 212.448C1565.29 213.925 1565.54 215.402 1565.54 216.632C1565.54 222.539 1553.14 219.832 1550.16 227.954C1547.19 235.583 1546.44 243.213 1544.96 251.088C1544.71 251.334 1544.46 251.58 1544.21 251.58C1540.49 250.35 1534.79 248.627 1530.33 248.627C1521.16 248.627 1514.71 254.042 1514.71 266.593C1514.71 268.808 1514.71 271.27 1514.71 273.485C1514.71 286.529 1504.05 295.143 1493.39 304.495C1480.74 308.187 1465.12 310.402 1448.02 321.231C1442.81 324.676 1436.11 330.583 1429.67 330.583C1428.43 330.583 1427.69 330.583 1427.69 329.599C1427.69 329.107 1429.92 322.708 1429.92 318.77C1429.92 314.094 1422.48 312.863 1418.51 312.863C1401.9 312.863 1393.47 323.2 1387.77 338.459C1387.02 340.182 1380.83 338.213 1376.61 340.92C1361.49 350.272 1348.35 357.41 1337.69 362.824C1318.59 368.239 1300 373.161 1300 379.314C1300 381.283 1302.48 381.775 1304.46 381.775C1310.41 381.775 1415.04 365.778 1417.02 365.778L1505.04 350.518C1559.83 341.166 1616.86 334.521 1662.97 305.726C1670.91 264.378 1724.46 271.762 1755.95 252.811C1764.13 282.591 1930 218.601 1930 188.329C1930.24 180.207 1917.35 177.254 1909.42 177.254Z" fill="#131336"/>
<path d="M1417.89 312.863C1401.4 312.863 1393.03 323.2 1387.37 338.459C1386.63 340.182 1380.48 338.213 1376.3 340.92C1361.28 350.272 1348.24 357.41 1337.66 362.824C1320.67 367.746 1304.18 372.176 1300.74 377.345C1305.17 375.622 1320.67 369.223 1342.82 362.086C1359.56 356.671 1376.3 340.674 1384.91 341.904C1384.91 341.904 1380.97 351.749 1380.97 353.964C1380.97 362.824 1393.03 315.078 1427.24 314.832C1424.53 313.355 1420.35 312.863 1417.89 312.863Z" fill="url(#paint4_linear_8_4885)"/>
<path d="M1517.3 276.93C1516.56 277.422 1517.05 264.132 1517.05 263.148C1517.05 257.241 1522.47 250.104 1525.91 249.119C1519.02 250.596 1514.34 256.011 1514.34 266.84C1514.34 269.055 1514.34 271.516 1514.34 273.731C1514.34 286.775 1503.76 295.389 1493.18 304.741C1480.63 308.433 1465.12 310.648 1448.14 321.477C1445.68 323.2 1442.48 325.415 1439.53 327.384C1440.26 327.137 1471.52 312.125 1492.44 307.941C1493.42 307.695 1495.39 305.972 1495.15 310.894C1494.9 314.586 1495.64 318.77 1495.89 316.801C1498.84 298.834 1520.74 276.93 1536.49 276.93C1536.74 276.93 1523.7 273.485 1517.3 276.93Z" fill="url(#paint5_linear_8_4885)"/>
<path opacity="0.48" d="M1559.92 228.446C1559.67 229.43 1559.67 230.168 1559.67 231.153C1559.67 233.122 1560.16 235.091 1561.39 237.06C1562.38 228.938 1580.84 218.847 1580.84 200.143C1580.84 187.345 1597.57 180.946 1605.94 174.054C1588.96 179.961 1574.19 189.806 1574.19 203.588C1574.19 203.834 1574.19 204.326 1574.19 204.573C1569.52 205.803 1565.09 208.264 1565.09 212.202C1565.09 213.679 1565.33 215.156 1565.33 216.386C1565.33 222.293 1553.03 219.586 1550.07 227.707C1547.37 234.845 1546.38 242.474 1545.15 249.611C1556.23 261.425 1541.95 229.43 1559.92 228.446Z" fill="url(#paint6_linear_8_4885)"/>
<path opacity="0.28" d="M1772.45 103.174C1772.45 80.285 1796.08 73.1477 1781.8 73.1477C1775.4 73.1477 1777.62 75.1166 1770.97 75.1166C1769.25 75.1166 1767.77 76.8394 1766.3 77.3316V77.3316C1766.3 77.3316 1765.56 74.6244 1763.1 74.6244C1762.11 74.6244 1761.13 74.8705 1760.39 74.8705C1759.9 74.8705 1759.4 74.6244 1759.4 74.1321V74.1321C1759.65 55.4275 1774.91 45.0906 1786.72 37.215C1768.76 43.1217 1750.54 60.3497 1750.54 77.5777C1750.54 82.9922 1752.51 87.9145 1757.44 91.6062C1750.3 95.2979 1744.14 100.466 1739.22 106.619C1736.76 107.111 1734.3 107.85 1731.84 108.588C1724.21 110.557 1717.56 113.018 1709.93 115.725C1701.81 118.925 1695.91 122.124 1689.26 124.832C1668.1 123.601 1639.55 128.277 1610.75 140.337C1610.01 140.583 1609.27 141.075 1608.54 141.321C1608.29 141.321 1608.04 141.567 1607.8 141.567C1605.58 142.552 1604.35 143.536 1603.61 144.521C1602.63 145.013 1601.89 145.505 1601.4 145.997C1589.58 156.088 1594.26 165.194 1605.09 170.117C1603.37 166.917 1601.64 163.225 1601.64 159.78C1601.64 136.645 1654.56 128.031 1681.88 127.785C1677.94 132.707 1675.72 138.614 1675.72 145.013C1679.91 135.415 1725.69 111.541 1725.69 123.355L1743.65 111.541C1752.02 104.896 1763.59 94.5596 1763.59 102.681C1763.59 107.85 1768.26 113.264 1768.26 116.71C1768.26 116.71 1764.57 121.632 1759.16 137.876C1763.83 130 1774.91 127.293 1774.91 117.202C1775.4 112.034 1772.45 104.158 1772.45 103.174Z" fill="url(#paint7_linear_8_4885)"/>
</g>
<g opacity="0.503691">
<path d="M1393.55 648.102C1377.34 645.62 1358.9 641.421 1346.42 641.039C1342.69 640.657 1338.6 640.657 1334.68 641.993C1322.95 646.193 1326.67 654.783 1333.19 659.555C1330.96 658.982 1328.72 658.41 1326.49 657.837C1320.34 655.928 1314.94 652.874 1307.49 652.111C1305.99 651.729 1304.32 651.538 1302.64 651.729C1300.59 651.729 1298.54 652.492 1296.68 653.447C1296.31 653.256 1295.94 652.874 1295.56 652.683C1293.14 649.438 1288.67 646.957 1283.27 645.811C1282.15 645.429 1281.03 644.857 1279.91 644.475C1279.54 644.284 1278.98 644.284 1278.42 644.284C1278.05 637.603 1272.65 632.449 1263.89 630.54C1253.27 628.059 1239.12 634.549 1233.9 641.421C1226.08 637.221 1215.27 633.213 1202.42 639.13C1193.1 643.521 1189.93 648.484 1189.93 653.065C1180.62 649.82 1168.88 647.72 1156.22 652.492C1152.12 654.019 1149.88 655.737 1148.95 657.646C1146.9 657.646 1144.85 657.837 1142.99 658.219C1138.89 657.837 1134.42 658.41 1130.13 661.846C1129.95 662.037 1129.76 662.037 1129.76 662.228C1129.58 662.228 1129.39 662.418 1129.02 662.609C1125.85 664.136 1124.73 666.427 1125.1 667.954C1125.29 668.527 1125.48 668.909 1125.66 669.29C1125.48 669.29 1125.48 669.481 1125.48 669.481C1124.17 669.29 1123.06 669.099 1121.75 668.909C1109.64 667 1096.42 666.236 1082.44 666.618C1071.83 666.809 1056.92 667 1046.49 675.781C1040.53 680.744 1041.27 684.18 1044.63 686.661C1043.7 687.234 1042.76 687.997 1042.02 688.952C1034.57 697.351 1049.66 700.023 1056.36 701.932C1060.09 702.887 1064.19 703.841 1068.66 704.605C1118.21 722.357 1207.45 717.203 1299.47 680.744C1313.63 685.134 1335.62 683.798 1354.24 676.162C1365.05 671.772 1371.01 667.954 1369.52 663.755C1370.45 663.755 1371.38 663.755 1372.32 663.755C1380.14 666.236 1401 672.154 1431.74 659.555C1441.99 655.356 1438.45 652.874 1444.04 650.583C1445.9 649.82 1448.14 649.438 1450 648.484C1450.19 648.484 1420.75 648.102 1393.55 648.102Z" fill="#131336"/>
<path d="M1375.37 644.494C1364.76 642.632 1354.33 640.956 1346.32 640.77C1342.6 640.397 1338.5 640.397 1334.59 641.701C1322.86 645.798 1326.58 654.178 1333.1 658.834C1330.86 658.276 1328.63 657.717 1326.39 657.158C1320.25 655.296 1314.85 652.316 1307.4 651.571C1305.91 651.199 1304.23 651.013 1302.56 651.199C1300.51 651.199 1298.46 651.944 1296.6 652.875C1296.22 652.689 1295.85 652.316 1295.48 652.13C1293.06 648.964 1288.59 646.543 1283.19 645.426C1282.07 645.053 1280.95 644.494 1279.84 644.122C1279.46 643.936 1278.91 643.936 1278.35 643.936C1277.97 637.418 1272.57 632.389 1263.82 630.527C1253.2 628.106 1239.05 634.438 1233.84 641.142C1226.02 637.045 1215.21 633.134 1202.36 638.907C1193.05 643.191 1189.89 648.033 1189.89 652.502C1180.57 649.336 1168.84 647.288 1156.18 651.944C1152.08 653.434 1149.85 655.11 1148.92 656.972C1146.87 656.972 1144.82 657.158 1142.96 657.531C1138.86 657.158 1134.39 657.717 1130.11 661.069C1129.92 661.255 1129.73 661.255 1129.73 661.441C1129.55 661.441 1129.36 661.628 1128.99 661.814C1125.82 663.304 1124.7 665.539 1125.08 667.028C1125.26 667.587 1125.45 667.96 1125.64 668.332C1125.45 668.332 1125.45 668.518 1125.45 668.518C1124.15 668.332 1123.03 668.146 1121.73 667.96C1109.62 666.097 1096.4 665.352 1082.43 665.725C1071.81 665.911 1056.92 666.097 1046.49 674.664C1045.37 675.595 1044.44 676.34 1043.88 677.271C1045.18 676.713 1046.49 676.154 1047.79 675.595C1078.33 663.304 1104.22 674.478 1126.19 679.506C1125.82 672.988 1127.31 666.842 1139.04 662.186C1152.64 656.786 1155.06 664.049 1154.13 661.814C1153.01 658.834 1158.23 655.296 1162.88 653.434C1187.65 643.563 1201.06 666.842 1197.71 658.648C1196.03 654.178 1197.52 647.66 1205.72 644.308C1220.24 638.535 1232.35 644.494 1240.54 649.895C1241.84 647.66 1242.78 644.867 1245.94 643.563C1260.84 637.604 1293.8 661.255 1297.71 659.579C1312.8 653.434 1344.65 669.822 1340.92 660.51C1339.8 657.531 1339.99 653.992 1352.47 649.15C1358.8 646.17 1367.18 645.053 1375.37 644.494Z" fill="url(#paint8_linear_8_4885)"/>
</g>
<g opacity="0.495109">
<path d="M572.669 799.431C572.669 791.717 641.354 810.63 480.591 729.004C486.812 718.303 484.821 704.616 472.876 702.376C477.355 679.232 455.456 689.933 452.469 676.992C450.727 669.526 444.506 662.558 437.787 660.816C436.791 645.885 436.542 628.962 414.892 628.962C402.2 628.962 383.535 638.668 383.535 644.143C383.535 646.631 376.318 648.622 372.337 648.622C351.183 648.622 363.129 607.312 331.275 607.312C320.325 607.312 317.836 612.04 308.38 612.04C299.42 612.04 296.434 608.805 290.959 608.805C282.996 608.805 267.815 618.261 267.069 618.261C262.838 618.261 258.11 611.791 251.888 611.791C242.68 611.791 240.939 625.229 236.708 625.229C236.21 625.229 230.984 614.28 222.025 600.094C219.537 582.674 220.532 569.485 215.057 567.245C193.157 558.784 193.406 537.631 180.963 537.631C176.733 537.631 173.497 541.364 173.497 541.364C173.497 541.364 173.497 541.364 173.249 541.364C170.511 540.368 168.52 540.368 166.529 540.866C156.824 535.391 146.372 531.907 135.422 531.907C103.07 531.907 95.6044 570.231 94.6089 603.33C81.4194 598.352 66.7366 587.9 53.2982 587.9C42.0995 587.9 33.3895 596.61 31.6474 603.827C22.1907 601.09 11.2409 597.606 -0.20665 594.371C-7.17476 590.389 -13.3962 584.914 -16.8802 575.955C-15.8848 575.706 -11.1565 577.199 -9.41441 577.199C0.539963 577.199 -36.789 531.907 -36.789 551.069C-36.789 554.055 -35.5448 557.291 -35.5448 560.028C-35.5448 563.263 -37.5356 565.503 -39.0287 566.001C-45.9968 562.268 -54.7069 559.53 -57.1955 552.562C-59.1864 546.839 -59.4353 529.916 -68.6431 529.916C-74.6157 529.916 -77.3532 539.87 -78.0998 539.87C-78.5975 539.87 -92.7825 519.962 -99.2529 519.962C-101.741 519.962 -105.474 522.699 -108.461 526.93C-119.162 518.966 -130.36 511.749 -144.296 511.749C-146.536 511.749 -149.025 511.998 -149.025 511.998C-152.26 511.998 -155.993 508.763 -159.726 508.763C-160.97 508.763 -162.961 510.505 -162.961 512.745C-162.961 517.224 -158.481 526.183 -165.45 526.183C-167.938 526.183 -209 505.528 -209 516.478C-209 518.966 -180.879 564.756 -158.73 564.756C-144.794 564.756 -141.061 551.318 -125.383 560.277C-124.637 561.521 -124.139 562.517 -124.139 563.014C-124.139 566.001 -129.863 566.996 -129.863 568.489V568.489C-129.614 571.227 -128.618 573.715 -127.125 575.706C-135.337 582.177 -130.858 594.62 -124.637 602.832C-122.895 607.56 -120.406 611.542 -120.406 617.017C-120.406 624.234 -126.13 627.22 -126.13 631.7C-126.13 651.857 -33.0562 682.716 42.8461 691.426C127.458 723.778 216.301 727.262 195.397 705.362C216.052 705.611 217.048 704.616 228.744 704.616C275.281 704.616 280.507 759.116 331.772 759.116C350.437 759.116 369.35 744.433 370.594 744.433C373.083 744.433 375.572 745.429 376.816 747.42C412.901 815.607 705.56 845.47 708.048 845.47C755.83 846.466 572.669 818.842 572.669 799.431Z" fill="#121235"/>
<path opacity="0.98" d="M433.606 665.363C436.849 665.363 438.47 669.069 438.47 672.08C438.47 677.871 436.154 674.397 441.945 674.397C448.431 674.397 454.917 685.516 454.917 691.307C454.917 694.318 454.222 697.329 454.222 700.572C454.222 707.058 454.222 692.233 462.329 692.233C467.194 692.233 470.668 697.329 470.9 703.352C470.9 703.815 474.143 704.973 474.606 706.827V707.058C474.606 707.985 473.448 708.448 473.448 709.375C473.448 709.606 474.375 711.459 474.375 712.849C474.375 713.313 474.375 713.776 474.375 714.239C474.375 717.945 479.007 719.567 479.007 722.578C479.007 724.431 476.923 726.053 476.923 727.906C476.923 733.002 545.488 764.274 566.799 773.076C552.438 763.81 527.189 749.912 484.567 728.369C490.358 718.409 488.505 705.668 477.386 703.584C481.555 682.041 461.171 692.002 458.391 679.956C456.77 673.007 450.979 666.521 444.724 664.9C443.798 652.159 443.566 638.029 428.046 635.713C435.922 639.419 438.933 649.843 438.933 658.877C438.933 665.363 438.702 660.498 438.007 659.803C437.312 659.34 427.12 654.012 425.498 654.012C422.487 654.012 419.244 656.097 417.391 658.877C419.476 657.95 421.792 656.792 424.108 656.792C432.679 657.255 427.12 665.363 433.606 665.363Z" fill="url(#paint9_linear_8_4885)"/>
<path opacity="0.47" d="M384.166 684.48C375.364 658.999 361.697 656.915 367.025 656.915C373.742 656.915 379.302 661.316 385.556 663.864C379.765 654.135 371.194 656.22 364.94 646.491C353.821 638.847 358.686 609.891 332.974 609.891C329.962 609.891 327.877 610.355 325.793 610.818C334.132 612.439 333.437 619.62 338.765 619.62C347.335 619.62 357.528 645.796 357.528 648.112C357.528 653.208 338.07 635.372 337.143 635.372C332.047 635.372 330.425 624.253 320.465 625.643C318.148 625.875 357.991 652.977 357.528 662.011C357.296 666.18 354.516 669.423 354.516 673.593C354.516 673.593 356.369 667.107 361.002 666.18C381.386 661.316 396.443 719.921 384.166 684.48Z" fill="url(#paint10_linear_8_4885)"/>
<path opacity="0.32" d="M245.908 616.231C247.993 615.305 250.077 615.073 252.162 615.073C264.439 615.073 261.659 623.18 273.241 623.18C278.338 623.18 283.202 627.581 284.824 632.446C283.897 624.107 278.801 619.011 273.01 619.011C271.157 619.011 269.535 618.779 267.914 618.084C267.45 618.316 267.219 618.547 266.987 618.547C263.049 618.547 258.648 612.525 252.857 612.525C249.614 612.525 247.529 614.146 245.908 616.231Z" fill="url(#paint11_linear_8_4885)"/>
<path opacity="0.32" d="M231.738 617.171C231.043 616.708 226.179 606.979 218.071 593.775C215.755 577.56 216.682 565.284 211.585 563.199C191.201 555.323 191.433 535.633 179.851 535.633C175.913 535.633 172.901 539.108 172.901 539.108C172.901 539.108 172.901 539.108 172.67 539.108C170.122 538.182 168.269 538.182 166.415 538.645C157.381 533.549 147.652 530.306 137.46 530.306C132.596 530.306 128.194 531.232 124.488 533.085C127.963 532.39 131.437 532.159 135.144 532.159C146.957 532.159 158.771 536.097 164.794 547.679C165.257 543.741 168.5 542.119 171.048 542.119C173.365 542.119 192.128 552.543 192.822 565.515V565.515C192.822 565.978 192.359 566.21 191.664 566.21C190.274 566.21 187.958 565.284 186.105 565.284C184.947 565.284 189.811 587.289 192.822 587.289C195.139 587.289 196.529 580.109 200.003 580.109C205.563 580.109 208.806 601.651 216.682 601.651C223.631 602.115 231.507 666.279 231.738 617.171Z" fill="url(#paint12_linear_8_4885)"/>
</g>
<g opacity="0.495109">
<path d="M1755.2 722.51C1750.26 722.876 1745.32 723.791 1740.57 725.071C1735.81 726.352 1731.24 725.986 1726.3 726.352C1716.24 727.083 1706.54 730.742 1696.48 731.84C1683.68 733.303 1670.69 733.486 1658.07 736.047C1645.26 738.608 1632.64 741.718 1619.83 744.096C1615.81 744.828 1613.8 743.73 1610.32 742.45C1611.23 741.901 1612.15 741.352 1613.25 740.438C1614.16 739.706 1614.71 738.425 1613.8 737.511C1608.49 731.657 1601.54 731.291 1593.49 731.291C1579.77 731.291 1566.05 732.389 1552.33 734.218C1525.62 738.059 1499.46 745.194 1475.13 755.621C1463.79 760.377 1452.81 766.048 1442.2 772.085C1434.34 776.658 1420.62 782.695 1417.33 791.11C1411.29 806.476 1435.25 805.561 1448.61 803.183C1444.58 803.915 1443.85 809.586 1443.67 812.879C1443.67 813.245 1443.67 813.427 1443.85 813.793C1444.03 814.159 1444.58 814.342 1444.95 814.342C1446.41 814.525 1453.55 815.257 1450.25 817.818C1448.42 819.281 1449.52 821.659 1451.9 821.842C1451.72 822.208 1451.72 822.574 1451.53 822.94C1441.29 828.794 1428.48 830.257 1417.33 833.367C1405.25 836.66 1393.18 840.684 1381.29 844.343C1375.43 846.172 1369.76 847.819 1363.91 849.648C1362.08 850.197 1346.17 854.038 1345.98 855.136C1346.53 848.002 1366.1 847.087 1366.1 837.209C1366.1 836.66 1365.74 836.111 1365.01 835.745C1365.37 835.562 1365.56 835.379 1365.92 835.197C1368.12 833.733 1366.84 830.44 1363.91 830.623C1359.89 830.989 1355.86 831.538 1351.84 832.27C1351.29 830.074 1350.01 827.513 1347.45 827.513V827.513C1332.99 827.879 1304.46 841.416 1304.46 841.416C1304.46 841.416 1296.96 838.123 1290.01 838.123C1278.66 838.123 1270.8 844.16 1263.66 852.392C1262.2 854.039 1260.74 855.685 1259.46 857.514C1256.71 852.392 1249.39 851.295 1241.71 851.295C1206.95 851.295 1204.94 877.088 1192.68 884.405C1184.82 889.162 1172.2 890.442 1166.71 900.321C1164.51 898.308 1161.95 897.394 1159.39 897.394C1155 897.394 1146.22 902.699 1146.22 907.272C1146.22 907.638 1146.22 907.821 1146.22 908.187C1139.63 911.845 1131.04 909.467 1125 915.504C1126.65 916.418 1128.48 916.601 1130.31 916.601C1145.31 916.601 1174.76 908.004 1196.16 908.004C1197.81 908.004 1199.64 908.004 1201.28 908.187C1184.82 921.541 1225.43 922.089 1240.61 922.089C1284.88 922.089 1306.29 903.064 1306.29 901.235C1306.29 898.491 1292.38 898.674 1286.53 895.93C1287.99 893.552 1290.19 891.357 1292.75 889.162C1299.88 885.869 1305.01 884.954 1312.51 884.954C1314.7 884.954 1316.71 884.954 1318.91 885.137C1321.65 885.869 1324.21 886.601 1326.96 887.332C1362.26 896.845 1399.22 899.406 1435.62 897.942C1450.99 897.394 1466.35 895.93 1481.54 894.101C1515.38 889.893 1548.85 882.942 1581.97 875.625C1609.77 869.588 1640.69 865.38 1661.54 845.99C1663.74 843.977 1662.09 840.136 1658.98 839.77C1653.31 839.038 1647.45 838.489 1641.78 837.575C1638.13 837.026 1634.47 837.209 1630.99 836.843C1631.54 835.38 1630.63 833.733 1629.34 832.818C1626.23 830.806 1622.21 833.001 1618.73 832.818C1607.39 832.087 1596.23 832.27 1584.89 832.27C1575.01 832.27 1564.59 831.904 1554.53 832.27C1549.4 832.453 1544.1 833.001 1538.98 833.733C1534.22 834.465 1529.65 836.111 1524.71 836.294C1519.59 836.477 1513.18 835.562 1510.99 830.257C1509.89 827.33 1510.99 824.586 1512.63 822.025C1523.06 818.733 1532.02 812.33 1538.06 803.549C1548.31 797.33 1558.92 791.659 1570.07 787.451C1576.29 785.073 1583.06 782.878 1590.01 782.512C1596.05 782.146 1597.7 783.793 1597.15 786.171C1596.42 787.268 1595.69 788.366 1595.32 789.646C1593.12 792.573 1589.47 795.5 1587.27 796.964C1583.98 799.159 1587.64 803 1590.01 803.915C1591.48 804.464 1593.12 804.647 1594.77 804.647C1617.45 805.561 1639.04 797.329 1660.26 789.829C1685.14 780.866 1708.37 766.963 1724.65 747.572C1725.57 746.474 1725.93 744.462 1724.84 743.364C1723.92 742.45 1722.82 741.535 1721.91 740.62C1726.48 738.059 1731.24 735.681 1735.99 733.303C1742.76 729.827 1750.08 728.73 1757.03 725.62C1757.76 724.888 1757.4 722.327 1755.2 722.51Z" fill="#121235"/>
<path d="M1250.49 853.124C1251.96 853.124 1253.42 853.124 1255.07 853.307C1251.59 851.66 1246.65 851.112 1241.89 851.112C1207.14 851.112 1205.12 876.905 1192.87 884.222C1185 888.979 1172.38 890.259 1166.89 900.137C1164.7 898.125 1162.14 897.211 1159.57 897.211C1155.18 897.211 1146.4 902.516 1146.4 907.089C1146.4 907.455 1146.4 907.638 1146.4 908.004C1140 911.479 1131.77 909.467 1125.73 914.772C1131.95 912.76 1138.54 910.93 1144.94 910.565C1144.94 910.565 1145.12 910.565 1145.12 910.748C1145.12 911.113 1144.76 911.845 1144.76 912.394C1144.76 912.394 1153.54 901.601 1160.12 901.601C1162.87 901.601 1165.43 903.247 1165.43 903.796C1165.43 905.626 1189.58 883.857 1189.58 890.991C1189.58 891.54 1190.12 891.54 1190.67 891.54H1190.86C1191.04 891.54 1191.22 891.54 1191.22 891.54C1191.22 891.54 1191.22 891.54 1191.22 891.723C1187.93 894.833 1188.11 899.955 1186.83 903.796C1188.48 897.394 1200.73 892.271 1205.86 889.345C1203.11 893.918 1207.32 894.467 1220.13 880.381C1220.31 880.198 1220.86 879.283 1220.86 878.552C1220.86 875.99 1212.62 882.027 1212.08 882.576C1210.25 884.04 1208.6 885.503 1207.14 887.332C1206.77 887.332 1206.22 887.149 1205.49 887.149C1203.84 887.149 1202.2 887.698 1200.55 887.698C1198.54 888.064 1209.33 853.124 1250.49 853.124Z" fill="url(#paint13_linear_8_4885)"/>
<path opacity="0.48" d="M1347.63 827.33C1347.45 827.33 1347.45 827.33 1347.63 827.33C1333.18 827.696 1304.64 841.233 1304.64 841.233C1304.64 841.233 1297.14 837.94 1290.19 837.94C1278.85 837.94 1270.98 843.977 1263.85 852.209C1262.38 853.855 1260.92 855.502 1259.64 857.331C1259.46 856.965 1259.27 856.782 1259.09 856.599C1259.09 856.782 1259.09 857.148 1259.09 857.331C1259.09 857.88 1259.09 858.246 1259.09 858.795C1259.09 858.795 1274.64 843.062 1290.55 843.062C1305.37 843.062 1295.49 845.258 1293.85 860.075C1304.46 840.501 1330.07 835.745 1351.29 830.074C1350.37 828.428 1349.28 827.33 1347.63 827.33Z" fill="url(#paint14_linear_8_4885)"/>
<path opacity="0.48" d="M1487.57 767.694C1488.49 764.768 1491.6 763.304 1494.89 763.304C1497.63 763.304 1501.29 765.133 1501.29 765.133C1501.29 761.841 1495.99 760.011 1492.69 760.011C1487.39 760.011 1482.63 763.853 1477.88 765.865C1480.8 762.389 1488.3 753.975 1493.43 753.975C1493.79 753.975 1494.16 754.34 1494.71 754.34C1494.71 754.34 1523.24 740.438 1565.87 732.754C1566.6 732.571 1568.06 732.389 1569.53 732.206C1563.85 732.754 1558.18 733.303 1552.7 734.218C1525.99 738.059 1499.83 745.194 1475.5 755.621C1464.16 760.377 1453.18 766.048 1442.57 772.085C1434.7 776.658 1420.98 782.695 1417.69 791.11C1415.86 795.866 1416.78 798.976 1419.52 800.988C1422.63 789.646 1433.79 774.646 1433.79 787.085C1433.79 788.915 1455.19 764.585 1455.19 772.817C1455.19 773.548 1455.38 773.914 1456.66 773.914C1458.12 773.914 1459.58 772.817 1461.23 772.817C1463.06 772.817 1463.79 774.097 1463.79 775.926C1463.79 776.109 1461.41 783.244 1461.41 790.378C1461.41 816.171 1463.97 788 1472.94 787.085C1472.57 785.988 1472.21 784.707 1472.21 783.609C1471.84 775.561 1483.73 779.585 1487.57 767.694Z" fill="url(#paint15_linear_8_4885)"/>
<path d="M1919.82 387.927C1914.33 391.037 1909.39 393.598 1906.1 393.598C1901.52 393.598 1903.17 385 1894.02 385C1873.72 385 1790.12 462.197 1790.12 475.551C1790.12 478.478 1795.61 479.576 1798.35 479.576C1803.11 479.576 1807.86 477.747 1812.8 477.747C1814.63 477.747 1819.94 478.113 1819.94 480.125C1819.94 489.637 1805.85 501.894 1805.85 506.467C1805.85 508.479 1812.25 510.126 1816.09 510.126C1824.51 510.126 1833.11 505.552 1841.89 505.552C1844.08 505.552 1843.9 507.748 1842.44 511.04C1823.23 522.199 1801.09 536.102 1801.09 561.896C1801.09 580.555 1816.09 596.287 1816.09 596.287C1816.09 607.629 1748.04 645.13 1748.04 662.508C1748.04 666.899 1751.52 671.289 1754.81 674.582C1736.7 691.229 1693.71 696.534 1693.71 723.608C1693.71 734.584 1697.19 736.23 1701.94 736.23C1706.88 736.23 1713.29 733.852 1717.49 731.108C1710.18 745.743 1695.72 753.06 1682.19 762.206C1679.26 764.219 1675.6 768.609 1675.6 770.804C1675.6 771.902 1676.15 773.182 1676.7 773.182V773.182C1804.57 762.755 1858.53 709.339 1832.74 709.339C1827.44 709.339 1821.95 710.62 1816.64 710.62C1812.07 710.62 1806.4 710.071 1806.4 705.497C1806.4 699.461 1842.44 650.618 1892.56 650.618C1904.63 650.618 1908.48 655.74 1908.48 659.947C1908.48 677.509 1878.11 697.997 1878.11 721.413C1878.11 726.535 1880.12 728.547 1881.4 728.547C1894.57 728.547 1907.56 725.803 1920 720.132V387.927H1919.82Z" fill="#121235"/>
</g>
<defs>
<linearGradient id="paint0_linear_8_4885" x1="702.714" y1="394.497" x2="550.393" y2="394.497" gradientUnits="userSpaceOnUse">
<stop offset="0.0125" stop-color="#86AADA"/>
<stop offset="0.2934" stop-color="#84A7D6"/>
<stop offset="0.4427" stop-color="#7E9ECB"/>
<stop offset="0.5611" stop-color="#7591BD"/>
<stop offset="0.6633" stop-color="#697FAC"/>
<stop offset="0.755" stop-color="#596B98"/>
<stop offset="0.8393" stop-color="#475582"/>
<stop offset="0.9178" stop-color="#333C6B"/>
<stop offset="0.9898" stop-color="#1E2255"/>
<stop offset="1" stop-color="#1B1D51"/>
</linearGradient>
<linearGradient id="paint1_linear_8_4885" x1="330.642" y1="170.207" x2="188.138" y2="170.207" gradientUnits="userSpaceOnUse">
<stop stop-color="#1B1D51"/>
<stop offset="1" stop-color="#86AADA"/>
</linearGradient>
<linearGradient id="paint2_linear_8_4885" x1="463.024" y1="365.678" x2="296.056" y2="365.678" gradientUnits="userSpaceOnUse">
<stop stop-color="#1B1D51"/>
<stop offset="0.1221" stop-color="#313A68"/>
<stop offset="0.2631" stop-color="#485683"/>
<stop offset="0.4068" stop-color="#5D709C"/>
<stop offset="0.5516" stop-color="#6D86B3"/>
<stop offset="0.6977" stop-color="#7A99C6"/>
<stop offset="0.846" stop-color="#82A5D3"/>
<stop offset="1" stop-color="#86AADA"/>
</linearGradient>
<linearGradient id="paint3_linear_8_4885" x1="1449.85" y1="273.516" x2="1324.03" y2="273.516" gradientUnits="userSpaceOnUse">
<stop offset="0.0125" stop-color="#86AADA"/>
<stop offset="0.2934" stop-color="#84A7D6"/>
<stop offset="0.4427" stop-color="#7E9ECB"/>
<stop offset="0.5611" stop-color="#7591BD"/>
<stop offset="0.6633" stop-color="#697FAC"/>
<stop offset="0.755" stop-color="#596B98"/>
<stop offset="0.8393" stop-color="#475582"/>
<stop offset="0.9178" stop-color="#333C6B"/>
<stop offset="0.9898" stop-color="#1E2255"/>
<stop offset="1" stop-color="#1B1D51"/>
</linearGradient>
<linearGradient id="paint4_linear_8_4885" x1="1427.1" y1="345.363" x2="1300.76" y2="345.363" gradientUnits="userSpaceOnUse">
<stop offset="0.0125" stop-color="#86AADA"/>
<stop offset="0.2934" stop-color="#84A7D6"/>
<stop offset="0.4427" stop-color="#7E9ECB"/>
<stop offset="0.5611" stop-color="#7591BD"/>
<stop offset="0.6633" stop-color="#697FAC"/>
<stop offset="0.755" stop-color="#596B98"/>
<stop offset="0.8393" stop-color="#475582"/>
<stop offset="0.9178" stop-color="#333C6B"/>
<stop offset="0.9898" stop-color="#1E2255"/>
<stop offset="1" stop-color="#1B1D51"/>
</linearGradient>
<linearGradient id="paint5_linear_8_4885" x1="1536.69" y1="288.114" x2="1439.61" y2="288.114" gradientUnits="userSpaceOnUse">
<stop offset="0.0125" stop-color="#86AADA"/>
<stop offset="0.2934" stop-color="#84A7D6"/>
<stop offset="0.4427" stop-color="#7E9ECB"/>
<stop offset="0.5611" stop-color="#7591BD"/>
<stop offset="0.6633" stop-color="#697FAC"/>
<stop offset="0.755" stop-color="#596B98"/>
<stop offset="0.8393" stop-color="#475582"/>
<stop offset="0.9178" stop-color="#333C6B"/>
<stop offset="0.9898" stop-color="#1E2255"/>
<stop offset="1" stop-color="#1B1D51"/>
</linearGradient>
<linearGradient id="paint6_linear_8_4885" x1="1606.03" y1="213.326" x2="1545.26" y2="213.326" gradientUnits="userSpaceOnUse">
<stop offset="0.0125" stop-color="#86AADA"/>
<stop offset="0.2934" stop-color="#84A7D6"/>
<stop offset="0.4427" stop-color="#7E9ECB"/>
<stop offset="0.5611" stop-color="#7591BD"/>
<stop offset="0.6633" stop-color="#697FAC"/>
<stop offset="0.755" stop-color="#596B98"/>
<stop offset="0.8393" stop-color="#475582"/>
<stop offset="0.9178" stop-color="#333C6B"/>
<stop offset="0.9898" stop-color="#1E2255"/>
<stop offset="1" stop-color="#1B1D51"/>
</linearGradient>
<linearGradient id="paint7_linear_8_4885" x1="1787.04" y1="103.79" x2="1594.74" y2="103.79" gradientUnits="userSpaceOnUse">
<stop offset="0.0125" stop-color="#86AADA"/>
<stop offset="0.2934" stop-color="#84A7D6"/>
<stop offset="0.4427" stop-color="#7E9ECB"/>
<stop offset="0.5611" stop-color="#7591BD"/>
<stop offset="0.6633" stop-color="#697FAC"/>
<stop offset="0.755" stop-color="#596B98"/>
<stop offset="0.8393" stop-color="#475582"/>
<stop offset="0.9178" stop-color="#333C6B"/>
<stop offset="0.9898" stop-color="#1E2255"/>
<stop offset="1" stop-color="#1B1D51"/>
</linearGradient>
<linearGradient id="paint8_linear_8_4885" x1="1371.56" y1="422.771" x2="1114.88" y2="422.771" gradientUnits="userSpaceOnUse">
<stop offset="0.0125" stop-color="#86AADA"/>
<stop offset="0.2934" stop-color="#84A7D6"/>
<stop offset="0.4427" stop-color="#7E9ECB"/>
<stop offset="0.5611" stop-color="#7591BD"/>
<stop offset="0.6633" stop-color="#697FAC"/>
<stop offset="0.755" stop-color="#596B98"/>
<stop offset="0.8393" stop-color="#475582"/>
<stop offset="0.9178" stop-color="#333C6B"/>
<stop offset="0.9898" stop-color="#1E2255"/>
<stop offset="1" stop-color="#1B1D51"/>
</linearGradient>
<linearGradient id="paint9_linear_8_4885" x1="566.632" y1="704.588" x2="417.253" y2="704.588" gradientUnits="userSpaceOnUse">
<stop stop-color="#1B1D51"/>
<stop offset="0.1064" stop-color="#293060"/>
<stop offset="0.332" stop-color="#475481"/>
<stop offset="0.542" stop-color="#6074A1"/>
<stop offset="0.7299" stop-color="#738FBC"/>
<stop offset="0.8889" stop-color="#80A2CF"/>
<stop offset="1" stop-color="#86AADA"/>
</linearGradient>
<linearGradient id="paint10_linear_8_4885" x1="388.61" y1="652.966" x2="320.505" y2="652.966" gradientUnits="userSpaceOnUse">
<stop stop-color="#1B1D51"/>
<stop offset="1" stop-color="#86AADA"/>
</linearGradient>
<linearGradient id="paint11_linear_8_4885" x1="284.649" y1="622.407" x2="245.801" y2="622.407" gradientUnits="userSpaceOnUse">
<stop stop-color="#1B1D51"/>
<stop offset="1" stop-color="#86AADA"/>
</linearGradient>
<linearGradient id="paint12_linear_8_4885" x1="231.78" y1="583.254" x2="124.342" y2="583.254" gradientUnits="userSpaceOnUse">
<stop stop-color="#1B1D51"/>
<stop offset="1" stop-color="#86AADA"/>
</linearGradient>
<linearGradient id="paint13_linear_8_4885" x1="1255.01" y1="883.004" x2="1125.69" y2="883.004" gradientUnits="userSpaceOnUse">
<stop offset="0.0125" stop-color="#86AADA"/>
<stop offset="0.2934" stop-color="#84A7D6"/>
<stop offset="0.4427" stop-color="#7E9ECB"/>
<stop offset="0.5611" stop-color="#7591BD"/>
<stop offset="0.6633" stop-color="#697FAC"/>
<stop offset="0.755" stop-color="#596B98"/>
<stop offset="0.8393" stop-color="#475582"/>
<stop offset="0.9178" stop-color="#333C6B"/>
<stop offset="0.9898" stop-color="#1E2255"/>
<stop offset="1" stop-color="#1B1D51"/>
</linearGradient>
<linearGradient id="paint14_linear_8_4885" x1="1351.11" y1="843.609" x2="1258.87" y2="843.609" gradientUnits="userSpaceOnUse">
<stop offset="0.0125" stop-color="#86AADA"/>
<stop offset="0.2934" stop-color="#84A7D6"/>
<stop offset="0.4427" stop-color="#7E9ECB"/>
<stop offset="0.5611" stop-color="#7591BD"/>
<stop offset="0.6633" stop-color="#697FAC"/>
<stop offset="0.755" stop-color="#596B98"/>
<stop offset="0.8393" stop-color="#475582"/>
<stop offset="0.9178" stop-color="#333C6B"/>
<stop offset="0.9898" stop-color="#1E2255"/>
<stop offset="1" stop-color="#1B1D51"/>
</linearGradient>
<linearGradient id="paint15_linear_8_4885" x1="1569.37" y1="766.847" x2="1416.41" y2="766.847" gradientUnits="userSpaceOnUse">
<stop offset="0.0125" stop-color="#86AADA"/>
<stop offset="0.2934" stop-color="#84A7D6"/>
<stop offset="0.4427" stop-color="#7E9ECB"/>
<stop offset="0.5611" stop-color="#7591BD"/>
<stop offset="0.6633" stop-color="#697FAC"/>
<stop offset="0.755" stop-color="#596B98"/>
<stop offset="0.8393" stop-color="#475582"/>
<stop offset="0.9178" stop-color="#333C6B"/>
<stop offset="0.9898" stop-color="#1E2255"/>
<stop offset="1" stop-color="#1B1D51"/>
</linearGradient>
</defs>
</svg>
