<svg xmlns="http://www.w3.org/2000/svg" width="41.713" height="30" viewBox="0 0 41.713 30">
  <path id="discord-icon" d="M195.384,539.184s-1.285-1.537-2.358-2.893a11.274,11.274,0,0,0,6.465-4.25,20.394,20.394,0,0,1-4.107,2.106,23.54,23.54,0,0,1-5.18,1.537,25.037,25.037,0,0,1-9.249-.034,29.893,29.893,0,0,1-5.251-1.537A21.091,21.091,0,0,1,173.1,532.9c-.106-.072-.215-.106-.321-.177a.514.514,0,0,1-.143-.106c-.644-.358-1-.607-1-.607a11.118,11.118,0,0,0,6.25,4.215c-1.07,1.356-2.392,2.965-2.392,2.965-7.893-.249-10.892-5.429-10.892-5.429a47.826,47.826,0,0,1,5.143-20.822,17.65,17.65,0,0,1,10.036-3.749l.358.429c-6.427,1.857-9.392,4.679-9.392,4.679s.787-.429,2.106-1.036a26.721,26.721,0,0,1,8.107-2.249,3.374,3.374,0,0,1,.607-.072,30.271,30.271,0,0,1,7.214-.072,29.089,29.089,0,0,1,10.749,3.428s-2.822-2.679-8.894-4.536l.5-.572a17.65,17.65,0,0,1,10.036,3.749,47.826,47.826,0,0,1,5.143,20.822c0-.006-3.036,5.174-10.929,5.423Zm-16.61-16.678a3.978,3.978,0,1,0,3.643,3.964,3.806,3.806,0,0,0-3.643-3.964m13.038,0a3.978,3.978,0,1,0,3.643,3.964,3.806,3.806,0,0,0-3.643-3.964" transform="translate(-164.6 -509.189)" fill="#fff"/>
</svg>
