<svg xmlns="http://www.w3.org/2000/svg" width="395.45" height="175" viewBox="0 0 395.45 175">
  <g id="mmc-tt_white" transform="translate(-100 -936.2)">
    <path id="Path_2205" data-name="Path 2205" d="M113.63,1231.385l3.994,3.994,9.649,9.636,9.636-9.636,3.994-3.994v26.166h13.643V1212.1H140.9l-13.63,13.63L113.63,1212.1H100v45.45h13.63Z" transform="translate(0 -239.532)" fill="#fff"/>
    <path id="Path_2206" data-name="Path 2206" d="M140.9,1662.385v26.166h13.643V1643.1H140.9l-13.63,13.643L113.63,1643.1H100v45.451h13.63v-26.166l3.994,3.994,9.649,9.636,9.636-9.636Z" transform="translate(0 -613.719)" fill="#fff"/>
    <path id="Path_2207" data-name="Path 2207" d="M1465.258,1688.551h13.63v-31.807h20.458V1643.1H1444.8v13.643h20.458Z" transform="translate(-1167.533 -613.719)" fill="#fff"/>
    <path id="Path_2208" data-name="Path 2208" d="M1938.55,1257.55v-13.643h-31.807v-2.267h31.807v-13.63h-31.807v-2.28h31.807V1212.1H1893.1v45.45h45.45Z" transform="translate(-1556.739 -239.532)" fill="#fff"/>
    <path id="Path_2209" data-name="Path 2209" d="M1938.55,1688.551v-13.63h-31.807v-2.281h31.807v-13.63h-31.807v-2.267h31.807V1643.1H1893.1v45.451h45.45Z" transform="translate(-1556.739 -613.719)" fill="#fff"/>
    <path id="Path_2210" data-name="Path 2210" d="M582.388,1688.551v-24.993l20.458-20.458H583.561l-7.988,7.988-7.988-7.988H548.3l20.445,20.458v24.993Z" transform="translate(-389.207 -613.719)" fill="#fff"/>
    <path id="Path_2211" data-name="Path 2211" d="M2721.461,1643.1l-7.988,7.988-7.988-7.988H2686.2l20.458,20.458v24.993h13.63v-24.993l20.458-20.458Z" transform="translate(-2245.296 -613.719)" fill="#fff"/>
    <path id="Path_2212" data-name="Path 2212" d="M548.3,1218.915h6.815v18.177a20.458,20.458,0,1,0,40.916,0v-18.177h6.815V1212.1H548.3Zm37.528,7.948a2.267,2.267,0,1,1-2.267,2.267A2.267,2.267,0,0,1,585.828,1226.864Zm0,6.828a2.267,2.267,0,1,1-2.267,2.267A2.267,2.267,0,0,1,585.828,1233.692Zm0,6.815a2.267,2.267,0,1,1-2.267,2.267A2.267,2.267,0,0,1,585.828,1240.507ZM579,1226.864a2.267,2.267,0,1,1-2.267,2.267A2.267,2.267,0,0,1,579,1226.864Zm0,6.828a2.267,2.267,0,1,1-2.267,2.267A2.267,2.267,0,0,1,579,1233.692Zm0,6.815a2.267,2.267,0,1,1-2.267,2.267A2.267,2.267,0,0,1,579,1240.507Zm0,6.815a2.267,2.267,0,1,1-2.267,2.267A2.267,2.267,0,0,1,579,1247.322Zm-6.828-20.458a2.267,2.267,0,1,1-2.267,2.267A2.267,2.267,0,0,1,572.172,1226.864Zm0,6.828a2.267,2.267,0,1,1-2.267,2.267A2.267,2.267,0,0,1,572.172,1233.692Zm0,6.815a2.267,2.267,0,1,1-2.267,2.267A2.267,2.267,0,0,1,572.172,1240.507Zm0,6.815a2.267,2.267,0,1,1-2.267,2.267A2.267,2.267,0,0,1,572.172,1247.322Zm-6.828-20.458a2.267,2.267,0,1,1-2.267,2.267A2.267,2.267,0,0,1,565.344,1226.864Zm0,6.828a2.267,2.267,0,1,1-2.267,2.267A2.267,2.267,0,0,1,565.344,1233.692Zm0,6.815a2.267,2.267,0,1,1-2.267,2.267A2.267,2.267,0,0,1,565.344,1240.507Z" transform="translate(-389.207 -239.532)" fill="#fff"/>
    <path id="Path_2213" data-name="Path 2213" d="M1943.958,2068.882l-6.907-11.982H1927.6l15.765,27.273h1.2l15.765-27.273h-9.451Z" transform="translate(-1586.692 -972.973)" fill="#fff"/>
    <path id="Path_2214" data-name="Path 2214" d="M1560.572,2056.9H1548.3v8.186h12.272v19.087h8.173v-19.087h12.285V2056.9h-20.458Z" transform="translate(-1257.39 -972.973)" fill="#fff"/>
    <path id="Path_2215" data-name="Path 2215" d="M1065.5,2056.9v27.273h27.273v-8.186h-19.087v-1.358h19.087v-8.186h-19.087v-1.358h19.087V2056.9H1065.5Z" transform="translate(-838.231 -972.973)" fill="#fff"/>
    <path id="Path_2216" data-name="Path 2216" d="M2210.3,2056.9v27.273h27.273v-8.186h-19.087v-1.358h19.087v-8.186h-19.087v-1.358h19.087V2056.9H2210.3Z" transform="translate(-1832.127 -972.973)" fill="#fff"/>
    <path id="Path_2217" data-name="Path 2217" d="M632.286,2056.9H624.1v27.273h24.544v-8.186H632.286Z" transform="translate(-455.015 -972.973)" fill="#fff"/>
    <path id="Path_2218" data-name="Path 2218" d="M852.986,2056.9H844.8v27.273h24.544v-8.186H852.986Z" transform="translate(-646.623 -972.973)" fill="#fff"/>
    <rect id="Rectangle_13" data-name="Rectangle 13" width="8.186" height="27.273" transform="translate(328.175 1083.927)" fill="#fff"/>
    <path id="Path_2219" data-name="Path 2219" d="M100,2070.356a13.631,13.631,0,0,0,13.63,13.63h13.63V2075.8H113.63a5.457,5.457,0,1,1,0-10.914h13.63V2056.7H113.63A13.67,13.67,0,0,0,100,2070.356Z" transform="translate(0 -972.799)" fill="#fff"/>
    <path id="Path_2220" data-name="Path 2220" d="M1306.9,2070.356a13.631,13.631,0,0,0,13.63,13.63h13.63V2075.8h-13.63a5.457,5.457,0,1,1,0-10.914h13.63V2056.7h-13.63A13.67,13.67,0,0,0,1306.9,2070.356Z" transform="translate(-1047.81 -972.799)" fill="#fff"/>
    <path id="Path_2221" data-name="Path 2221" d="M112.272,963.473h8.186V944.386H132.73V936.2H100v8.186h12.272Z" transform="translate(0 0)" fill="#fff"/>
    <path id="Path_2222" data-name="Path 2222" d="M390.973,953.929h10.914v9.544h8.186V936.2h-8.186v9.544H390.973V936.2H382.8v27.273h8.173Z" transform="translate(-245.522 0)" fill="#fff"/>
    <path id="Path_2223" data-name="Path 2223" d="M651.373,963.473v-8.186H632.286v-1.358h19.087v-8.186H632.286v-1.358h19.087V936.2H624.1v27.273h27.273Z" transform="translate(-455.015 0)" fill="#fff"/>
    <path id="Path_2224" data-name="Path 2224" d="M1010.23,1241.553h5.721l15.91,15.91h19.285l-15.91-15.91h1.134a14.777,14.777,0,0,0,0-29.553H996.6v45.45h13.63Zm9.1-18.178a4.548,4.548,0,1,0,9.1,0h4.548a9.1,9.1,0,1,1-18.191,0Z" transform="translate(-778.413 -239.445)" fill="#fff"/>
    <path id="Path_2225" data-name="Path 2225" d="M1456.439,1233.454c-.725-4.086,1.714-7.659,12.035-9.886,5.26-1.134,9.333-1.028,11.864.185a53.776,53.776,0,0,0,7.764-8.529,22.534,22.534,0,0,0-9.873-3.058v-.066H1444.8v31.781a136.815,136.815,0,0,0,13.564-5.694A16.91,16.91,0,0,1,1456.439,1233.454Z" transform="translate(-1167.533 -239.532)" fill="#fff"/>
    <path id="Path_2226" data-name="Path 2226" d="M1478.229,1286.461v-.066a22.716,22.716,0,0,0,11.811-40.995,53.469,53.469,0,0,1-7.8,8.726,4.563,4.563,0,0,1,.791,1.45c1.358,4.284-2.6,18.995-11.4,20.142-5.194.685-9.359-2.887-12.022-6.67a141.733,141.733,0,0,1-14.8,6.156v11.257h33.429Z" transform="translate(-1167.533 -268.442)" fill="#fff"/>
    <path id="Path_2227" data-name="Path 2227" d="M2286.13,1241.553l4.824-4.824,1.608,1.608,1.608,1.608-1.964,1.964,15.554,15.554h19.285l-15.91-15.91h1.134a14.777,14.777,0,1,0,0-29.553H2272.5v45.45h13.63Zm13.248-18.085a5.686,5.686,0,0,1,8.041,8.041,5.582,5.582,0,0,1-3.216,1.595l-6.419-6.419A5.583,5.583,0,0,1,2299.378,1223.468Zm-8.436,10.044,4.824-4.824a1.13,1.13,0,0,1,1.608,0l4.824,4.824a1.13,1.13,0,0,1,0,1.608l-4.824,4.825a1.13,1.13,0,0,1-1.608,0l-4.824-4.825A1.154,1.154,0,0,1,2290.941,1233.512Z" transform="translate(-1886.128 -239.445)" fill="#fff"/>
    <path id="Path_2228" data-name="Path 2228" d="M2326.946,1657.877a14.779,14.779,0,0,0-14.777-14.777H2272.4v13.089h20.55a6.8,6.8,0,0,1,6.709-5.681h13.63v2.267H2301.36a1.7,1.7,0,0,0,0,3.4h11.929v2.267H2301.36a1.7,1.7,0,0,0,0,3.4h11.929v2.267h-13.63a6.8,6.8,0,0,1-6.709-5.681H2272.4v30.094h13.63v-15.91h5.721l15.91,15.91h19.285l-15.91-15.91h1.134A14.728,14.728,0,0,0,2326.946,1657.877Z" transform="translate(-1886.041 -613.719)" fill="#fff"/>
    <path id="Path_2229" data-name="Path 2229" d="M1051.115,1673.584a14.776,14.776,0,0,0-14.763-14.487h-23.859a1.134,1.134,0,0,1,0-2.267h38.635V1643.2h-39.479a15.012,15.012,0,0,0-15.067,15.067,14.776,14.776,0,0,0,14.763,14.487h23.859a1.134,1.134,0,0,1,1.134,1.134v1.134l-4.548,13.63h4.258A15.02,15.02,0,0,0,1051.115,1673.584Z" transform="translate(-778.396 -613.805)" fill="#fff"/>
    <path id="Path_2230" data-name="Path 2230" d="M1203.9,1884.5h-4.548l-4.548,13.63h4.548Z" transform="translate(-950.487 -823.298)" fill="#fff"/>
    <path id="Path_2231" data-name="Path 2231" d="M1066,1884.5h-4.548l-4.548,13.63h4.548Z" transform="translate(-830.765 -823.298)" fill="#fff"/>
    <path id="Path_2232" data-name="Path 2232" d="M859.1,1884.5H850v13.63h4.548Z" transform="translate(-651.137 -823.298)" fill="#fff"/>
    <path id="Path_2233" data-name="Path 2233" d="M1125.9,1898.13h4.535l4.548-13.63h-4.548Z" transform="translate(-890.669 -823.298)" fill="#fff"/>
    <path id="Path_2234" data-name="Path 2234" d="M992.448,1898.13,997,1884.5h-4.548l-4.548,13.63Z" transform="translate(-770.86 -823.298)" fill="#fff"/>
    <path id="Path_2235" data-name="Path 2235" d="M919,1898.13h4.534l4.548-13.63h-4.548Z" transform="translate(-711.042 -823.298)" fill="#fff"/>
    <path id="Path_2236" data-name="Path 2236" d="M360.487,2056.9H355.03a13.63,13.63,0,0,0,0,27.26h5.457a13.63,13.63,0,0,0,0-27.26Zm-1.041,13.762.606,6.129H355.5l.606-6.1a3.418,3.418,0,1,1,3.335-.026Z" transform="translate(-209.579 -972.973)" fill="#fff"/>
  </g>
</svg>
