<svg height="175" viewBox="0 0 395.45 175" width="395.45" xmlns="http://www.w3.org/2000/svg"><g fill="#fff" transform="translate(-100 -936.2)"><path d="m113.63 1231.385 3.994 3.994 9.649 9.636 9.636-9.636 3.994-3.994v26.166h13.643v-45.451h-13.646l-13.63 13.63-13.64-13.63h-13.63v45.45h13.63z" transform="translate(0 -239.532)"/><path d="m140.9 1662.385v26.166h13.643v-45.451h-13.643l-13.63 13.643-13.64-13.643h-13.63v45.451h13.63v-26.166l3.994 3.994 9.649 9.636 9.636-9.636z" transform="translate(0 -613.719)"/><path d="m1465.258 1688.551h13.63v-31.807h20.458v-13.644h-54.546v13.643h20.458z" transform="translate(-1167.533 -613.719)"/><path d="m1938.55 1257.55v-13.643h-31.807v-2.267h31.807v-13.63h-31.807v-2.28h31.807v-13.63h-45.45v45.45z" transform="translate(-1556.739 -239.532)"/><path d="m1938.55 1688.551v-13.63h-31.807v-2.281h31.807v-13.63h-31.807v-2.267h31.807v-13.643h-45.45v45.451z" transform="translate(-1556.739 -613.719)"/><path d="m582.388 1688.551v-24.993l20.458-20.458h-19.285l-7.988 7.988-7.988-7.988h-19.285l20.445 20.458v24.993z" transform="translate(-389.207 -613.719)"/><path d="m2721.461 1643.1-7.988 7.988-7.988-7.988h-19.285l20.458 20.458v24.993h13.63v-24.993l20.458-20.458z" transform="translate(-2245.296 -613.719)"/><path d="m548.3 1218.915h6.815v18.177a20.458 20.458 0 1 0 40.916 0v-18.177h6.815v-6.815h-54.546zm37.528 7.948a2.267 2.267 0 1 1 -2.267 2.267 2.267 2.267 0 0 1 2.267-2.266zm0 6.828a2.267 2.267 0 1 1 -2.267 2.267 2.267 2.267 0 0 1 2.267-2.266zm0 6.815a2.267 2.267 0 1 1 -2.267 2.267 2.267 2.267 0 0 1 2.267-2.266zm-6.828-13.642a2.267 2.267 0 1 1 -2.267 2.267 2.267 2.267 0 0 1 2.267-2.267zm0 6.828a2.267 2.267 0 1 1 -2.267 2.267 2.267 2.267 0 0 1 2.267-2.267zm0 6.815a2.267 2.267 0 1 1 -2.267 2.267 2.267 2.267 0 0 1 2.267-2.267zm0 6.815a2.267 2.267 0 1 1 -2.267 2.267 2.267 2.267 0 0 1 2.267-2.267zm-6.828-20.458a2.267 2.267 0 1 1 -2.267 2.267 2.267 2.267 0 0 1 2.267-2.267zm0 6.828a2.267 2.267 0 1 1 -2.267 2.267 2.267 2.267 0 0 1 2.267-2.267zm0 6.815a2.267 2.267 0 1 1 -2.267 2.267 2.267 2.267 0 0 1 2.267-2.267zm0 6.815a2.267 2.267 0 1 1 -2.267 2.267 2.267 2.267 0 0 1 2.267-2.267zm-6.828-20.458a2.267 2.267 0 1 1 -2.267 2.267 2.267 2.267 0 0 1 2.267-2.267zm0 6.828a2.267 2.267 0 1 1 -2.267 2.267 2.267 2.267 0 0 1 2.267-2.267zm0 6.815a2.267 2.267 0 1 1 -2.267 2.267 2.267 2.267 0 0 1 2.267-2.267z" transform="translate(-389.207 -239.532)"/><path d="m1943.958 2068.882-6.907-11.982h-9.451l15.765 27.273h1.2l15.765-27.273h-9.451z" transform="translate(-1586.692 -972.973)"/><path d="m1560.572 2056.9h-12.272v8.186h12.272v19.087h8.173v-19.087h12.285v-8.186z" transform="translate(-1257.39 -972.973)"/><path d="m1065.5 2056.9v27.273h27.273v-8.186h-19.087v-1.358h19.087v-8.186h-19.087v-1.358h19.087v-8.185z" transform="translate(-838.231 -972.973)"/><path d="m2210.3 2056.9v27.273h27.273v-8.186h-19.087v-1.358h19.087v-8.186h-19.087v-1.358h19.087v-8.185z" transform="translate(-1832.127 -972.973)"/><path d="m632.286 2056.9h-8.186v27.273h24.544v-8.186h-16.358z" transform="translate(-455.015 -972.973)"/><path d="m852.986 2056.9h-8.186v27.273h24.544v-8.186h-16.358z" transform="translate(-646.623 -972.973)"/><path d="m328.175 1083.927h8.186v27.273h-8.186z"/><path d="m100 2070.356a13.631 13.631 0 0 0 13.63 13.63h13.63v-8.186h-13.63a5.457 5.457 0 1 1 0-10.914h13.63v-8.186h-13.63a13.67 13.67 0 0 0 -13.63 13.656z" transform="translate(0 -972.799)"/><path d="m1306.9 2070.356a13.631 13.631 0 0 0 13.63 13.63h13.63v-8.186h-13.63a5.457 5.457 0 1 1 0-10.914h13.63v-8.186h-13.63a13.67 13.67 0 0 0 -13.63 13.656z" transform="translate(-1047.81 -972.799)"/><path d="m112.272 963.473h8.186v-19.087h12.272v-8.186h-32.73v8.186h12.272z"/><path d="m390.973 953.929h10.914v9.544h8.186v-27.273h-8.186v9.544h-10.914v-9.544h-8.173v27.273h8.173z" transform="translate(-245.522)"/><path d="m651.373 963.473v-8.186h-19.087v-1.358h19.087v-8.186h-19.087v-1.358h19.087v-8.185h-27.273v27.273z" transform="translate(-455.015)"/><path d="m1010.23 1241.553h5.721l15.91 15.91h19.285l-15.91-15.91h1.134a14.777 14.777 0 0 0 0-29.553h-39.77v45.45h13.63zm9.1-18.178a4.548 4.548 0 1 0 9.1 0h4.548a9.1 9.1 0 1 1 -18.191 0z" transform="translate(-778.413 -239.445)"/><path d="m1456.439 1233.454c-.725-4.086 1.714-7.659 12.035-9.886 5.26-1.134 9.333-1.028 11.864.185a53.776 53.776 0 0 0 7.764-8.529 22.534 22.534 0 0 0 -9.873-3.058v-.066h-33.429v31.781a136.815 136.815 0 0 0 13.564-5.694 16.91 16.91 0 0 1 -1.925-4.733z" transform="translate(-1167.533 -239.532)"/><path d="m1478.229 1286.461v-.066a22.716 22.716 0 0 0 11.811-40.995 53.469 53.469 0 0 1 -7.8 8.726 4.563 4.563 0 0 1 .791 1.45c1.358 4.284-2.6 18.995-11.4 20.142-5.194.685-9.359-2.887-12.022-6.67a141.733 141.733 0 0 1 -14.8 6.156v11.257h33.429z" transform="translate(-1167.533 -268.442)"/><path d="m2286.13 1241.553 4.824-4.824 1.608 1.608 1.608 1.608-1.964 1.964 15.554 15.554h19.285l-15.91-15.91h1.134a14.777 14.777 0 1 0 0-29.553h-39.769v45.45h13.63zm13.248-18.085a5.686 5.686 0 0 1 8.041 8.041 5.582 5.582 0 0 1 -3.216 1.595l-6.419-6.419a5.583 5.583 0 0 1 1.594-3.217zm-8.436 10.044 4.824-4.824a1.13 1.13 0 0 1 1.608 0l4.824 4.824a1.13 1.13 0 0 1 0 1.608l-4.824 4.825a1.13 1.13 0 0 1 -1.608 0l-4.824-4.825a1.154 1.154 0 0 1 -.001-1.608z" transform="translate(-1886.128 -239.445)"/><path d="m2326.946 1657.877a14.779 14.779 0 0 0 -14.777-14.777h-39.769v13.089h20.55a6.8 6.8 0 0 1 6.709-5.681h13.63v2.267h-11.929a1.7 1.7 0 0 0 0 3.4h11.929v2.267h-11.929a1.7 1.7 0 0 0 0 3.4h11.929v2.267h-13.63a6.8 6.8 0 0 1 -6.709-5.681h-20.55v30.094h13.63v-15.91h5.721l15.91 15.91h19.285l-15.91-15.91h1.134a14.728 14.728 0 0 0 14.776-14.735z" transform="translate(-1886.041 -613.719)"/><path d="m1051.115 1673.584a14.776 14.776 0 0 0 -14.763-14.487h-23.859a1.134 1.134 0 0 1 0-2.267h38.635v-13.63h-39.479a15.012 15.012 0 0 0 -15.067 15.067 14.776 14.776 0 0 0 14.763 14.487h23.859a1.134 1.134 0 0 1 1.134 1.134v1.134l-4.548 13.63h4.258a15.02 15.02 0 0 0 15.067-15.068z" transform="translate(-778.396 -613.805)"/><path d="m1203.9 1884.5h-4.548l-4.548 13.63h4.548z" transform="translate(-950.487 -823.298)"/><path d="m1066 1884.5h-4.548l-4.548 13.63h4.548z" transform="translate(-830.765 -823.298)"/><path d="m859.1 1884.5h-9.1v13.63h4.548z" transform="translate(-651.137 -823.298)"/><path d="m1125.9 1898.13h4.535l4.548-13.63h-4.548z" transform="translate(-890.669 -823.298)"/><path d="m992.448 1898.13 4.552-13.63h-4.548l-4.548 13.63z" transform="translate(-770.86 -823.298)"/><path d="m919 1898.13h4.534l4.548-13.63h-4.548z" transform="translate(-711.042 -823.298)"/><path d="m360.487 2056.9h-5.457a13.63 13.63 0 0 0 0 27.26h5.457a13.63 13.63 0 0 0 0-27.26zm-1.041 13.762.606 6.129h-4.552l.606-6.1a3.418 3.418 0 1 1 3.335-.026z" transform="translate(-209.579 -972.973)"/></g></svg>