<svg enable-background="new 0 0 2700 2000" viewBox="0 0 2700 2000" xmlns="http://www.w3.org/2000/svg"><path d="m2657.3 1146.7s17.7-32.6-19.3-11.5c0 0-11.9-45.4-49.8-11 0 0-5.8-4.1-14.7-6.8l-1.2-202.8 63.9-129.6-41.4 15 46.7-69.6 15.9-239.6-38.2-151.5-35.2-77.9-28.4 38.1-20.3-74.1-34-12.9-33.5 39.4-11.3-18.2-23.9 6.4 21-19.4-32.4-69.3-36.6 60.9-52.2-142.5-68.1 48.6-63.3 211.6 22.2 142 23.5 28-26.5-7.9 46.2 224-74-44.1-4.3-105.7 7.1-32.1-14.3-42.1-4.6-45.1-15.5 43.1 4.8 36.6-9.5 34.6-1.2 88.3-17.9-10.7-.6-15.1 6.4-29.2-13.1-38.4-4.2-41-14.1 39.2 4.4 33.3-8.7 31.5v1.8l-48.5-28.9 37.3-94.3-41.2-24.5 31.2-251.9-55.2-48.7-54.3-67.8-97.5 99.6 11.2 56.3-31.2-8.8 5.3 44.6-221.6 120.9 3.9 166.6-91.1 6.6c0-74.1 0-135.1 0-168.9 0-148.9-145.4-253.7-210-258.1-64.5-4.4-92.4 23.4-68.7 38.8.4.2.8.5 1.2.7.1.1.3.1.4.2.3.1.6.3.9.4.2.1.3.2.5.2.3.1.6.3.9.4.2.1.4.1.5.2.3.1.6.2.9.4.2.1.3.1.5.2.4.1.8.3 1.2.4.1 0 .2.1.4.1.5.2 1 .3 1.6.4.1 0 .3.1.4.1.4.1.8.2 1.2.3.2 0 .4.1.6.1.4.1.7.2 1.1.2.2 0 .5.1.7.1.4.1.8.1 1.1.2.2 0 .5.1.7.1.4.1.9.1 1.3.2.2 0 .4.1.6.1.6.1 1.3.2 1.9.2h.3c.6.1 1.1.1 1.7.2.2 0 .5 0 .7.1.4 0 .9.1 1.3.1.3 0 .5 0 .8.1.4 0 .9.1 1.3.1h.8c.5 0 .9 0 1.4.1h.7 1.8.3 2.2.7 1.6.8 1.5.9c.5 0 1 0 1.5-.1h.8c.6 0 1.1 0 1.7-.1h.6c.8 0 1.6-.1 2.3-.1h.5c.6 0 1.2-.1 1.8-.1.3 0 .6 0 .9-.1.5 0 1-.1 1.5-.1.3 0 .6 0 .9-.1.5 0 1-.1 1.5-.1.3 0 .6-.1.9-.1.5 0 1.1-.1 1.6-.2.3 0 .5 0 .8-.1.8-.1 1.6-.2 2.3-.2h.1c.8-.1 1.6-.2 2.4-.3.3 0 .5-.1.8-.1.5-.1 1.1-.1 1.6-.2.3 0 .6-.1.9-.1.5-.1 1-.1 1.5-.2.3 0 .6-.1.9-.1.5-.1 1-.1 1.5-.2.3 0 .6-.1.9-.1.6-.1 1.2-.2 1.8-.2.2 0 .4-.1.6-.1.8-.1 1.6-.2 2.3-.3.2 0 .4-.1.6-.1.6-.1 1.1-.2 1.7-.3.3 0 .6-.1.8-.1.5-.1 1-.2 1.5-.2.3 0 .6-.1.9-.1.5-.1 1-.2 1.4-.2.3 0 .6-.1.9-.1.5-.1 1-.2 1.5-.2.2 0 .5-.1.7-.1.7-.1 1.5-.2 2.2-.4h.3c.6-.1 1.3-.2 1.9-.3.3 0 .5-.1.8-.1.5-.1.9-.2 1.4-.2.3 0 .6-.1.8-.1.4-.1.9-.2 1.3-.2.3 0 .5-.1.8-.1.5-.1.9-.2 1.3-.2.2 0 .5-.1.7-.1.5-.1 1.1-.2 1.6-.3.1 0 .3 0 .4-.1.6-.1 1.3-.2 1.9-.4.2 0 .4-.1.6-.1.4-.1.8-.2 1.2-.2.2 0 .5-.1.7-.1.4-.1.7-.1 1.1-.2.2 0 .5-.1.7-.1.4-.1.7-.1 1.1-.2.2 0 .4-.1.7-.1.4-.1.7-.2 1.1-.2.2 0 .4-.1.6-.1.5-.1 1.1-.2 1.6-.3.1 0 .3-.1.4-.1.4-.1.8-.2 1.1-.2.2 0 .4-.1.6-.1.3-.1.5-.1.8-.2.2 0 .4-.1.6-.1.3-.1.5-.1.8-.2.2 0 .4-.1.6-.1.3-.1.5-.1.8-.2.2 0 .3-.1.5-.1.3-.1.6-.1.9-.2 4.2-.9 6.6-1.5 6.6-1.5 113.7 51.5 150.6 165.6 150.6 225.6 0 36.5-.2 119.6-.3 169.8l-8.1.6c-15.4-72.4-30.9-117.6-43.7-145.6l5.3-7.4-8.5-6.6.5-23.5 9.6-10.2-12.9-12.4-6.2-2.6-1.4-.4-24.8 1.5-13.1 7.1 11.9 108.2 20.9 10.6h13.9l.5-21.3 7.3-10.3-6.9-6.2.5-21.3.4-.6c11.3 26.4 25.5 69.8 41.5 141.4l-128.4 9.4-6.2-147.2-2.5-25.8-18.4-22.9 1.3 24.2-4.8 17.2-1.5 156.1-7.5.5 1.6-162.2-14.1-24.7.4-36.6-10.1 36.1 4 27.3-5.7 161.7-12.4.9v-76.7-124.1l-12.4-39.2 3.5-37-17.2 34.4.4 26-10.6 77.5-5.3 142.3-185.9 13.6-6.8-167 8.3-37.6-16.8-49.3-5.4-52.7-18.2 50.4 5.6 42.8-11.2 40.5-2.3 176.3-10.8.8 1.9-195.8-27.2-41.2-5.6-105.1-22.9 116.9 14.4 33.1-14.8 31.7-6.6 164.9-129.3 9.4 33-146.2-91.4-208.5-83.7-78.7-3.9 112.8-61 52.5 32.8 135.5-34.8-29.3-13.5 89.5 64.6 115.1-58.8-25.5 19.4 125.8 6.1 9-12.8.4v17.3l20 24.4-188.5 7.7 42.3-155.8-45.6 10.6 52.2-115-39.6-333-134.7-100.2-70.1 254.6-34.9-119.9-29.1 60.1 17.2-136.7-67.5-146.7-118.9 283.4 51.5 390.6-29.1-19.8 64.2 216 29.3 14.3-.4 174.4c-4.3 3.5-7.5 8-7.5 8-53.5-20.4-76 33.4-76 33.4-59.6-22.1-85.8 16.4-85.8 16.4v29.7 46.6 8.2h961.4 273.9 814.7 489.4 160.6v-8.2-46.6-62.8c0 .1-7.8-16.2-42.7 1.4zm-2384.6-18.3s-6.4-5.3-9.6 6c-5.4 2.1-9.9 4.3-13 6-.9-.1-1.6.2-2 1.1-.5.3-.9.5-1.2.7-.5-.4-1.1-.9-1.8-1.4-5.2-38.4-54.9-13.4-54.9-13.4-2-5.4-4.5-8.5-7.1-10l-2.2-165.9 12.5 6.1 24.9-62.7 8.5 6 49.4 218.9c-1.5 1.4-2.7 4.1-3.5 8.6zm-38.3-274.4 55.9-141 3.8 101.9 21.9 35.8zm57.2-144.3 17.3-43.5 20.6 90.2zm2064.3 59.8 22-151.4 10.3 147-19.4-28.8 5.8 44.3zm59.2 372.1c-12.2-.9-22.6 2.7-20.2 18.2 0 0-8.5-7.1-16.4-8.8l31.6-161.7 5.5 27.5.3-1zm44.6-367.8 5.3 60.7-11.7-7zm36.6 356.2c-12.3-3.6-29.9-2.1-48.6 20.2 0 0-9.7-4.2-20.9-6.8l-1.5-156.1 14-41.9 9.5-80 18-10.4 8.4 95.4 19.4 33.8 1.7-.5zm68.4-14.4c-14.5-1.9-33.6 1.6-50.9 24.1 0 0-3.2-3.2-8.8-6.2l-2.1-151.7 17.6-5.2 19.5-106.1 25.9 66.7z"/></svg>