<?xml version="1.0" encoding="utf-8"?>
<!-- Generator: Adobe Illustrator 26.4.1, SVG Export Plug-In . SVG Version: 6.00 Build 0)  -->
<svg version="1.1" id="silhouette" xmlns="http://www.w3.org/2000/svg" xmlns:xlink="http://www.w3.org/1999/xlink" x="0px" y="0px"
	 viewBox="0 0 2700 2000" style="enable-background:new 0 0 2700 2000;" xml:space="preserve">
<g id="feather_trees">
</g>
<g id="spike_trees">
</g>
<g id="Layer_17">
</g>
<g id="back_building">
</g>
<g id="sidewalk">
</g>
<g id="front_facade">
</g>
<g id="neon_sign">
</g>
<g id="shrubs">
</g>
<g id="planter_right">
</g>
<g id="planter_left">
</g>
<g id="crosswalk">
</g>
<path d="M2657.3,1146.7c0,0,17.7-32.6-19.3-11.5c0,0-11.9-45.4-49.8-11c0,0-5.8-4.1-14.7-6.8l-1.2-202.8l63.9-129.6l-41.4,15
	l46.7-69.6l15.9-239.6l-38.2-151.5l-35.2-77.9l-28.4,38.1l-20.3-74.1l-34-12.9l-33.5,39.4l-11.3-18.2l-23.9,6.4l21-19.4l-32.4-69.3
	l-36.6,60.9l-52.2-142.5l-68.1,48.6L2201,330l22.2,142l23.5,28l-26.5-7.9l46.2,224l-74-44.1l-4.3-105.7l7.1-32.1l-14.3-42.1
	l-4.6-45.1l-15.5,43.1l4.8,36.6l-9.5,34.6l-1.2,88.3l-17.9-10.7l-0.6-15.1l6.4-29.2l-13.1-38.4l-4.2-41l-14.1,39.2l4.4,33.3
	l-8.7,31.5v1.8l-48.5-28.9l37.3-94.3l-41.2-24.5l31.2-251.9l-55.2-48.7l-54.3-67.8l-97.5,99.6l11.2,56.3l-31.2-8.8l5.3,44.6
	l-221.6,120.9l3.9,166.6l-91.1,6.6c0-74.1,0-135.1,0-168.9c0-148.9-145.4-253.7-210-258.1c-64.5-4.4-92.4,23.4-68.7,38.8
	c0.4,0.2,0.8,0.5,1.2,0.7c0.1,0.1,0.3,0.1,0.4,0.2c0.3,0.1,0.6,0.3,0.9,0.4c0.2,0.1,0.3,0.2,0.5,0.2c0.3,0.1,0.6,0.3,0.9,0.4
	c0.2,0.1,0.4,0.1,0.5,0.2c0.3,0.1,0.6,0.2,0.9,0.4c0.2,0.1,0.3,0.1,0.5,0.2c0.4,0.1,0.8,0.3,1.2,0.4c0.1,0,0.2,0.1,0.4,0.1
	c0.5,0.2,1,0.3,1.6,0.4c0.1,0,0.3,0.1,0.4,0.1c0.4,0.1,0.8,0.2,1.2,0.3c0.2,0,0.4,0.1,0.6,0.1c0.4,0.1,0.7,0.2,1.1,0.2
	c0.2,0,0.5,0.1,0.7,0.1c0.4,0.1,0.8,0.1,1.1,0.2c0.2,0,0.5,0.1,0.7,0.1c0.4,0.1,0.9,0.1,1.3,0.2c0.2,0,0.4,0.1,0.6,0.1
	c0.6,0.1,1.3,0.2,1.9,0.2c0.1,0,0.2,0,0.3,0c0.6,0.1,1.1,0.1,1.7,0.2c0.2,0,0.5,0,0.7,0.1c0.4,0,0.9,0.1,1.3,0.1
	c0.3,0,0.5,0,0.8,0.1c0.4,0,0.9,0.1,1.3,0.1c0.3,0,0.5,0,0.8,0c0.5,0,0.9,0,1.4,0.1c0.2,0,0.5,0,0.7,0c0.6,0,1.2,0,1.8,0
	c0.1,0,0.2,0,0.3,0c0.7,0,1.5,0,2.2,0c0.2,0,0.5,0,0.7,0c0.5,0,1,0,1.6,0c0.3,0,0.6,0,0.8,0c0.5,0,1,0,1.5,0c0.3,0,0.6,0,0.9,0
	c0.5,0,1,0,1.5-0.1c0.3,0,0.6,0,0.8,0c0.6,0,1.1,0,1.7-0.1c0.2,0,0.4,0,0.6,0c0.8,0,1.6-0.1,2.3-0.1c0.2,0,0.3,0,0.5,0
	c0.6,0,1.2-0.1,1.8-0.1c0.3,0,0.6,0,0.9-0.1c0.5,0,1-0.1,1.5-0.1c0.3,0,0.6,0,0.9-0.1c0.5,0,1-0.1,1.5-0.1c0.3,0,0.6-0.1,0.9-0.1
	c0.5,0,1.1-0.1,1.6-0.2c0.3,0,0.5,0,0.8-0.1c0.8-0.1,1.6-0.2,2.3-0.2c0,0,0,0,0.1,0c0.8-0.1,1.6-0.2,2.4-0.3c0.3,0,0.5-0.1,0.8-0.1
	c0.5-0.1,1.1-0.1,1.6-0.2c0.3,0,0.6-0.1,0.9-0.1c0.5-0.1,1-0.1,1.5-0.2c0.3,0,0.6-0.1,0.9-0.1c0.5-0.1,1-0.1,1.5-0.2
	c0.3,0,0.6-0.1,0.9-0.1c0.6-0.1,1.2-0.2,1.8-0.2c0.2,0,0.4-0.1,0.6-0.1c0.8-0.1,1.6-0.2,2.3-0.3c0.2,0,0.4-0.1,0.6-0.1
	c0.6-0.1,1.1-0.2,1.7-0.3c0.3,0,0.6-0.1,0.8-0.1c0.5-0.1,1-0.2,1.5-0.2c0.3,0,0.6-0.1,0.9-0.1c0.5-0.1,1-0.2,1.4-0.2
	c0.3,0,0.6-0.1,0.9-0.1c0.5-0.1,1-0.2,1.5-0.2c0.2,0,0.5-0.1,0.7-0.1c0.7-0.1,1.5-0.2,2.2-0.4c0.1,0,0.2,0,0.3,0
	c0.6-0.1,1.3-0.2,1.9-0.3c0.3,0,0.5-0.1,0.8-0.1c0.5-0.1,0.9-0.2,1.4-0.2c0.3,0,0.6-0.1,0.8-0.1c0.4-0.1,0.9-0.2,1.3-0.2
	c0.3,0,0.5-0.1,0.8-0.1c0.5-0.1,0.9-0.2,1.3-0.2c0.2,0,0.5-0.1,0.7-0.1c0.5-0.1,1.1-0.2,1.6-0.3c0.1,0,0.3,0,0.4-0.1
	c0.6-0.1,1.3-0.2,1.9-0.4c0.2,0,0.4-0.1,0.6-0.1c0.4-0.1,0.8-0.2,1.2-0.2c0.2,0,0.5-0.1,0.7-0.1c0.4-0.1,0.7-0.1,1.1-0.2
	c0.2,0,0.5-0.1,0.7-0.1c0.4-0.1,0.7-0.1,1.1-0.2c0.2,0,0.4-0.1,0.7-0.1c0.4-0.1,0.7-0.2,1.1-0.2c0.2,0,0.4-0.1,0.6-0.1
	c0.5-0.1,1.1-0.2,1.6-0.3c0.1,0,0.3-0.1,0.4-0.1c0.4-0.1,0.8-0.2,1.1-0.2c0.2,0,0.4-0.1,0.6-0.1c0.3-0.1,0.5-0.1,0.8-0.2
	c0.2,0,0.4-0.1,0.6-0.1c0.3-0.1,0.5-0.1,0.8-0.2c0.2,0,0.4-0.1,0.6-0.1c0.3-0.1,0.5-0.1,0.8-0.2c0.2,0,0.3-0.1,0.5-0.1
	c0.3-0.1,0.6-0.1,0.9-0.2c4.2-0.9,6.6-1.5,6.6-1.5c113.7,51.5,150.6,165.6,150.6,225.6c0,36.5-0.2,119.6-0.3,169.8l-8.1,0.6
	c-15.4-72.4-30.9-117.6-43.7-145.6l5.3-7.4l-8.5-6.6l0.5-23.5l9.6-10.2l-12.9-12.4l-6.2-2.6l-1.4-0.4l-24.8,1.5l-13.1,7.1
	l11.9,108.2l20.9,10.6h13.9l0.5-21.3l7.3-10.3l-6.9-6.2l0.5-21.3l0.4-0.6c11.3,26.4,25.5,69.8,41.5,141.4l-128.4,9.4l-6.2-147.2
	l-2.5-25.8l-18.4-22.9l1.3,24.2l-4.8,17.2L1374,604l-7.5,0.5l1.6-162.2l-14.1-24.7l0.4-36.6l-10.1,36.1l4,27.3l-5.7,161.7l-12.4,0.9
	v-76.7V406.2l-12.4-39.2l3.5-37l-17.2,34.4l0.4,26l-10.6,77.5l-5.3,142.3l-185.9,13.6l-6.8-167l8.3-37.6l-16.8-49.3l-5.4-52.7
	l-18.2,50.4l5.6,42.8l-11.2,40.5l-2.3,176.3l-10.8,0.8l1.9-195.8l-27.2-41.2l-5.6-105.1l-22.9,116.9l14.4,33.1l-14.8,31.7
	l-6.6,164.9L855,641.9l33-146.2l-91.4-208.5l-83.7-78.7L709,321.3l-61,52.5l32.8,135.5L646,480l-13.5,89.5l64.6,115.1l-58.8-25.5
	l19.4,125.8l6.1,9l-12.8,0.4v17.3l20,24.4l-188.5,7.7l42.3-155.8l-45.6,10.6l52.2-115l-39.6-333L357.1,150.3L287,404.9L252.1,285
	L223,345.1l17.2-136.7L172.7,61.7L53.8,345.1l51.5,390.6l-29.1-19.8l64.2,216l29.3,14.3l-0.4,174.4c-4.3,3.5-7.5,8-7.5,8
	c-53.5-20.4-76,33.4-76,33.4C26.2,1139.9,0,1178.4,0,1178.4v29.7v46.6v8.2h961.4h273.9H2050h489.4H2700v-8.2v-46.6v-62.8
	C2700,1145.4,2692.2,1129.1,2657.3,1146.7z M272.7,1128.4c0,0-6.4-5.3-9.6,6c-5.4,2.1-9.9,4.3-13,6c-0.9-0.1-1.6,0.2-2,1.1
	c-0.5,0.3-0.9,0.5-1.2,0.7c-0.5-0.4-1.1-0.9-1.8-1.4c-5.2-38.4-54.9-13.4-54.9-13.4c-2-5.4-4.5-8.5-7.1-10l-2.2-165.9l12.5,6.1
	l24.9-62.7l8.5,6l49.4,218.9C274.7,1121.2,273.5,1123.9,272.7,1128.4z M234.4,854l55.9-141l3.8,101.9l21.9,35.8L234.4,854z
	 M291.6,709.7l17.3-43.5l20.6,90.2L291.6,709.7z M2355.9,769.5l22-151.4l10.3,147l-19.4-28.8l5.8,44.3L2355.9,769.5z M2415.1,1141.6
	c-12.2-0.9-22.6,2.7-20.2,18.2c0,0-8.5-7.1-16.4-8.8l31.6-161.7l5.5,27.5l0.3-1L2415.1,1141.6z M2459.7,773.8l5.3,60.7l-11.7-7
	L2459.7,773.8z M2496.3,1130c-12.3-3.6-29.9-2.1-48.6,20.2c0,0-9.7-4.2-20.9-6.8l-1.5-156.1l14-41.9l9.5-80l18-10.4l8.4,95.4
	l19.4,33.8l1.7-0.5V1130z M2564.7,1115.6c-14.5-1.9-33.6,1.6-50.9,24.1c0,0-3.2-3.2-8.8-6.2l-2.1-151.7l17.6-5.2l19.5-106.1
	l25.9,66.7L2564.7,1115.6z"/>
</svg>
