<svg enable-background="new 0 0 5899.4 3178.9" viewBox="0 0 5899.4 3178.9" xmlns="http://www.w3.org/2000/svg"><path d="m5676.2 2380.3v-176 .1-401.1-25.8h-2700v-.7h2700v-110-197.7-8.2-46.6h-46.6l-22.7-44.2 2.2-38.1-14.9-15.8 4.5-23.8-18.9-191.3 20.9 3.3 3.9-15.9c-31.2-7.3-59.2-17.4-84.3-29.1 0-147.2 0-277.7 0-337.6 0-179.2-174.9-305.3-252.7-310.6-77.5-5.3-111.2 28.1-82.7 46.6.5.3 1 .6 1.5.9.1 0 .1.1.2.1.4.2.9.5 1.4.7.1.1.3.1.4.2.4.2.8.4 1.3.6.2.1.3.1.5.2.4.2.9.3 1.3.5.2.1.3.1.5.2.5.2 1.1.4 1.6.5.1 0 .1 0 .2.1.6.2 1.3.4 1.9.6.2 0 .3.1.5.1.5.1 1 .2 1.5.4.3.1.5.1.8.2.4.1.9.2 1.3.3.3.1.6.1.9.2.4.1.9.2 1.3.2.3.1.6.1.9.2.5.1.9.1 1.4.2.3 0 .6.1.9.1.7.1 1.4.2 2 .2.3 0 .7.1 1.1.1.5 0 1 .1 1.5.1.4 0 .8.1 1.2.1s.8.1 1.3.1c.4 0 .8.1 1.3.1.4 0 .8 0 1.2.1.4 0 .9 0 1.3.1h1.2 1.3 1.2 2.9.9 1.6 1.1 1.6 1.1 1.6 1.1c.6 0 1.1 0 1.7-.1h.9c2.1-.1 4.2-.2 6.4-.4h.7c.6 0 1.3-.1 1.9-.1.3 0 .6 0 .9-.1.6 0 1.3-.1 1.9-.2.3 0 .6 0 .9-.1.7-.1 1.3-.1 2-.2.2 0 .4 0 .7-.1 3.2-.3 6.5-.6 9.7-1h.4c.8-.1 1.5-.2 2.3-.3.2 0 .3 0 .5-.1.8-.1 1.5-.2 2.3-.3h.3c34.5-4.4 66-12.2 66-12.2 136.8 62 181.2 199.3 181.2 271.4 0 65.2-.5 253.5-.5 253.5v75.6 4.8c-108.7-53.9-157.9-136.5-157.9-136.5l-5.1-3.5-.2-12.2h.2c3.4-.3 6.4-2 8.5-4.5-.1.1-.2.2-.3.3 1.9-2.2 3-5 3-8.2 0-6.9-5.6-12.5-12.5-12.5s-12.5 5.6-12.5 12.5c0 6.5 5 11.9 11.3 12.4l-.5 12.4-4.5 3.3c-27 51-70.3 90.3-114.1 119.7-2 1.4-4.1 2.7-6.1 4.1 0 0 0 0-.1 0-2.3 1.5-4.5 2.9-6.8 4.3l-5-.6c3.1-6.8 6.1-13.7 8.9-20.8l10-1.7 2.6-10.1-6.6-3.8c7.2-19.9 13.3-40.7 18.2-62.3h1.6l10.2-29.1-5.9-.7c1.3-7.7 2.5-15.6 3.5-23.5l2.4-.4 2.6-10.1-3.6-2.1c2.9-27.1 3.9-55.1 2.9-83.7-.5-13.6-1.4-27-2.8-40.3l2.1-8.2-3.2-1.9c-24.3-204-150.1-360.7-300-370.2-3.7-.2-7.3-.4-11-.4-.1 0-.2 0-.3 0-1.6 0-3.1 0-4.7 0-.4 0-.8 0-1.2 0-1.7 0-3.4.1-5.1.1-10.1.4-20.1 1.4-29.9 3-12.9-2.1-26-3.2-39.3-3.2-1 0-1.9 0-2.9 0s-2 0-3 0c-5.6 0-11.2.2-16.7.5-16.3-61.2-42.1-109.6-75.3-144.7-4-4.3-8.2-8.4-12.4-12.3-4.2-3.9-8.6-7.6-13-11 0 0-.1-.1-.1-.1-4.4-3.5-8.9-6.7-13.5-9.8-.1-.1-.2-.1-.2-.2-4.6-3-9.2-5.9-14-8.5-.1-.1-.3-.2-.4-.2-1.5-.8-3-1.7-4.6-2.5 0 0-.1 0-.1-.1-3.2-1.7-6.4-3.2-9.6-4.7-.2-.1-.4-.2-.6-.3-1.5-.7-2.9-1.3-4.4-1.9-.1-.1-.3-.1-.4-.2-3.2-1.4-6.5-2.7-9.8-3.9-.3-.1-.6-.2-.9-.3-1.4-.5-2.8-1-4.3-1.5-.2-.1-.5-.2-.7-.2-3.3-1.1-6.6-2.1-10-3.1-.4-.1-.7-.2-1.1-.3-1.4-.4-2.7-.7-4.1-1.1-.3-.1-.7-.2-1-.3-3.3-.8-6.7-1.6-10.1-2.3-.4-.1-.9-.2-1.3-.2-1.3-.3-2.7-.5-4-.7-.4-.1-.8-.1-1.3-.2-1.7-.3-3.4-.6-5.2-.8h-.1c-1.7-.2-3.3-.5-5-.7-.5-.1-1-.1-1.5-.2-1.3-.2-2.6-.3-3.9-.4-.5 0-1-.1-1.5-.1-1.7-.2-3.5-.3-5.2-.4h-.1c-1.7-.1-3.4-.2-5.1-.3-.5 0-1 0-1.6-.1-1.3-.1-2.6-.1-3.9-.1-.5 0-1 0-1.6 0-1.8 0-3.5-.1-5.3-.1-231.2 0-335.6 149.3-358 494.9-15.3 236.5-68.5 464.8-173.9 467-1.5 0-3 0-4.5 0-.5 0-.9 0-1.4 0-1 0-2-.1-3-.1-.5 0-1-.1-1.5-.1-1-.1-2-.1-2.9-.2-.4 0-.9-.1-1.3-.1-1.3-.1-2.6-.3-3.9-.5-.1 0-.1 0-.2 0-1.4-.2-2.7-.4-4-.7-.4-.1-.7-.1-1.1-.2-1-.2-1.9-.4-2.9-.6-.4-.1-.8-.2-1.2-.3-.9-.2-1.8-.5-2.7-.7-.3-.1-.7-.2-1-.3-1.2-.3-2.4-.7-3.6-1.1h-.1c-1.2-.4-2.4-.9-3.6-1.3-.2-.1-.5-.2-.7-.3-.9-.4-1.9-.8-2.8-1.1-.3-.1-.6-.3-.9-.4-.9-.4-1.7-.8-2.6-1.2-.3-.1-.5-.3-.8-.4-2.2-1.1-4.4-2.4-6.5-3.7-.1-.1-.3-.2-.4-.3-.9-.6-1.8-1.2-2.6-1.7-.2-.2-.5-.3-.7-.5-.8-.6-1.6-1.1-2.4-1.7-.2-.2-.4-.3-.6-.5-.9-.7-1.9-1.5-2.8-2.3-86.1-73.1-34.6-324.9-21.8-450.6 5.3-52.1-12.8-102.5-47.6-140.1-2.1-2.2-4.2-4.4-6.4-6.6-.2-.2-.4-.4-.6-.6-1.2-1.2-2.5-2.4-3.8-3.6-.2-.2-.5-.5-.7-.7-1.3-1.2-2.6-2.3-3.9-3.5-.2-.2-.4-.4-.6-.5-2.3-2-4.6-3.9-7-5.7-.3-.3-.7-.5-1-.8-1.3-1-2.5-1.9-3.8-2.8-.4-.3-.8-.6-1.2-.9-1.2-.9-2.4-1.7-3.7-2.6-.5-.3-.9-.6-1.4-.9-.8-.5-1.6-1-2.3-1.5-.9-.6-1.9-1.2-2.8-1.8-.8-.5-1.5-.9-2.3-1.4-.6-.4-1.2-.7-1.9-1.1-1.1-.6-2.2-1.3-3.3-1.9 0 0-.1 0-.1-.1 14.9-10.5 31.4-20 49.4-28.2 0 0 31.5 7.7 66 12.2h.3c.8.1 1.5.2 2.3.3.2 0 .3 0 .5.1.8.1 1.5.2 2.3.3h.4c3.2.4 6.5.7 9.7 1 .2 0 .4 0 .7.1.7.1 1.3.1 2 .2.3 0 .6 0 .9.1.6.1 1.3.1 1.9.2.3 0 .6 0 .9.1.6 0 1.3.1 1.9.1h.7c2.1.1 4.3.3 6.4.4h.9c.6 0 1.1 0 1.7.1h1.1 1.6 1.1 1.6 1.1 1.6.9 2.9 1.2 1.3 1.2c.4 0 .9 0 1.3-.1.4 0 .8 0 1.2-.1.4 0 .8-.1 1.2-.1s.8-.1 1.3-.1c.4 0 .8-.1 1.2-.1.5 0 1-.1 1.5-.1.3 0 .7-.1 1-.1.7-.1 1.4-.2 2.1-.2.3 0 .6-.1.9-.1.5-.1.9-.1 1.4-.2.3 0 .6-.1.9-.1.4-.1.9-.1 1.3-.2.3-.1.6-.1.9-.2.4-.1.9-.2 1.3-.3.3-.1.5-.1.8-.2.5-.1 1-.2 1.5-.4.2 0 .3-.1.5-.1.7-.2 1.3-.4 2-.6.1 0 .1 0 .2-.1.6-.2 1.1-.3 1.6-.5.2-.1.3-.1.5-.2.4-.2.9-.3 1.3-.5.2-.1.3-.1.5-.2.4-.2.8-.4 1.3-.6.1-.1.3-.1.4-.2.5-.2.9-.5 1.4-.7.1 0 .1-.1.2-.1.5-.3 1-.6 1.5-.9 28.5-18.5-5.2-51.9-82.7-46.6-31.4 2.1-78.6 24-123.8 61.1-.5-.3-1.1-.5-1.6-.8-.7-.3-1.4-.7-2.1-1-1.1-.5-2.2-1-3.4-1.5-.7-.3-1.5-.6-2.2-.9-.9-.4-1.9-.8-2.8-1.1s-1.7-.7-2.6-1c-1-.4-2.1-.8-3.1-1.2-.6-.2-1.3-.5-1.9-.7-1.3-.5-2.7-.9-4.1-1.4-.6-.2-1.3-.4-1.9-.6-1.4-.4-2.8-.9-4.2-1.3-.6-.2-1.1-.3-1.7-.5-1.3-.4-2.6-.7-3.9-1.1-.6-.2-1.2-.3-1.8-.5-1.3-.3-2.7-.7-4-1-.5-.1-1-.2-1.5-.4-1.6-.3-3.1-.7-4.7-1-.5-.1-1.1-.2-1.6-.3-1.6-.3-3.2-.6-4.8-.9-.5-.1-1-.2-1.5-.2-1.7-.3-3.4-.5-5.1-.8-.3 0-.7-.1-1-.1-1.6-.2-3.2-.4-4.8-.6-.4 0-.8-.1-1.1-.1-1.8-.2-3.5-.3-5.3-.5-.5 0-.9-.1-1.4-.1-1.8-.1-3.6-.2-5.4-.3-.4 0-.9 0-1.3-.1-1.9-.1-3.7-.1-5.6-.2-.3 0-.6 0-.9 0-1.8 0-3.7 0-5.5 0-.2 0-.5 0-.7 0-1.9 0-3.9.1-5.9.1-.4 0-.8 0-1.2 0-1.9.1-3.9.2-5.8.3-.4 0-.8.1-1.2.1-2 .1-4 .3-6 .5-.3 0-.6.1-.8.1-2 .2-4.1.4-6.1.7-.1 0-.2 0-.4 0-2.1.3-4.2.5-6.3.9-.3 0-.7.1-1 .1-2 .3-4.1.6-6.2 1-.4.1-.8.1-1.2.2-2.1.4-4.2.8-6.3 1.2-.3.1-.6.1-.9.2-2.2.5-4.4.9-6.7 1.5-2.3.5-4.6 1.1-6.9 1.7-.8.2-1.5.4-2.3.6-1.5.4-3 .8-4.5 1.3-.9.3-1.8.6-2.6.8-1.3.4-2.6.8-3.9 1.3-.9.3-1.8.6-2.7 1-1.2.4-2.5.9-3.7 1.3-.9.3-1.9.7-2.8 1.1-1.2.5-2.3.9-3.5 1.4-.9.4-1.8.8-2.8 1.2-1.1.5-2.2 1-3.3 1.4-.9.4-1.8.8-2.7 1.3-1.1.5-2.2 1-3.2 1.5-.9.4-1.8.9-2.7 1.3-1 .5-2.1 1.1-3.1 1.6-.9.5-1.8 1-2.6 1.4-1 .6-2 1.1-3 1.7-.9.5-1.7 1-2.6 1.5-1 .6-2 1.2-2.9 1.8-.8.5-1.7 1.1-2.5 1.6-1 .6-1.9 1.2-2.8 1.9-.8.5-1.6 1.1-2.4 1.7-.9.6-1.8 1.3-2.8 1.9-.8.6-1.6 1.2-2.4 1.7-.9.7-1.8 1.3-2.7 2-.8.6-1.5 1.2-2.3 1.8-.9.7-1.7 1.4-2.6 2.1-.7.6-1.5 1.2-2.2 1.9-.8.7-1.7 1.5-2.5 2.2-.7.6-1.4 1.3-2.2 1.9-.8.8-1.6 1.5-2.4 2.3-.7.7-1.4 1.3-2.1 2-.8.8-1.6 1.6-2.4 2.4-.7.7-1.3 1.4-2 2.1-.8.8-1.5 1.6-2.3 2.5-.6.7-1.3 1.4-1.9 2.1-.8.8-1.5 1.7-2.2 2.6-.6.7-1.2 1.4-1.9 2.2-.7.9-1.5 1.8-2.2 2.7-.6.7-1.2 1.5-1.8 2.2-.7.9-1.4 1.8-2.1 2.8-.6.7-1.1 1.5-1.7 2.2-.7.9-1.4 1.9-2.1 2.9-.5.8-1.1 1.5-1.6 2.3-.7 1-1.4 2-2 3-.5.8-1 1.5-1.5 2.3-.7 1-1.3 2.1-2 3.2-.5.7-.9 1.5-1.4 2.2-.7 1.1-1.3 2.3-2 3.4-.4.7-.8 1.4-1.2 2.1-.7 1.3-1.4 2.6-2.1 3.8-.3.6-.7 1.2-1 1.8-.9 1.7-1.8 3.5-2.7 5.3-.1.2-.2.3-.3.5-1 1.9-1.9 3.9-2.8 5.9-.2.5-.5 1-.7 1.6-.7 1.5-1.3 2.9-2 4.4-.3.7-.6 1.5-1 2.3-.5 1.3-1.1 2.6-1.6 3.9-.3.8-.7 1.7-1 2.6-.5 1.2-1 2.4-1.4 3.7-.3.9-.7 1.8-1 2.7-.4 1.2-.9 2.4-1.3 3.6-.3 1-.7 1.9-1 2.9-.4 1.2-.8 2.4-1.2 3.6-.3 1-.6 2-.9 3-.4 1.2-.7 2.4-1.1 3.6-.3 1-.6 2.1-.9 3.1-.3 1.2-.7 2.4-1 3.6-.3 1.1-.6 2.1-.9 3.2-.3 1.2-.6 2.4-.9 3.6-.3 1.1-.5 2.2-.8 3.2-.3 1.2-.6 2.4-.9 3.6-.3 1.1-.5 2.2-.7 3.3-.3 1.2-.5 2.4-.8 3.6-.2 1.1-.5 2.3-.7 3.4-.2 1.2-.5 2.4-.7 3.6s-.4 2.3-.6 3.5-.4 2.4-.6 3.6-.4 2.3-.6 3.5-.4 2.4-.6 3.7c-.2 1.2-.4 2.4-.5 3.6-.2 1.2-.3 2.5-.5 3.7s-.3 2.4-.5 3.7c-.2 1.2-.3 2.5-.4 3.7s-.3 2.5-.4 3.7-.3 2.5-.4 3.7c-.1 1.3-.3 2.5-.4 3.8-.1 1.2-.2 2.5-.3 3.7-.1 1.3-.2 2.6-.3 3.9-.1 1.2-.2 2.5-.3 3.7-.1 1.3-.2 2.6-.3 3.9-.1 1.2-.1 2.5-.2 3.7-.1 1.3-.1 2.7-.2 4-.1 1.2-.1 2.4-.1 3.7-.1 1.4-.1 2.7-.1 4.1 0 1.2-.1 2.4-.1 3.6 0 1.4-.1 2.8-.1 4.2v3.5 4.4 3.4 4.6c0 1 0 2.1.1 3.1 0 1.6.1 3.3.1 4.9 0 .9.1 1.7.1 2.6.1 1.8.1 3.6.2 5.5 0 .4 0 .7.1 1.1.4 9.8 1.1 19.7 2 29.7 0 .5.1 1.1.1 1.6.2 2 .4 4.1.6 6.1.1.7.1 1.5.2 2.2.2 1.9.4 3.9.6 5.8.1.8.2 1.7.3 2.5.2 1.9.5 3.8.7 5.7.1.9.2 1.8.3 2.7.2 1.9.5 3.8.7 5.6.1.9.2 1.8.4 2.8.3 1.9.5 3.7.8 5.6.1.9.3 1.9.4 2.8.3 1.9.6 3.8.9 5.6.1.9.3 1.9.4 2.8.3 1.9.6 3.8.9 5.7.2.9.3 1.9.5 2.8.3 1.9.7 3.8 1 5.7.2.9.3 1.9.5 2.8.3 1.9.7 3.8 1.1 5.7.2.9.4 1.9.5 2.8.4 1.9.8 3.9 1.1 5.8.2.9.4 1.8.6 2.7.4 2 .8 3.9 1.2 5.9.2.9.4 1.8.6 2.7.4 2 .9 4 1.3 5.9.2.9.4 1.7.6 2.6.5 2 .9 4 1.4 6 .2.8.4 1.7.6 2.5.5 2.1 1 4.1 1.5 6.2.2.8.4 1.6.6 2.3.5 2.1 1 4.2 1.6 6.3.2.7.4 1.5.6 2.2.6 2.2 1.1 4.3 1.7 6.5.2.7.4 1.3.5 2 .6 2.2 1.2 4.4 1.8 6.7.2.6.3 1.2.5 1.7.6 2.3 1.3 4.6 1.9 6.9.1.5.3.9.4 1.4.7 2.4 1.4 4.8 2.1 7.3.1.3.2.7.3 1 .8 2.6 1.5 5.1 2.3 7.7 0 .1.1.3.1.4 2.5 8.2 5.1 16.4 7.9 24.6-12.7-1.7-27.7-4.2-45.4-7.7-84.2-16.7-180.7-63.7-191.1-68.9v-.1c6.4-.6 11.3-5.9 11.3-12.4 0-6.9-5.6-12.5-12.5-12.5s-12.5 5.6-12.5 12.5c0 3.1 1.2 6 3 8.2-.1-.1-.2-.2-.3-.3 2.1 2.5 5.1 4.2 8.5 4.5h.2l-.2 12.2-5.1 3.5s-77 129.2-251 169.8l3.9 15.9 20.9-3.3-14.3 144.8-145.2-39.7v145.3c-.6-1.1-9.1-15.6-42.6 1.4.1-.3 4.2-7.7 4.2-13.1.1-5.8-4.4-9.2-23.5 1.7 0 0-11.9-45.4-49.8-11 0 0-5.5-3.9-14.2-6.6v-4.2-4.5-4.5-4.5-4.5-4.5-4.5-4.5-4.5-4.5-4.5-4.5-4.5-4.5-4.5-4.5-4.5-4.5-4.5-4.5-4.5-4.5-4.5-4.5-4.5-4.5-4.5-4.5-4.5-4.5-4.5-4.5-4.5-4.5-4.5-4.5-4.5-4.5-4.5-4.5-4.5-4.5-4.5-4.5-4.5-4.5-.4l62.1-125.9-12.2 4.4-29.2 10.6 3.2-4.8 43.5-64.8 15.9-239.6-38.2-151.5-35.2-77.9-6.2 8.3-22.2 29.8-20.3-74.1-34-12.9-11.3 13.3-22.2 26.1-11.3-18.2-23.2 6.2-.7.2.5-.5 20.5-18.9-32.4-69.3-16.5 27.4-20.1 33.4-52.2-142.5-18.8 13.4-49.3 35.2-27.4 91.8c-32.4 9.5-41.9 29-22.5 41.6.5.3 1 .6 1.5.9.1 0 .1.1.2.1.4.2.9.5 1.4.7.1.1.3.1.4.2.4.2.8.4 1.3.6.2.1.3.1.5.2.4.2.9.3 1.3.5.2.1.3.1.5.2.5.2 1.1.4 1.6.5.1 0 .1 0 .2.1h.1l-22.2 74.4 22.2 142 23.5 28-26.5-7.9 3.2 15.3.3 1.7 26.4 127.9v.6.9.9.9.9.9.9.9.9.9.9.9.9.9.9.9.9.9h3.3l12.9 62.8-74-44.3-4.3-105 7.1-32.1-14.4-42.1-4.6-45-15.5 43.1 4.8 36.6-9.5 34.6-1.2 87.6-18-10.8-.6-14.3 6.4-29.2-13.1-38.4-4.2-41-14.1 39.2 4.4 33.3-8.7 31.5v1l-48.2-28.9 37-93.5-41.2-24.5 31.2-251.9-55.3-48.7-54.3-67.8-30.8 31.5-66.7 68.1 11.2 56.3-31.2-8.8 5.3 44.6-221.6 120.9 3.9 165.5-91.1 5.7c0-73.1 0-133.3 0-166.8 0-148.9-145.4-253.7-210-258.1-64.5-4.4-92.4 23.4-68.7 38.8.4.2.8.5 1.2.7.1.1.3.2.4.2.3.1.5.3.8.4.2.1.4.2.5.3.3.1.5.2.8.4.2.1.4.2.6.2.3.1.5.2.8.3.2.1.4.2.6.2.3.1.6.2.9.3.2.1.4.1.6.2.5.1 1 .3 1.5.4.2.1.5.1.7.2.3.1.6.1.9.2s.6.1.8.2c.3.1.6.1.9.2s.6.1.9.2.6.1.9.2.6.1 1 .2c.3 0 .6.1.9.1s.7.1 1 .1.6.1.9.1c.7.1 1.3.2 2 .2.3 0 .5.1.8.1.4 0 .8.1 1.1.1s.6 0 .9.1c.4 0 .8.1 1.2.1h.9c.4 0 .8 0 1.2.1h.9 1.2.8 2.7.6 1.3.9 1.3.9 1.3 1 1.3 1c.4 0 .9 0 1.3-.1.3 0 .7 0 1-.1.8 0 1.6-.1 2.4-.1.4 0 .8 0 1.1-.1.4 0 .8-.1 1.2-.1s.8-.1 1.2-.1.8-.1 1.2-.1.8-.1 1.2-.1.8-.1 1.1-.1c.5 0 .9-.1 1.4-.1.3 0 .7-.1 1-.1.7-.1 1.4-.1 2.1-.2h.5c.7-.1 1.5-.2 2.2-.2.3 0 .5-.1.8-.1.6-.1 1.1-.1 1.7-.2.3 0 .5-.1.8-.1.6-.1 1.1-.1 1.7-.2.2 0 .5-.1.7-.1.6-.1 1.2-.2 1.9-.2.2 0 .3 0 .5-.1 2.5-.3 5-.7 7.4-1h.1c.8-.1 1.6-.2 2.3-.4h.1c15.6-2.4 29.3-5.3 37-7 4-.9 6.3-1.5 6.3-1.5 113.7 51.5 150.6 165.6 150.6 225.6 0 36-.2 117.3-.3 167.7l-8.6.5c-15.2-71.1-30.5-115.6-43.2-143.3l5.3-7.4-8.5-6.6.5-22.7 9.6-10.6-.6-.2.6-.1-12.9-12.4-6.2-2.7-.8.4.8-.4-1.4-.4-24.8 1.5-13.1 7.1 11.9 108.2 20.9 10.6h13.9l.5-21.3 7.3-10.3-6.9-6.2.5-21.3.4-.6c11.1 26.1 25.2 68.9 41 139.2l-128.1 8-6.1-143.5-2.5-25.8-18.4-22.9 1.3 24.2-4.8 17.2-1.5 152.7-7.5.5 1.5-158-14.1-24.7.2-17.9.2-18.6-10.1 36.1 4 27.3-5.5 157.3-12.5.8v-72.2-124.5l-12.4-39.2 3.5-37-17.2 34.4.4 26-10.6 77.5-5.1 137.3-186.4 11.6-6.5-160.1 8.3-37.6-16.8-49.3-3.2-31.1-2.2-21.6-18.2 50.4 5.6 42.8-11.2 40.5-2.2 168.8-10.9.7 1.8-188.2-27.2-41.2-3.5-65-2.1-40.1-22.9 116.9 14.4 33.1-14.8 31.7-6.2 156.7-127.4 7.9 30.5-136.3-91.4-208.5-85.1-78.8-3.9 112.8-61 52.5 32.8 135.5-5.5-4.6-29.3-24.7-13.5 89.5 54.3 96.7v3l2.3 1.1 8 14.3-58.8-25.5 19.4 125.8 6.1 9-12.8.4v17.3l20 24.4-188.5 7.7 42.3-155.8-45.6 10.6 52.2-115-38.7-325h.6c.6 0 1.1 0 1.7.1h1.1 1.6 1.1 1.6 1.1 1.6.9 2.9 1.2 1.3 1.2c.4 0 .9 0 1.3-.1.4 0 .8 0 1.2-.1.4 0 .8-.1 1.2-.1s.8-.1 1.3-.1c.4 0 .8-.1 1.2-.1.5 0 1-.1 1.5-.1.3 0 .7-.1 1-.1.7-.1 1.4-.2 2.1-.2.3 0 .6-.1.9-.1.5-.1.9-.1 1.4-.2.3 0 .6-.1.9-.1.4-.1.9-.1 1.3-.2.3-.1.6-.1.9-.2.4-.1.9-.2 1.3-.3.3-.1.5-.1.8-.2.5-.1 1-.2 1.5-.4.2 0 .3-.1.5-.1.7-.2 1.3-.4 2-.6.1 0 .1 0 .2-.1.6-.2 1.1-.3 1.6-.5.2-.1.3-.1.5-.2.4-.2.9-.3 1.3-.5.2-.1.3-.1.5-.2.4-.2.8-.4 1.3-.6.1-.1.3-.1.4-.2.5-.2.9-.5 1.4-.7.1 0 .1-.1.2-.1.5-.3 1-.6 1.5-.9 28.5-18.5-5.2-51.9-82.7-46.6-6.9.5-14.5 1.9-22.7 4.2l-79.1-58.9-34.9 127c-19.5 17.4-38.2 37.7-54.7 60.4l-15.3-52.6-29.1 60.1 17.2-136.7-45.1-98.2-22.3-48.5-119.2 283.6 51.5 390.6-29.1-19.8 64.2 216 24.7 12.1 4.1 2v1 5.4 5.4 5.4 5.4 5.4 5.4 5.4 5.4 5.4 5.4 5.4 5.4 5.4 5.4 5.4 5.4 5.4 5.4 5.4 5.4 5.4 5.4 5.4 5.4 5.4 5.4 5.4 5.4 5.4 5.4 5.4 5.4.1c-4.1 3.4-7.1 7.5-7.3 7.9-7.5-2.9-14.4-4.3-20.8-4.6-.7 0-1.4-.1-2.1-.1s-1.4 0-2 0c-7.4.2-13.9 2-19.7 4.7-1.6.7-3.1 1.5-4.5 2.4-1.9 1.1-3.7 2.3-5.4 3.6s-3.3 2.6-4.8 4c-.4.3-.7.7-1.1 1-2.2 2.1-4.1 4.2-5.8 6.3-.3.3-.6.7-.8 1-6.2 8-9.1 14.9-9.1 14.9-11.2-4.1-21.2-6.2-30.1-6.7-2.2-.1-4.4-.2-6.5-.1-4.9.1-9.3.6-13.4 1.5-3.5.7-6.8 1.7-9.7 2.8-1 .4-2 .8-2.9 1.2-15.9 6.9-23.3 17.7-23.3 17.7v20 9.7h169.2-169.1v46.6 8.2 72.7 125 110.1 26.5 401 176 6.3 566.8h5400v-566.8zm-1249.6-1328c-19.6-26.4-33-49.6-38.3-59.1v-62.1c.9.2 1.9.3 3 .5h.2c.5.1.9.1 1.4.2h.2c1.1.2 2.3.3 3.5.5h.3c.5.1 1.1.1 1.6.2h.3c1.3.2 2.6.3 3.9.4h.3c.6.1 1.2.1 1.8.2h.3c1.4.1 2.8.2 4.3.3h.3c.6 0 1.3.1 2 .1h.4c1.5.1 3 .1 4.6.1h.3 2.1.4 2.3c3.2.1 6.5 0 9.8-.2zm9.3 18.2 5.7-138.6c12.4-2.5 24-7.5 31.8-17 12.9-15.7 36.4-23.4 56.5-27.1 5.8 41 16 80 30 116.1l-3.6 2.1 1.4 16.7 10.6 1.5c4.9 11.2 10.2 22 15.8 32.5l-23.3 2.5 13.1 44.7h14.8l-1.5 35.7c-.9.9-1.7 1.7-2.6 2.6-.2.2-.5.5-.7.7-.7.7-1.4 1.3-2.1 2-.2.2-.3.3-.5.5-.8.8-1.7 1.5-2.5 2.3-.2.2-.4.3-.6.5-.7.6-1.3 1.2-2 1.7-.2.2-.4.4-.6.5-.8.7-1.6 1.4-2.4 2-.1.1-.1.1-.2.1-.7.6-1.5 1.2-2.2 1.8-.2.2-.4.3-.6.5-.7.5-1.3 1.1-2 1.6-.1.1-.2.2-.3.2-.8.6-1.5 1.1-2.2 1.7-.2.1-.3.2-.5.4-.6.4-1.2.9-1.8 1.3-.2.1-.3.2-.5.4-.7.5-1.4 1-2.1 1.5-.1.1-.2.1-.3.2-.6.4-1.2.8-1.8 1.2-.2.1-.3.2-.5.3-.6.4-1.2.8-1.8 1.2-.1 0-.1.1-.2.1-.6.4-1.3.8-1.9 1.2-.2.1-.3.2-.5.3-.5.3-.9.6-1.4.8-.2.1-.3.2-.5.3-.6.3-1.1.6-1.7.9-.2.1-.3.2-.4.2-.4.2-.8.4-1.2.6-.2.1-.4.2-.6.3-.4.2-.8.4-1.2.6-.2.1-.4.2-.6.3-.4.2-.7.4-1 .5-.2.1-.4.2-.6.3s-.5.2-.7.4c-.2.1-.4.2-.6.3-.4.2-.7.3-1.1.5-.2.1-.5.2-.7.3-.1.1-.3.1-.4.2-.2.1-.5.2-.7.3h-.1c-.6.2-1.1.4-1.6.6-3.5 1.3-5.4 1.7-5.4 1.7l4.6-21.6c-40.3-17.2-75.3-50.9-102-83.4zm92.5-193.7c-.3 0-.6 0-.9.1h-.1c-4.1.2-8.3.8-12.7 1.5-.1 0-.1 0-.2 0-1.4.2-2.8.5-4.3.8h-.1c-3 .6-6 1.3-9.1 2-.1 0-.3.1-.4.1-1.4.4-2.8.7-4.3 1.1-.1 0-.3.1-.4.1-3.1.8-6.3 1.8-9.5 2.8-.3.1-.5.2-.8.2-1.4.4-2.8.9-4.1 1.3-.3.1-.6.2-.9.3-3.2 1-6.5 2.2-9.9 3.3-.4.1-.9.3-1.3.5-1.3.4-2.6.9-3.9 1.4-.5.2-.9.3-1.4.5-1.7.6-3.4 1.2-5.1 1.8-.9.3-1.7.6-2.6.9-.2.1-.4.1-.6.2-.7.2-1.4.4-2.2.6-.1 0-.2.1-.3.1-1.8.5-3.6.9-5.3 1.3-1.7.3-3.4.6-5 .8l3.8-91.5 77.9-16.6c-.2 6.1-.3 12.3-.3 18.5 0 23.2 1.3 45.9 4 67.9zm8.1-86.8c0-.7 0-1.3.1-2-.1.7-.1 1.3-.1 2zm.5-12.3c0-.6.1-1.2.1-1.8 0 .6-.1 1.2-.1 1.8zm31.9 220.8v.1c.1 0 .1-.1 0-.1zm44.3-131.5h4.7 2.6 16.5c2.3 20.7 5.7 40.8 10.1 60.4l-41.9 17 3.2-77.4zm-2.7-51.8.8-19.5 1.6.2.1 19zm9.7-87.7.1-.5 17 1.4c-.3 2.7-.6 5.4-.9 8.1l-1-.2zm13.2 88.6-11.3-1.3.6-19.2 10.5-1.7c0 7.4 0 14.8.2 22.2zm2.3 148.3.4-2.2 19.8-.5c1.7 5.8 3.4 11.5 5.3 17.2zm25.6 64.5c0 .1-.1.2-.1.3-.3.6-.6 1.3-.9 1.9-.3.7-.6 1.3-1 2-.3.6-.6 1.3-.9 1.9s-.6 1.3-1 1.9c-.3.6-.6 1.3-.9 1.9s-.6 1.3-.9 1.9-.6 1.2-.9 1.8-.6 1.2-1 1.9c-.3.6-.6 1.2-.9 1.8s-.6 1.2-1 1.8c-.3.6-.6 1.2-.9 1.8s-.6 1.2-.9 1.8c-.3.5-.5 1-.8 1.5l-11.5-1.3.6-19.2zm-24.3-71.7 1-5.2-12.3 1.3.8 4.1-21.9.5.3-8 43.3-17.6c1.9 8.2 4 16.4 6.2 24.4zm-46.2 1.1c-.2-.8-.5-1.6-.7-2.3l4.7-1.9-.2 4.1zm3.6 4.9-.3 6.2c-.6-2.1-1.3-4.1-1.9-6.2zm-3.6 85.9c-.1-.3-.3-.6-.4-.9.1.3.3.6.4.9zm-2-98c-7.3-26.8-12.6-55-15.7-84.1h25.2l-3.4 81.6zm9.8 152.8h14.7c.7.9 1.3 1.9 2 2.8-.1.2-.3.4-.4.5-.3.4-.5.7-.8 1-.3.4-.7.9-1 1.3-.3.3-.5.7-.8 1-.3.4-.7.9-1 1.3-.2.3-.5.6-.7 1-.3.4-.7.9-1 1.3-.2.3-.5.6-.7.9-.3.4-.7.9-1 1.3-.2.2-.4.5-.6.7-.4.5-.8.9-1.1 1.4 0 0 0 0-.1.1-1.1 1.4-2.2 2.7-3.3 4-1.8 2.1-3.5 4.1-5.2 6.1zm5.2-125.2.7-15.8 23.1-.5.5 2.4zm-25.6-255.1 26.1 2.1-.1 3.6zm50.2 309.3.1 18.7c-3.5-6.6-6.9-13.3-10.2-20.2zm-24-312.2-27.5-2.2c6.6-41.1 17.6-79.9 32.3-115.4zm-2.4 13.3-29.3 16.8c.8-7.6 1.6-15.1 2.7-22.6zm-.6 60.3-.9 22-30.4 3.3c-.1-4.1-.2-8.3-.2-12.5 0-5.8.1-11.6.3-17.3zm154.1 620h-255.7l11-142.9s72.6-20.1 151.9-110.8c13.3 12.5 27.4 23.7 42.1 33.5l-22.4 12.8 1.2 15.2 30.1 4.4-13.9 27.4-13.3 1.5 4.6 15.8-72.7 143.2h21.1 81.9l44.5-118.4h30.8zm-82.7-626.6c0-.1 0-.3 0-.4l16.1-2.7 4.1-15.6-18.2-10.4 20.1-4.3 15.7 3.4c-2.4 20.5-3.1 41.7-1.9 63.5 1.1 19.5 3.6 38.3 7.5 56.4-.2.9-.5 1.8-.7 2.7-.2.7-.4 1.4-.6 2.1-.4 1.4-.8 2.7-1.1 4.1-.2.8-.5 1.6-.7 2.4-.4 1.2-.7 2.5-1.1 3.7-.2.9-.5 1.7-.7 2.6-.3 1.2-.7 2.3-1 3.5-.3.9-.5 1.8-.8 2.7-.1.3-.2.6-.3.9l-25.7 10.4c-3.3-17.3-5.8-35-7.6-52.9l13.2-37.6-15.8-1.8c0-.1 0-.2 0-.3-.6-10.8-.7-21.6-.5-32.4h.5zm-11.9-276.1c.6-.8 1.2-1.6 1.8-2.4h25.7l.6 3-17.4 10zm6.2 13.1-25 14.3c5-8.1 10.3-15.9 15.8-23.4zm79.2 637.7-.2.4-27.5.2c-2.8-2.2-5.6-4.5-8.3-6.9l25.1-34c6.3 8.1 12.8 15.8 19.5 23.2l-6.8 13.4-2.5.3zm-2.7 5.4-2.9 5.8-4.5 2.6c-3.8-2.6-7.6-5.3-11.3-8.1zm-38.6-16.4c-6.6-6-13.1-12.4-19.3-19.1 9.5-12.4 19-25.9 28.4-40.5 5.4 8.5 11.1 16.6 17 24.5zm-20.8-233.6 22.9-9.3c-.2.7-.4 1.4-.7 2.2-.3.9-.5 1.8-.8 2.6-.3 1-.6 2.1-1 3.1-.3.9-.6 1.8-.8 2.6-.3 1-.6 2-1 3-.3.9-.6 1.8-.8 2.6-.3 1-.6 2-1 3-.3.9-.6 1.7-.9 2.6-.3 1-.6 2-1 2.9-.3.9-.6 1.7-.9 2.6-.3 1-.6 1.9-1 2.9-.3.8-.6 1.7-.9 2.5-.3 1-.6 1.9-1 2.8-.3.8-.6 1.7-.9 2.5-.3.9-.7 1.9-1 2.8-.3.8-.6 1.6-.9 2.4-.2.5-.3.9-.5 1.4-2.6-11.4-5.4-23.2-7.8-35.2zm44.7-91.4c-1.2 5.4-2.5 10.7-3.8 16.1v.1c-.2.8-.4 1.7-.6 2.5-.9-7.9-1.7-15.9-2.1-24-1.1-20.7-.5-40.8 1.6-60.3l17.5 3.9c-3.7 20.7-7.9 41.3-12.6 61.7zm-4.3-70.6c.3-2.7.7-5.3 1.1-8l6.1-1.3 12.3 2.5c-.6 3.6-1.2 7.1-1.8 10.7zm2.8-18.6c5.7-31.4 15.5-60.4 28.7-85.6 0 .2 0 .5-.1.7-.2 2.7-.4 5.4-.7 8.1-.1.9-.2 1.7-.2 2.6-.2 2.6-.5 5.2-.7 7.7-.1 1-.2 2.1-.3 3.1-.2 2.4-.5 4.8-.7 7.2-.1 1.2-.3 2.4-.4 3.6-.2 2.3-.5 4.5-.8 6.8-.2 1.5-.3 2.9-.5 4.4-.2 2-.5 4-.7 6-.2 1.8-.5 3.6-.7 5.4-.2 1.7-.4 3.3-.6 5-.3 2.2-.6 4.3-.9 6.5-.2 1.3-.4 2.6-.5 3.9-.5 3.5-1 7-1.5 10.4zm-18.2-218.4-12.5-7.1.5-2.5h18.3c-2.1 3.2-4.2 6.4-6.3 9.6zm8.5 58.2 2.1-.3 28.4 28-40.1-4.5c3.1-7.9 6.3-15.7 9.6-23.2zm-20.6 74.2h44.8c-12.7 24.9-22.2 53-27.9 83.4l-36.9-7.6c3-24.2 7.4-47.9 13.3-71 .4-1.6.9-3.2 1.3-4.8h2.8zm10.3 90.3-24.4 5.2-7.9-1.7c.3-3.3.6-6.6 1-9.9zm4 9.4c-.1.7-.2 1.3-.3 2l-4.4-1zm96.8 289.4-38.4 75.7c-1.6-2.1-3.2-4.2-4.8-6.4-3.4-4.6-6.7-9.4-9.9-14.2l45.5-61.4c2.6 2.2 5.1 4.3 7.6 6.3zm-.9-15.3 14.6-19.7c.8 1.1 1.7 2.1 2.5 3.2l-11.1 21.9c-2-1.7-4-3.5-6-5.4zm4 229.6-28.6-3.2 7.1-18.9c9 2.3 18.1 4.2 27.3 5.5zm14-39.8c-2.1-.4-4.1-.9-6.2-1.4l1.7-6.6-17.5-10 2.2-6c7.5 5.4 15.1 10.4 22.9 15zm-10.1-49.6 7.4-19.8 47-73.2c1.7.4 3.4.9 5.1 1.2l-38.1 108.9c-7.3-5.2-14.4-10.9-21.4-17.1zm86.6-613.1c18.9.7 37.2 5.5 54.5 13.9l24.9 76.7-15.1 69.8c-6.7-3-13.8-4.7-21.3-4.9l-36.5-36.7-31.7-105c8.2-5.4 16.6-10 25.2-13.8zm-27.3 6.5-1.3-4.4c3.9-.7 7.9-1.3 11.9-1.7-3.5 1.9-7.1 4-10.6 6.1zm190.9-55.9.1 13-46.3 5 8.9 30.5h37.5 3.2 1.8 7l-6.5 35.1c-19.4-19.5-41.6-34.2-65.5-42.8l11.1-51.5.3 3.7zm-46.6-19.8 6.3-29.2c6 4.9 11.8 10.1 17.5 15.6zm24.7-30.3 20.9.1.7 3.5-11.1 6.4c-3.4-3.4-6.9-6.7-10.5-10zm62.4 98.7c5.4 9.3 10.5 18.9 15.2 28.9l-25.6 35.3c-6.3-8.8-13-17-20.2-24.6l7.3-39.5h23.3zm6.8 74.5 13.8 2 15.2 2.2c1.2 3.6 2.5 7.2 3.6 10.8l-5.2 7.2-23.2 2.5c-5.9-11.5-12.4-22.4-19.4-32.6l25.2-34.8c3.1 6.5 6 13.2 8.8 19.9l-19.7 11.2zm54.9 187.6h3.1c-.1 6.5-.3 13-.5 19.5l-18.5-3.8c.5-7.6.7-15.3.7-23.1 0-18-1.3-35.7-3.7-52.7l7.6-3.1.8 10.4 11.9 1.7c.5 6.9 1 13.9 1.3 20.9l-11.1 1.2zm-9.2 81.4 5.4.8c-1.4 8.7-3 17.3-4.7 25.8l-17.2-16.8-2.2-2.2c4.4-16 7.7-32.7 9.9-50l19.1 4c-.7 7.5-1.5 15-2.4 22.4l-8.6 4.9zm-15.7 86.6-24.2-23.1c7.6-15.4 14.1-31.9 19.2-49.3l19.8 19.3c-4 18.3-9 36-14.8 53.1zm13.4 5.1 21.7-1.2.3 1.7-27.9 16c2-5.4 4-10.9 5.9-16.5zm-79.6 23.2c-.1.1-.1.1-.2.2l-16.2-50.4c3.2-6.9 6.1-14.1 8.8-21.5l19.1 57.8c-.8 1.1-1.7 2.1-2.5 3.2-.3.4-.6.7-.9 1.1-.5.7-1.1 1.4-1.6 2-.4.4-.7.9-1.1 1.3-.5.6-1 1.2-1.5 1.7-.4.5-.8.9-1.2 1.4-.5.5-.9 1.1-1.4 1.6-.4.7-.9 1.2-1.3 1.6zm4.8 191.9.4 1.9-4.1.5c1.2-.9 2.4-1.6 3.7-2.4zm-176 15.1 28.9-140.8c7 1 14.2 1.6 21.4 1.6 1.2 0 2.5 0 3.7-.1l10.2 66.7-10.1 57c-17.5 7.3-35.6 12.6-54.1 15.6zm21.9 22.8-30.2 17.3 4-19.3c2-.3 4-.7 6-1.1 6.6 1.4 13.4 2.4 20.2 3.1zm14.7-173.1c-.1 0-.1 0 0 0-.7-.1-1.5-.2-2.2-.3-.9-.1-1.7-.3-2.6-.4-.3 0-.6-.1-.9-.1l12.2-59.3 8.5 55.5c-5 1.9-10 3.4-15 4.6zm15.7.3.1.8c-.6 0-1.3 0-1.9 0 .6-.3 1.2-.6 1.8-.8zm3.4 159 1.2-6.6c5.9-2.6 11.6-5.4 17.3-8.4l2 13.1c-6.7 1.1-13.6 1.7-20.5 1.9zm2.7.2c-.9 0-1.8 0-2.7 0zm2.2-27.8 6.3-35.5 4.6 30.2c-3.6 1.9-7.2 3.6-10.9 5.3zm-10.3 23.8-.7 3.7c-2.6-.1-5.1-.3-7.7-.5 2.9-.9 5.6-2 8.4-3.2zm4.1 18.8c1.7-.1 3.5-.1 5.2-.2 6.3-.4 12.6-1 18.8-1.9l3.4 22.1-34.7-19.8c2.5 0 4.9-.1 7.3-.2zm7.5-320.4 9.7-15 22 72.5-7.4 41.6zm127.8-299c1.2 1.8 2.4 3.6 3.6 5.4 1.1 1.7 2.2 3.4 3.2 5.1.1.2.3.4.4.7.9 1.5 1.8 3 2.7 4.5.2.4.4.7.6 1.1.8 1.4 1.6 2.8 2.4 4.2.3.5.5.9.8 1.4.7 1.3 1.4 2.6 2.2 4 .3.5.6 1.1.9 1.6.7 1.3 1.3 2.6 2 3.9.3.6.6 1.2.9 1.8.6 1.3 1.2 2.6 1.9 3.9.3.6.6 1.2.9 1.9s.6 1.4 1 2.1l3.2 10.8-43.3 59.5c-4.8-19.6-11.2-38.3-18.9-55.6l1.7-9.4zm-32.6 39.9 12.1-65.5c6.6 7.1 12.8 14.8 18.7 23.1zm83.3 102.9v.3c.2 1.7.4 3.4.5 5.1 0 .2 0 .4.1.7.1 1.6.3 3.2.4 4.8 0 .4.1.8.1 1.1.1 1.5.2 3 .3 4.5 0 .6.1 1.1.1 1.7.1 1.3.2 2.7.2 4 0 .8.1 1.5.1 2.3 0 1.2.1 2.3.1 3.5 0 1.1.1 2.2.1 3.2 0 .9 0 1.7.1 2.6 0 2 .1 4 .1 6 0 8.2-.3 16.4-.8 24.4l-58.4-11.9c-.1-5.3-.2-10.6-.5-15.9-.4-7.1-1-14.2-1.8-21.2l58.2-24.2c.2 1.2.3 2.4.5 3.6.2 1.8.4 3.6.6 5.4zm-80.6 143.3-9.2-27.8c.9-1.2 1.7-2.4 2.5-3.7.8-1.3 1.6-2.5 2.4-3.8 0 0 0 0 0-.1.8-1.3 1.5-2.6 2.2-4v-.1c.7-1.3 1.4-2.7 2.1-4.1v-.1c.7-1.4 1.3-2.8 1.9-4.3v-.1c.6-1.5 1.2-2.9 1.8-4.4 0 0 0 0 0-.1 1.2-3.1 2.2-6.2 3.2-9.4l12.2 11.9c-2 20.3-5.7 39.9-10.9 58.3zm7.3 12.5c-.5 1.7-1 3.3-1.5 4.9l-3.1-9.3zm-55.4-10.5 19.2 87.4c-6.2 8.9-12.9 17.2-20 24.7l-12-39.7zm-16.7 59.7-19.9-65.6c3.4 1.7 7 3.1 10.6 4h.2c1 .3 2 .5 3.1.7.1 0 .2 0 .4.1 1 .2 2 .4 3 .5.1 0 .3 0 .4.1l3 .3h.3c1.1.1 2.1.1 3.2.1.8 0 1.5 0 2.3-.1h.7.1.3c.5 0 .9-.1 1.4-.1.2 0 .4 0 .6-.1.3 0 .7-.1 1-.1l-.6 3.2zm36.7 31.2 8.3 37.6c-.2.1-.4.3-.6.4-.3.2-.6.4-.9.7-.7.5-1.4 1-2.1 1.5-.3.2-.6.4-.9.6-.7.5-1.5 1-2.2 1.5-.3.2-.6.4-.8.5-.8.5-1.5 1-2.3 1.4-.3.2-.5.3-.8.5-.8.5-1.6 1-2.4 1.4-.3.1-.5.3-.8.4-.8.5-1.6.9-2.4 1.4-.2.1-.5.3-.7.4-.8.5-1.7.9-2.5 1.4-.2.1-.4.2-.7.4 0 0-.1 0-.1.1l-7.8-25.7c7-7.5 13.6-15.7 19.7-24.5zm10.1 46 16.7 76.1c-4.2 4.8-8.4 9.5-12.8 14l-23.6-77.8c6.8-3.5 13.4-7.7 19.7-12.3zm-7.2-149.8c.6-.5 1.2-1 1.8-1.5.1-.1.2-.2.3-.3.6-.5 1.1-.9 1.7-1.4.1-.1.2-.1.2-.2l.2-.2 14.4 13.7 9.1 27.7c-2.6 7.5-5.5 14.7-8.7 21.7zm7.2-6.3c.2-.2.4-.4.6-.6.1-.1.2-.2.4-.4.5-.5 1-1.1 1.5-1.6.1-.1.2-.2.2-.3.6-.7 1.2-1.3 1.8-2l4.4 13.2zm28-55.5c1.2-5.6 2-11.5 2.5-17.5l8.7 1.8c0 6.1-.1 12.1-.3 18.1zm10.8 4.3c-.2 3.5-.4 7-.7 10.5l-8.9-8.7-2.2-2.1c.2-.7.3-1.4.5-2.1zm-8.1-24.8c.1-1.5.2-3 .2-4.6 0-.1 0-.2 0-.3 0-1.5.1-3 .1-4.5 0 0 0 0 0-.1 0-1.8 0-3.6-.1-5.4v-.1c-.1-1.8-.2-3.5-.3-5.3 0 0 0 0 0-.1-.1-1.8-.3-3.5-.5-5.3-.2-1.8-.4-3.5-.7-5.2l1.4-.6 6-2.5c.8 6.9 1.3 13.8 1.7 20.8.3 5 .4 9.9.5 14.8zm-1.7-33.9c-.4-2.5-.9-5-1.5-7.4-.5-2.4-1.2-4.8-1.8-7.2-.7-2.3-1.4-4.6-2.2-6.9-.1-.3-.2-.5-.3-.7l9.8-3.8c1.4 7.5 2.6 15.2 3.5 23zm-6.4-24.2c-.5-1.4-1-2.7-1.6-4l9-12.4c.9 4.1 1.8 8.3 2.6 12.5zm17.1 103.3 46.7 45.4c-.1.3-.2.5-.3.8-5.2 17.1-11.6 33.4-19.2 48.4l-38.4-36.6c5.3-18.4 9-37.8 11.2-58zm.7-7.7c.3-4 .6-8.1.8-12.2l56.5 11.9c-.3 2.4-.6 4.8-1 7.2v.1c-.4 2.7-.8 5.3-1.3 7.9 0 .3-.1.5-.1.8-.4 2.4-.9 4.8-1.4 7.2-.1.6-.3 1.2-.4 1.8-.4 2-.8 4.1-1.3 6.1-.3 1.2-.6 2.3-.8 3.5-.3 1.5-.7 2.9-1 4.4-.7 2.6-1.3 5.2-2.1 7.8zm.9-14.2c.3-6 .4-12 .4-18.1l58.1 11.8c-.1.9-.2 1.7-.2 2.5-.4 5.3-1 10.5-1.6 15.7zm-2.3-61.3c-.9-7.8-2.1-15.4-3.5-23l57.9-22.5c.1.6.2 1.1.4 1.7.2.8.3 1.6.5 2.5.2.8.3 1.6.5 2.4.2.9.3 1.8.5 2.7.1.7.3 1.4.4 2.2.2 1 .4 2.1.5 3.1.1.6.2 1.2.3 1.8.3 1.6.5 3.3.8 5zm-3.9-25c-.9-4.8-1.9-9.6-3-14.3l43.4-59.8 1.2 4.1h2.3c.2.6.4 1.1.6 1.7.1.2.1.3.2.5.4 1.2.9 2.4 1.3 3.6.1.3.2.6.3.8.4 1.1.8 2.3 1.2 3.4.1.4.2.7.4 1.1.4 1.1.7 2.2 1.1 3.2.1.4.3.8.4 1.3.3 1 .7 2.1 1 3.1.1.5.3 1 .4 1.4.3 1 .6 2 .9 3 .2.5.3 1.1.5 1.6.3 1 .6 1.9.8 2.9.2.6.3 1.2.5 1.7.3.9.5 1.9.8 2.8.2.6.3 1.3.5 1.9.2.9.5 1.8.7 2.8.2.7.3 1.3.5 2 .2.9.4 1.8.6 2.7.2.7.3 1.4.5 2.1.2.9.4 1.7.6 2.6.1.4.2.7.2 1.1zm-6-15.4-9.1 12.6-.4.5c-.5-1.2-1.1-2.3-1.6-3.5 0-.1-.1-.1-.1-.2-1.7-3.5-3.5-6.8-5.5-9.9 0 0 0-.1-.1-.1-.7-1-1.3-2.1-2-3.1-2.1-3.1-4.3-5.9-6.6-8.6l7.6-41.3c7.3 16.8 13.3 34.7 17.8 53.6zm-29.6-16.8c-1.5-1.5-3-2.8-4.5-4.1-1.5-1.3-3.1-2.5-4.7-3.6-1.6-1.1-3.2-2.2-4.9-3.1 0 0 0 0-.1 0 0 0-.1-.1-.1-.1l22-30.4zm-17-12.6c-.8-.4-1.5-.8-2.3-1.1 0 0 0 0-.1 0-1.7-.8-3.5-1.5-5.2-2.1 0 0 0 0-.1 0-1.8-.6-3.6-1.1-5.4-1.5-1.8-.4-3.7-.7-5.6-1-1.9-.2-3.8-.3-5.7-.4l-20-61.7 10-46.6c23.3 20.5 43.5 48 58.9 80.5zm-46.3-73.5-20.7-63.7c10.4 5.6 20.5 12.5 30 20.6zm16.7 67.6c-3.8.3-7.5 1.1-11.2 2.2-1.8.6-3.6 1.2-5.3 2-1.7.7-3.5 1.6-5.1 2.5 0 0 0 0-.1 0-.3.2-.6.3-.9.5-.8.5-1.6 1-2.4 1.5 0 0-.1 0-.1.1-.5.3-1 .7-1.5 1 0 0-.1 0-.1.1-.3.2-.5.4-.8.6 0 0-.1 0-.1.1-.5.4-1 .7-1.5 1.1 0 0 0 0-.1 0-.3.2-.5.4-.8.6-.3.2-.6.5-1 .8l14-65zm-29.3 197c.9.7 1.8 1.3 2.7 1.9l-.7 1.1-3.9 6zm32 93 10.4 34.2c-5.3 5.4-10.9 10.3-16.7 14.8l-1.4-5.7zm11.4 37.6 7.4 24.3c-.7.3-1.4.7-2.1 1-.2.1-.4.2-.6.3-.9.4-1.8.8-2.7 1.3-.2.1-.3.1-.5.2-.9.4-1.9.8-2.8 1.2-.1.1-.3.1-.5.2-1 .4-1.9.8-2.9 1.2-.1.1-.3.1-.4.1-1 .4-2 .8-3 1.1-.1 0-.2.1-.3.1-1 .4-2 .7-3.1 1.1-.1 0-.2.1-.2.1-.3.1-.6.2-.9.3l-4.2-17.2c5.8-4.8 11.4-9.8 16.8-15.3zm9.8 32.5 24 79.1c-7.1 7.2-14.5 13.9-22.1 20.2l-22.2-90.7c6.9-2.3 13.7-5.2 20.3-8.6zm43 81.4 1.2-.1 3.6 16.4-20.6 11.8.9 11.4 24 3.5c-12.4 8.8-25.3 16.3-38.6 22.4l-7.4-30.3c12.9-10.6 25.3-22.3 36.9-35.1zm5.3-213.3c.8-2.3 1.5-4.6 2.2-7l37.8 36c-5.8 11.1-12.1 21.5-19 31.2-.2.3-.5.7-.7 1zm44.4 33.4 24.6 23.5c-8.1 23.1-17.7 45-28.7 65.4l-17.6-53.3c8-11 15.2-22.9 21.7-35.6zm33.2-111.6c.7-6 1.3-12.1 1.7-18.3l18.5 3.8c-.3 6.2-.7 12.4-1.2 18.6zm-1.6-100.2c-1.1-7.2-2.4-14.2-3.9-21.1l19.9-7.7c1.1 7 2 14 2.8 21.1zm-4.3-23.1c-3.5-16-8.1-31.3-13.6-45.9h26.1c2.9 12.5 5.4 25.2 7.5 38.1zm.2-79.6 2.3-3.2c.3 1 .6 1.9.9 2.9zm16.6-1.8c-1.4-4.6-2.9-9.2-4.4-13.7l4.8.7.1 13zm-17.9-49.2c-2.1-5-4.3-9.9-6.6-14.8l23.9 1.1.7 3.4zm-71.1-80.9.4-13.1.6-.1c3.8 4.7 7.5 9.6 11 14.5zm-1.5 75.5-.2.8-14.3 77.5c-15.6-32.7-36-60.6-59.6-81.6l8.6-39.7c23.9 8.4 46.1 23.2 65.5 43zm-76.7-5.5c-10.4-9-21.4-16.6-32.9-22.7l-7.3-22.6c1.7-.1 3.3-.1 5-.1 15 0 29.6 2.4 43.5 7zm-39.2-26c-12.5-6-25.6-10.3-38.9-12.7 10.6-3.4 21.5-5.6 32.7-6.4l1 3.1zm-19.8 148.8c-4.6.9-9.1 2.3-13.4 4.3l-7.7-25.6zm-2.2 192.1.9 5.7-42.9 122.6-9.8 15.3c-1.4-.8-2.7-1.7-4-2.6-.4-.3-.9-.6-1.3-.9-.9-.6-1.8-1.2-2.7-1.9-.5-.4-1-.7-1.5-1.1-.8-.6-1.6-1.2-2.5-1.8-.5-.4-1-.8-1.5-1.2-.7-.6-1.4-1.1-2.2-1.7l52.1-138.6c4.8 3 10 5 15.4 6.2zm-51.9 156.4-3 8.7c-1-.3-2.1-.6-3.1-.9l5.3-8.3c.3.2.6.4.8.5zm-5.9-3.5-.8 1.2-5.3 8.3c-4.4-1.5-8.7-3.2-12.9-5.1l5.2-13.9c4.5 3.4 9.1 6.6 13.8 9.5zm-10.9 17-30.9 48.2 19.6-52.2c3.7 1.4 7.5 2.8 11.3 4zm-33.7-72.8c-.4-.5-.8-1-1.2-1.6l6.3-8.5zm262.8 356.2v60.4h-227.9l28.6-139.3 8.1 1.2 34.6 5 .1 13-46.3 5 8.9 30.5h37.5 3.2 1.8 35.9l10.7-30.5-45.6-5.1.4-13.1 34.5-5.5-3.2.2 13.8-2.3.8-3 21.9 143.9h18.6 59l-23.6-96.4h28.2zm0-63.2-30 13.2v6.5l-21.5-87.7c5.3-2.2 10.5-4.6 15.7-7.2l6.3 21.5h25.9l3.6 16.4zm-13.9-273.1c4.1-4.5 8-9.2 11.8-14.1l18.1 54.7c-3.5 6.3-7.1 12.4-10.9 18.3zm26.4 82.3-1.7-5.2c3.9-5.8 7.6-11.8 11.2-17.9l5.7 17.2c-5.5 2.2-10.6 4.2-15.2 5.9zm37.7-22.4h15.2c-11.5 5.5-22.3 10.3-32.1 14.3l-7.2-21.8c8-14 15.4-28.8 22.1-44.1l37.5 5.4.1 12.3-44.1 4.8zm42.8-33.8-1.3-.1.4-12.5 6.9-1.1c-2 4.6-4 9.2-6 13.7zm17.6-45.4-20.2-11.6.3-1.7 24.5-1.4c-1.4 4.9-3 9.8-4.6 14.7zm5.9-18.8-24.9 1.4.4-2.2-8 .8.4 1.8-19.5 1.1c4-12.2 7.6-24.6 10.8-37.4l.8 2.6h8.5l31.9 31.1c-.3.3-.4.5-.4.8zm-6.5-129.8.3 1.6-20.1 2.3c.4-4.9.7-9.8.9-14.8l46.5 9.4-19.9 2.2.3-1.6zm1.5 7.5-22.8 13.1c.5-4.9 1-9.8 1.4-14.7l20.7-2.3zm-21.3-92.9 20.2 2.9.1 12.3-19.2 2.1c-.3-5.7-.6-11.5-1.1-17.3zm-2.9-28.2c-.7-5.2-1.4-10.3-2.2-15.4l24.5-.6.6 2.9zm24.5 165.3.1 12.3-30.1 3.3c1.2-6.4 2.4-12.9 3.4-19.5zm6.7 70.7-25.2-24.5h18.6 3.1 1.7 7.9c-1.8 8.3-3.9 16.5-6.1 24.5zm12.4-56.9-13.1-1.5.4-12.5 15.2-2.4c-.8 5.5-1.6 11-2.5 16.4zm5.6-46.9-20-11.4.8-4.4 20.3-2.3c-.2 6.1-.6 12.1-1.1 18.1zm1.4-23.1-46.6-9.5c.3-7.4.5-14.8.6-22.3h18.7 3.1 1.7 23c.1 10.7 0 21.3-.5 31.8zm-22.7-122.5.5-2.8 13.7-.3-11.4 4.7zm22 59.2-20.8-2.3.4-12.5 19.1-3c.5 5.8 1 11.8 1.3 17.8zm-5.1-49.5-10.8-6.2 9.3-3.9c.5 3.4 1 6.7 1.5 10.1zm-2.3-14.8-13.7.3.6-3.2-8 .8.5 2.6-24.4.6c-2-12.7-4.5-25.2-7.3-37.4h32l7.4-21.1c5.2 18.6 9.5 37.7 12.9 57.4zm-15.8-67.5-39.3-4.4.4-13.1 31.6-5c2.5 7.3 5 14.8 7.3 22.5zm-7.5-22.8h-.1zm-11-28.6-6.1-3.5 2.9-3.9c1.1 2.4 2.1 4.9 3.2 7.4zm-4.6-10.6-4.1 5.6-13.5-7.7.5-2.8 15.1.7c.7 1.4 1.4 2.8 2 4.2zm-64-102.1c6.6 7.6 13 15.7 19.1 24.2 15.9 21.9 29.9 45.9 42 71.6l-13.8-.6.7-3.7-8.4.9.5 2.4-24.5-1.1c-7.1-15.1-15-29.6-23.4-43.4l5.5-15.6-16.8-1.9c-3.1-4.5-6.2-8.9-9.4-13.2l1.2-6.3 14.3-2.3-3.2.2 13.8-2.3zm-20.7-22c5.9 5.7 11.7 11.8 17.4 18.1l-18.7-10.7zm-4.4-4.1-1.6 8.9-22.5-12.8.6-3.2 15.7.1c2.6 2.3 5.2 4.6 7.8 7zm-10.1-9-13-.1.6-3.3-8.4.9.5 2.3-22.8-.1c-27.5-24.6-57.9-43.8-90.5-56.4 47.2 2.6 92.9 22.2 133.6 56.7zm-134.3-57c-.1 0-.1 0 0 0-.1 0 0 0 0 0zm-41 4.3c40.9 7.2 79.3 25.8 113.4 53.3l-19.6 91.1c-15.2-5.2-31-7.9-47.3-7.9-1 0-2 0-3.1.1-.3 0-.7 0-1 0l-28.2-86.8 1-.2 3.7-14.2-11.4-6.5-9.3-28.5c.5-.1 1.2-.2 1.8-.4zm-6.8 1.6 7.7 23.7-29.6-16.9c7.3-2.7 14.6-5 21.9-6.8zm-38.2 58.1 46-7.3-4.2.3 12.4-2.1 28 86.2c-15.6 1-30.8 4.5-45.3 10.3-5.7-.4-11.4-.5-17.2-.1-4.3.2-8.6.7-12.9 1.3l-7.2-23.7h46.2l14.3-40.6-60.6-6.8zm7.8 102.4c-5 3.2-9.8 6.7-14.5 10.5.1-4.3.2-8.5.2-12.7 4.2-1.3 8.4-2.4 12.6-3.3zm-12.1-37.6h.8l7.3 24.2c-3.4.6-6.8 1.3-10.2 2.2 0-8.9-.1-17.7-.3-26.3h2.4zm14.3 44.9 29.8 98.7-48.9-49.2c.9-12.3 1.5-24.3 2-36.1 5.5-4.9 11.2-9.3 17.1-13.4zm-18.9-109.4.1 17.2-.7.1c-.5-6-1.2-11.9-1.8-17.7zm-.9 169.5 54.6 55 9.5 31.5c-10.2 5.5-19.3 14.1-26.6 25l-45-44.4c3.2-23.1 5.7-45.5 7.5-67.1zm-8-231.5c-1.2.5-2.4 1-3.6 1.6-.1-.4-.2-.8-.3-1.1 1.3-.3 2.6-.4 3.9-.5zm-.4 304.8 43.1 42.5c-4.4 7.5-8.1 15.9-10.7 25l-42.1-8.7c3.8-20 7-39.7 9.7-58.8zm-12.5 73.5c.4-2.3.9-4.5 1.3-6.8l41.6 8.6c-.9 4-1.6 8.2-2.1 12.4l-41.8-9.2c.3-1.6.7-3.3 1-5zm-2 9.9 42.3 9.3c-.3 3.6-.5 7.3-.5 11 0 10.3 1.2 20.3 3.3 29.6l-63.2 25.6c6.7-23.7 12.7-48.9 18.1-75.5zm-19.7 81.7 66.1-26.8c2.6 9.2 6.1 17.8 10.5 25.4l-88.5 40.8c4.2-12.6 8.1-25.8 11.9-39.4zm-14.4 47.3 94.2-43.5c.6 1 1.3 1.9 2 2.9 0-.1-.1-.1-.1-.1l-39.3 77.5-29.7 40.1c-.1-.1-.2-.2-.3-.4-.2-.2-.4-.5-.5-.7-1-1.4-2-2.9-3-4.4-11.2-16.5-20.9-35-28.8-55 1.8-5.4 3.7-10.9 5.5-16.4zm-11 31.4c1 2.4 2.1 4.7 3.2 7 .1.1.1.3.2.4.6 1.2 1.1 2.4 1.7 3.6.1.3.3.6.4.9.6 1.1 1.1 2.3 1.7 3.4.2.3.3.6.5.9.6 1.1 1.2 2.3 1.8 3.4.1.1.1.2.2.4 1.9 3.6 3.8 7.1 5.8 10.6.3.5.6 1 .8 1.4.5.9 1 1.7 1.5 2.6.3.6.7 1.1 1 1.7.5.8 1 1.6 1.5 2.4.4.6.7 1.2 1.1 1.7.5.8 1 1.6 1.5 2.3.4.6.7 1.1 1.1 1.7 2.3 3.5 4.7 6.9 7.1 10.2l-15.2 20.5c-11.1-11.3-21.4-24.2-30.6-38.5 5.1-11.6 9.9-23.9 14.7-36.6zm-20.4 50.1c9.1 12.7 19 24.2 29.6 34.3l-44.4 59.9c-6.2-9.6-12-19.6-17.5-30 11.2-19.6 22-40.9 32.3-64.2zm-6.9-405.2c0 3.3-.1 6.6-.2 9.9v.3c0 1.9-.1 3.9-.2 5.8l-2.4-.3-30.3-29.9 23.8-3.8-4.6.3 13.8-2.3c.2 6.7.2 13.4.1 20zm-3.2-80.5c.3 2.9.5 5.8.8 8.8l-4-4.1c1.1-1.6 2.2-3.2 3.2-4.7zm1.7 21c.4 5.5.6 11.1.9 16.7l-19.6-11.2c2.9-4.9 5.8-9.8 8.9-14.5.1-.2.2-.4.4-.5zm-14.6-96.5c2.7 10.3 5 21.1 7 32.1-10.9 11.8-21.3 24.6-30.9 38.4h-20.8l.9-4.8-12.3 1.3.7 3.5h-20.9c22.5-28.6 48.2-52.4 76.3-70.5zm-6.9-23.6c-.1 0-.2.1-.3.1.1 0 .2 0 .3-.1zm-103.8-119.7c1.7.6 3.3 1.1 4.9 1.8 2.4.9 4.7 1.9 7 2.9.7.3 1.4.6 2.1 1 .8.4 1.5.7 2.3 1.1.7.4 1.5.7 2.2 1.1.8.4 1.5.8 2.2 1.2s1.4.7 2.1 1.1 1.5.8 2.2 1.3c.7.4 1.4.8 2.1 1.2s1.4.9 2.1 1.3 1.4.9 2 1.3c.7.5 1.4.9 2.1 1.4s1.3.9 2 1.4 1.3 1 2 1.5 1.3 1 2 1.5 1.3 1 2 1.5c.6.5 1.3 1 1.9 1.5s1.3 1.1 1.9 1.6 1.2 1.1 1.9 1.6c.6.5 1.2 1.1 1.8 1.7s1.2 1.1 1.8 1.7 1.2 1.1 1.8 1.7 1.2 1.2 1.8 1.7c.6.6 1.2 1.2 1.7 1.8.6.6 1.2 1.2 1.7 1.8.6.6 1.1 1.2 1.7 1.8s1.1 1.3 1.7 1.9 1.1 1.3 1.6 1.9c.6.6 1.1 1.3 1.6 2 .5.6 1.1 1.3 1.6 2s1.1 1.4 1.6 2c.5.7 1 1.3 1.5 2s1 1.4 1.6 2.1c.5.7 1 1.4 1.5 2.1s1 1.4 1.5 2.2c.5.7 1 1.4 1.4 2.1.5.7 1 1.5 1.5 2.3.5.7.9 1.4 1.4 2.2s1 1.5 1.4 2.3c.5.7.9 1.5 1.3 2.2.5.8.9 1.6 1.4 2.4.4.7.9 1.5 1.3 2.3.5.8.9 1.6 1.4 2.5.4.8.8 1.5 1.2 2.3s.9 1.7 1.3 2.6c.4.8.8 1.5 1.2 2.3.4.9.9 1.8 1.3 2.6s.8 1.6 1.1 2.3c.4.9.8 1.8 1.3 2.7.4.8.7 1.6 1.1 2.4.4.9.8 1.9 1.2 2.8.3.8.7 1.6 1 2.4.4 1 .8 2 1.2 2.9.3.8.7 1.6 1 2.4.4 1 .8 2.1 1.2 3.1.3.8.6 1.5.9 2.3.4 1.1.8 2.2 1.2 3.3.3.7.5 1.5.8 2.2.2.6.4 1.2.6 1.8-13.6 6.9-26.8 15-39.5 24.2l-64.8 22.2-5.1 1.7zm-7.2 175 46.9-16.1c-17.3 15.1-33.5 32.3-48.3 51.2zm-.8 105.4 14.6 2.1 38.7 5.6c-3.3 7.5-6.4 15.2-9.4 23l-46.3 5 13.1 44.7h17.2c-6.2 23.2-10.9 47.3-14.1 72.2l-16.7-1.3 1.3-6.9-8 .8 5.7-137.4c1.3-2.6 2.6-5.2 3.9-7.8zm-156.9-261c31.4-18.2 68.1-27.9 110.7-27.5 2.3 0 4.6.1 7 .2h.8c2.3.1 4.6.2 6.9.3 10.4.6 20.3 2.2 29.6 4.6l-7.1 170.7-151.1 51.9-5.1 1.7zm147.5 159-1.9 45.9c-50.3 70.6-82.7 163.2-87.8 265.5l-77.9 16.6 11.3-274.3zm-157.7-152.6-.1 3.6-8.1 195.5-120.6 41.4c21.1-111.1 62.3-196.2 128.8-240.5zm-158.2 501.8c6.6-41.9 11.2-86 13.8-131.4 2.5-41.9 6.8-81.7 13.4-118.7l122.3-42-11.3 273-138.3 29.4zm-.3 20.6 138.1-29.4v1.1l-1.6 38-2.1 50.5c-22.7-2.3-38.7-15.6-44.6-21.3v-2.6c0-1.4-1.1-2.5-2.5-2.5s-2.5 1.1-2.5 2.5c0-1.4-1.1-2.5-2.5-2.5s-2.5 1.1-2.5 2.5v118.6c-.9 1.7-1.7 3.4-2.6 5.1-.3.6-.6 1.1-.9 1.7-.6 1.1-1.1 2.2-1.7 3.3-.4.7-.7 1.3-1.1 2-.5 1-1 1.9-1.6 2.9-.4.7-.7 1.4-1.1 2.1-.5.9-1 1.8-1.5 2.7-.4.7-.8 1.4-1.2 2.1-.5.9-1 1.7-1.4 2.6-.4.7-.8 1.4-1.2 2.1-.5.8-1 1.7-1.4 2.5-.4.7-.8 1.4-1.2 2.1-.5.8-.9 1.6-1.4 2.4-.4.7-.8 1.4-1.2 2.1-.5.8-.9 1.6-1.4 2.4-.4.7-.8 1.4-1.2 2-.5.8-.9 1.5-1.4 2.3-.4.7-.8 1.3-1.2 2-.5.8-.9 1.5-1.4 2.3-.4.7-.8 1.3-1.2 2-.5.7-.9 1.5-1.4 2.2-.4.6-.8 1.3-1.2 1.9-.5.7-.9 1.5-1.4 2.2-.4.6-.8 1.2-1.2 1.8-.5.7-1 1.5-1.5 2.2-.4.6-.8 1.2-1.2 1.7-.5.8-1 1.5-1.6 2.3-.4.5-.7 1.1-1.1 1.6-.8 1.2-1.7 2.5-2.5 3.7-.4.6-.8 1.1-1.2 1.7-.5.7-1 1.4-1.4 2s-.8 1.2-1.3 1.8c-.4.6-.9 1.2-1.3 1.9-.4.6-.9 1.2-1.3 1.8s-.9 1.2-1.3 1.8-.9 1.2-1.3 1.8-.8 1.1-1.2 1.7-.9 1.2-1.3 1.8c-.4.5-.8 1.1-1.2 1.6-.4.6-.9 1.2-1.3 1.8-.4.5-.8 1-1.2 1.5-.5.6-.9 1.2-1.4 1.7-.4.5-.8 1-1.2 1.5-.5.6-.9 1.1-1.4 1.7-.4.5-.8 1-1.2 1.4-.5.6-.9 1.1-1.4 1.7-.4.5-.8.9-1.1 1.4-.5.6-.9 1.1-1.4 1.7-.4.4-.7.9-1.1 1.3-.5.6-.9 1.1-1.4 1.7-.4.4-.7.8-1.1 1.2-.5.6-1 1.1-1.4 1.7-.3.4-.7.8-1 1.1-.5.6-1 1.1-1.5 1.7-.3.3-.6.6-.9 1-.5.6-1.1 1.2-1.6 1.8 0 .1-.1.1-.1.2-1.5 1.7-3 3.3-4.5 4.9-1.7 1.9-3.4 3.7-5.1 5.4zm-130.1 291.6c55.6-49 95.4-140 119.4-252.5l-.4 23.7-3.7 224.3c-38.3 36.2-66.3 45.2-66.3 45.2l2.8 10.5-53.9-.3zm-156.4 28.8c1.7.7 3.4 1.3 5.1 1.9.1 0 .2.1.3.1 1.7.6 3.4 1.1 5.1 1.7.1 0 .2.1.3.1 3.6 1.1 7.2 2 10.9 2.9h.1c1.8.4 3.6.8 5.4 1.1.2 0 .4.1.6.1 1.7.3 3.5.6 5.2.9.3 0 .6.1.8.1 1.8.3 3.5.5 5.3.7.2 0 .5.1.7.1 1.9.2 3.8.4 5.7.6 1.2.1 2.4.2 3.7.3h.4c1.1.1 2.2.1 3.3.1h.1c2.4.1 4.8.1 7.2 0 31.6.5 60.2-9.1 85.7-27.1l-1.6 38.6-147.9-.8-1.5-23.4c1.6.6 3.3 1.3 5.1 2zm-262.7-25.4-25.1-6zm0-55.1c-.8-.7-1.7-1.3-2.5-2h2.5zm0-12h-14.3c-22.6-20-43-43.7-57.7-71.4l-2.1-1.5c-.7-2.6-1.3-5.1-2-7.7l-.2-4.1c5.4-.5 9.6-5 9.6-10.5 0-5.9-4.7-10.6-10.6-10.6-1.6 0-3.1.4-4.5 1-9.7-45-14.8-88.5-15.7-129.3l97.4 7c.1 63.8.1 142.9.1 227.1zm59.3 50.9c-.3-.1-.5-.3-.8-.4-1.4-.8-2.9-1.6-4.3-2.4-.7-.4-1.4-.8-2.1-1.2-1.3-.7-2.6-1.5-3.9-2.2-.5-.3-1-.6-1.4-.8-7.6-4.5-15.3-9.3-23-14.5-.1 0-.2 0-.2-.1-4.9-3.3-9.9-6.8-14.8-10.5v-8.8h110.7l7.7 71.7c-14.6-5.4-34.7-13.6-57-25h.1c-3.6-1.9-7.3-3.8-11-5.8zm-50.5-50.9v-16.1-75.6s-.2-66.9-.3-134.8l86.2 6.2 23.7 220.4h-109.6zm0 69.2 120.2 28.8zm173.1-59.2c15.5 34.6 37.1 59.9 65.3 75.3l1.8 28.4-51.7-.3-53 33.3-5-46.2 7.1 1.7h.1l4.4-12.6s-4.9-1.4-13.2-4.2l-8.1-75.4zm-4.2-10h-49.2l-23.6-219.7 47.7 3.4c-3.6 91 4.3 163.5 25.1 216.3zm-97.4-495c35.5 13.4 55.8 47.9 66.1 95.3v.1c.3 1.4.6 2.7.9 4.1 0 .1 0 .2.1.3.3 1.3.5 2.7.8 4 0 .2.1.3.1.5.2 1.3.5 2.6.7 3.9 0 .2.1.4.1.6.2 1.3.4 2.6.6 3.9 0 .2.1.5.1.7.2 1.3.4 2.5.6 3.8 0 .3.1.6.1.9.2 1.2.4 2.5.5 3.8 0 .3.1.7.1 1 .2 1.2.3 2.5.5 3.7 0 .4.1.7.1 1.1.1 1.2.3 2.4.4 3.7 0 .4.1.8.1 1.2.1 1.2.3 2.4.4 3.6 0 .4.1.9.1 1.3.1 1.2.2 2.4.3 3.6 0 .5.1 1 .1 1.4.1 1.2.2 2.4.3 3.6 0 .5.1 1 .1 1.5.1 1.2.2 2.4.3 3.5 0 .5.1 1.1.1 1.6.1 1.2.2 2.3.2 3.5 0 .6.1 1.1.1 1.7.1 1.2.1 2.3.2 3.5 0 .6.1 1.2.1 1.8.1 1.1.1 2.3.2 3.4 0 .6.1 1.2.1 1.9 0 1.1.1 2.3.1 3.4 0 .6 0 1.3.1 2 0 1.1.1 2.2.1 3.4v2c0 1.1.1 2.2.1 3.3v2.1 3.3 2.2 3.3 2.3 3.2 2.4 3.2 2.5 3.1 2.6c0 1 0 2-.1 3.1 0 .9 0 1.8-.1 2.7 0 1 0 2-.1 3 0 .9-.1 1.9-.1 2.8 0 1-.1 2-.1 3s-.1 2-.1 2.9c0 1-.1 1.9-.1 2.9s-.1 2.1-.1 3.1c0 .9-.1 1.8-.1 2.7 0 1.1-.1 2.3-.2 3.4 0 .8-.1 1.6-.1 2.5-.1 1.3-.1 2.6-.2 3.9 0 .7-.1 1.3-.1 2-.1 2-.2 4-.3 5.9-.1 2-.2 3.9-.3 5.9s-.2 4.1-.3 6.1l-49.2-3.5-28.7-267c2 .6 3.7 1.2 5.4 1.8zm-23.4-5.4c1.1.1 2.3.2 3.4.4h.3c1.4.2 2.8.4 4.2.7l28.9 268.4v.4l-85.2-6.1c-.1-42.6-.1-84.2-.1-108.6-.1-39.8 13.5-99.4 48.5-155.2zm-34.4.9c8.5-1.2 16.5-1.8 24-1.6h.1c-27.9 44.9-46.6 97.8-46.6 156.3v107.5l-97.5-7c-1-139.7 47-244.6 120-255.2zm-381.3 347.2c.5 1.9 2.4 8.5 6 16.2.4.8.8 1.6 1.2 2.4v.1c.8 1.6 1.7 3.2 2.6 4.9 0 .1.1.2.1.3.5.8.9 1.5 1.4 2.3.1.1.1.2.2.3 1 1.5 2.1 3.1 3.2 4.6.1.1.2.3.3.4.5.7 1.1 1.4 1.7 2.1.1.1.2.3.3.4.6.7 1.2 1.4 1.9 2.1 16.4 17.1 13.6 25.3 13.6 25.3s13.6-11.7 9.7-24.2c-.9-2.9-1.6-5.4-2.1-7.6-.1-.6-.2-1.1-.4-1.7v-.1c-.1-.5-.2-1-.3-1.5 0-.1 0-.1 0-.2-.1-.5-.1-.9-.2-1.4v-.1c-.1-.4-.1-.9-.2-1.3-.4-3.5-.1-5.4 0-6.2 5.4 2.2 10.9 4.5 16.7 6.7.1.9.3 2.8.9 5.5.1.4.2.7.3 1.1v.2c.1.3.2.6.2 1 0 .1.1.2.1.3.1.3.2.6.3.9 0 .1.1.2.1.4.1.4.2.8.4 1.2v.1c.1.4.3.9.4 1.3 0 .1.1.2.1.3.1.3.2.7.4 1 .1.2.1.3.2.5.1.3.3.7.4 1 .1.1.1.3.2.4.2.4.4.9.6 1.3 0 .1 0 .1.1.2.2.5.5 1 .7 1.5.1.1.1.3.2.4.2.3.4.7.6 1.1.1.2.2.3.3.5.2.3.4.7.6 1 .1.2.2.3.3.5.3.5.6.9.9 1.4 0 0 0 .1.1.1.3.5.7 1 1 1.5.1.1.2.3.3.4.3.3.5.7.8 1 .1.2.3.3.4.5.3.3.6.7.8 1 .1.1.3.3.4.4.4.5.8.9 1.3 1.4.4.4.8.8 1.1 1.2.1.1.2.3.3.4.2.3.5.6.7.8.1.1.2.3.4.4.2.3.4.5.6.8.1.1.2.3.3.4.2.3.4.5.6.8.1.1.2.3.3.4.2.3.4.6.6.9.1.1.1.2.2.3.3.4.5.7.8 1.1.5.8 1 1.6 1.5 2.3 4.6 7.5 5.2 12.8 5.2 12.8s4.3-3.9 7.2-8.9.1-.1.1-.1c.1-.2.2-.4.3-.6.1-.1.1-.2.1-.3.1-.2.2-.3.3-.5.1-.1.1-.2.1-.3.1-.2.2-.3.2-.5 0-.1.1-.2.1-.3.1-.2.2-.4.3-.6 0-.1 0-.1.1-.2.1-.3.2-.5.3-.8 0-.1.1-.2.1-.2.1-.2.1-.4.2-.6 0-.1.1-.2.1-.3 0-.2.1-.3.1-.5 0-.1 0-.2.1-.3 0-.2.1-.4.1-.6 0-.1 0-.2 0-.2 0-.3.1-.5.1-.8 0-.1 0-.1 0-.2 0-.2 0-.4 0-.6 0-.1 0-.2 0-.3 0-.2 0-.4 0-.5s0-.2 0-.3c0-.2 0-.4-.1-.5 0-.1 0-.2 0-.3-.1-.3-.1-.5-.2-.8-.1-.5-.3-1-.4-1.5v-.1c-.1-.5-.2-1-.3-1.5-1.1-7.2 1-14 1.5-15.6 6.1 2.1 12.3 4.2 18.6 6.2 0 1.2.4 5 4.4 11.6.7 1.2 1.6 2.5 2.6 3.9.3.5.7.9 1 1.4.4.5.8 1.1 1.2 1.6 3.3 4.2 4.7 8 4.9 11.3.1 1.1.1 2.1 0 3 0 .5-.1.9-.2 1.4-.1.4-.2.9-.3 1.3-.5 2-1.3 3.7-1.8 4.9 0 0 6.3-1.8 11.3-6.3.8-.7 1.5-1.5 2.2-2.3 0 0 0-.1.1-.1.2-.2.4-.5.6-.7.1-.1.1-.1.2-.2.1-.2.3-.4.4-.6.1-.1.1-.2.2-.3.1-.2.2-.4.4-.6.1-.1.1-.2.2-.3.1-.2.2-.4.3-.7 0-.1.1-.2.1-.3.2-.3.3-.7.4-1 .2-.6.5-1.2.7-1.8.1-.2.2-.4.2-.6.2-.4.3-.7.5-1.1.1-.2.2-.5.3-.7.1-.3.3-.6.4-.9s.2-.5.4-.8c.1-.2.2-.5.3-.7.1-.3.3-.6.4-.9.1-.2.2-.4.3-.5.2-.3.3-.6.5-.9.1-.1.1-.2.2-.4.2-.3.3-.7.5-1 0-.1.1-.1.1-.2.2-.4.4-.7.6-1.1 1.3-2.6 2.4-4.4 2.9-5.2 5 1.3 10 2.4 15 3.5-.1.7-.3 2.1.1 4.3v.1c.1.3.1.6.2 1v.2c.1.3.2.6.3 1 0 .1.1.2.1.3.1.3.2.6.3 1 .1.1.1.3.1.4.1.3.3.7.4 1 .1.2.1.3.2.5.1.3.3.7.5 1 .1.2.2.4.3.6.2.4.4.8.6 1.1.1.2.2.4.3.6.3.6.7 1.2 1.1 1.9.2.4.4.7.6 1.1.1.1.1.2.2.3.1.3.3.6.4.8.1.1.1.2.1.3.1.3.3.6.4.9 0 .1.1.2.1.2.2.4.3.8.4 1.1 3.4 9.2 1.4 19 1.4 19s4.2-1.6 9.3-6.4c0 0 .1-.1.1-.1.4-.3.7-.7 1.1-1.1.1-.1.2-.3.4-.4.3-.3.5-.6.8-.9.4-.4.8-.9 1.2-1.4s.8-1 1.2-1.6c.4-.5.7-1.1 1-1.7.3-.6.6-1.2.9-1.8.3-.6.6-1.3.8-1.9 2.6-6.6 3.5-14.1 3.7-16 4.3.7 8.4 1.4 12.3 2 0 1.4.9 5.7 9.3 12.4 9.2 7.4 2.7 18.8 2.7 18.8s4.8-.6 9.4-3.3c4.2 11.6 8.7 23.1 13.4 34.5-13.8 14-31.6 29.5-53.5 44.4-18.6-8.2-39.9-18.7-61.8-31.6-1.4-.8-2.8-1.6-4.2-2.5-.5-.3-1-.6-1.6-.9-2-1.2-4-2.5-6.1-3.7-.1-.1-.2-.1-.3-.2-2.3-1.4-4.6-2.9-6.8-4.4 0 0 0 0-.1 0-2-1.3-4.1-2.7-6.1-4.1-43.8-29.4-87.1-68.8-114.1-119.7l-4.5-3.3-.4-11.2c3.4 2 10.8 5.6 21.6 10.5zm-2913.3 500.1h-16.9zm5.1-86.6c-9.1 2.4-16.2 5.9-16.2 5.9-1.7-4.6-3.7-7.5-5.9-9.2v-3.1-5.4-5.4-5.4-5.4-5.4-5.4-5.4-5.4-5.4-5.4-5.4-5.4-5.4-5.4-5.4-5.4-5.4-5.4-5.4-5.4-5.4-5.4-5.4-5.4-5.4-5.4-5.4-5.4-5.4-4.5l9.1 4.5 12.9-32.6c.1 64.6.1 131.5.1 195.6zm66.4 6.8c-.2-.1-1.6-1.3-3.5-1.2-2 0-4.5 1.5-6.2 7.3-5.4 2.1-9.9 4.3-13 6-.1 0-.2 0-.3 0-.7 0-1.3.3-1.7 1.2-.5.3-.9.5-1.2.7-.5-.4-1.1-.9-1.8-1.4-2.6-19.5-16.7-22.6-29.9-21.1v-217l3.1-7.8 8.5 6 49.4 218.9c-1.4 1.2-2.5 3.9-3.4 8.4zm-38.2-274.4 55.9-141 3.8 101.9 21.9 35.8zm57.2-144.3 17.3-43.5 7.1 31.1v1.1 2.2 2.2 2.2 2.2 2.2 2.2 2.2 2.2 2.2 2.2 2.2 2.2 2.2 2.2 2.2 2.2 2.2 2.2 2.2.1zm-4.7-304.8-16.4-56.2c12.9-18.7 28.3-36.8 46.6-53.4zm1601.4 163-.8-72.2zm113.6 167.2-4.8 33.9zm101.6 147.6-110.7-38.8zm2.8-211.6-63.7-38.9zm47.8 29.2-15.1-9.2zm40.3 24.7 84.3 51.5zm93.5 222.4-1.1-.4zm90-329.3 10.3 147-19.4-28.8 5.8 44.2-18.6-11.2zm-29.2 201.1 33.6 20.5zm3.5 150.8 19.4 6.8-7.4 37.1 7.3-37.1zm11.6 46.3-9.8 49.6zm-28.7 144.9 16.4-82.8zm5.5 4.6 38.3-193.2 13.8-69.8zm74.1-152.3v4.5 4.5 4.5 4.5 4.5 4.5 4.5 4.5 4.5 4.5 4.5 4.5 4.5 4.5 4.5 4.5 4.5 4.5 4.5 4.5 4.5 4.5 4.5 4.5 4.5 4.5 4.5 4.5 1.6c-10.7-.7-20 2.1-20.1 13.8 0 1.4.1 2.9.3 4.5 0 0-8.4-7.1-16.4-8.8l31.6-161.4 4.6 22.8zm45-239.6 5.3 60.8-11.7-7zm36.4 212.2v3.9 3.9 3.9 3.9 3.9 3.9 3.9 3.9 3.9 3.9 3.9 3.9 3.9 3.9 3.9 3.9 3.9 3.9 3.9 3.9 3.9 3.9 3.9 3.9 3.9 3.9 3.9 3.9 3.9 3.9 3.9 3.9 3.9 3.9 3.9 3.9 3.8c-12.4-3.4-29.9-1.9-48.4 20.4 0 0-9.4-4-20.3-6.7v-3.7-4.5-4.5-4.5-4.5-4.5-4.5-4.5-4.5-4.5-4.5-4.5-4.5-4.5-4.5-4.5-4.5-4.5-4.5-4.5-4.5-4.5-4.5-4.5-4.5-4.5-4.5-4.5-4.5-4.5-4.5-4.5-4.5-4.5-4.5-4.5-.8l11.9-35.7 9.1-77.1 13.8-2.3 4.4-13.2 8.6 97.5 19.4 33.8 1.5-.5zm44.8 132.1c-8.9 3.4-18.2 9.9-27.1 21.4 0 0-2.8-2.8-7.8-5.6v-.2-3.9-3.9-3.9-3.9-3.9-3.9-3.9-3.9-3.9-3.9-3.9-3.9-3.9-3.9-3.9-3.9-3.9-3.9-3.9-3.9-3.9-3.9-3.9-3.9-3.9-3.9-3.9-3.9-3.9-3.9-3.9-3.9-3.9-3.9-3.9-3.9-3.9-3.9-3.9-1.5l14.4-4.2 19.5-106.1 1 2.5zm23.2-184.3v4.5 4.5 4.5 4.5 4.5 4.5 4.5 4.5 4.5 4.5 4.5 4.5 4.5 4.5 4.5 4.5 4.5 4.5 4.5 4.5 4.5 4.5 4.5 4.5 4.5 4.5 4.5 4.5 4.5 4.5 4.5 4.5 4.5 4.5 4.5 4.5 4.5 4.5 4.5 4.5 2.1c-4.4-.5-9.3-.6-14.4.3 0-72 0-147.4 0-220l14.4 37.2z"/></svg>
