<svg height="854.187" viewBox="0 0 1920 854.187" width="1920" xmlns="http://www.w3.org/2000/svg"><path d="m2194 249.729-72.573-68.229-82.444 66.1h-75.183l-70.91 106.448-179.5 2.132-114.821 58.437-89.788 33.4-444.518 68.861-770.263 475.399h1900z" fill="#090a2c" transform="translate(-274 -138.5)"/><path d="m1944.2 292.629-72.573-68.229-82.444 66.1h-75.183l-70.915 106.53-179.5 2.053-114.821 58.437-89.788 33.4-444.6 68.861-770.176 475.396h23.612c207.373-126.43 753.6-463.549 753.6-463.549l421.617-61.2 57.016 20.848-30.64-26.455 79.285-34.825 23.691 33.4-23.691 52.909 41.775-51.488-19.505-34.825 97.369-58.437 232.406 9.713-38.932-20.848 58.437-94.605 61.2-2.764-12.556 38.932 100.291-102.9 75.025 63.817z" fill="#39486f" opacity=".304" transform="translate(-24.2 -181.4)"/><path d="m0 176.018 108.587-50.418 215.182 76.729 93.938 114.631 182.9-32.5 140.373 36.267 178.56-22.542 40.46 35.699 208.071 16.924 217.6 187.947 534.329 208.645v148.049h-1920z" fill="#090a2c" transform="translate(0 -41.6)"/><path d="m1920 747.4-534.329-208.64-217.6-187.947-208.071-16.929-40.462-35.7-178.56 22.542-140.378-36.264-182.9 32.569-93.938-114.7-215.175-76.731-108.587 50.418v11.591l109.511-44.516 167.182 52.907-75.093 23.182-13.156 29.156 20.693-18.773 81.778-18.773 50.985 55.466 66.489 60.3-18.7 22.044-44.231 9.244 54.044.071 20.124-24.889 187.662-34.987s80.5 19.911 81.067 19.911-25.387 21.618-25.387 21.618l51.271-5.618-46.507 44.089 16.071 58.88v-57.881l61.8-46.08 163.627-25.671 102.044 87.538-38.474-51.485 185.458 19.769 34.773 26.311 14.08 40.96 3.769-27.733 151.609 144.284-48.853 18.773-42.6 37.618 63.929-25.031 56.391-8.747 324.555 116.554 36.338 41.885-6.258-36.267 113.991 41.813 60.018 37.26z" fill="#39486f" opacity=".399" transform="translate(0 -41.6)"/><path d="m1889.636 833.256s12.587-23.182-13.724-8.178c0 0-8.462-32.284-35.413-7.822a39.8 39.8 0 0 0 -10.453-4.836l-.853-144.213 45.44-92.16-29.44 10.667 33.207-49.494 11.307-170.382-27.165-107.738-25.031-55.4-20.2 27.093-14.436-52.693-24.178-9.173-23.822 28.018-8.036-12.942-17 4.551 14.933-13.8-23.04-49.28-26.027 43.307-37.105-101.321-48.427 34.56-45.013 150.471 15.787 100.978 16.711 19.911-18.844-5.618 32.853 159.289-52.622-31.36-3.058-75.164 5.049-22.827-10.169-29.938-3.271-32.071-11.022 30.649 3.413 26.027-6.756 24.6-.853 62.791-12.729-7.609-.427-10.738 4.551-20.764-9.316-27.307-2.987-29.156-10.027 27.876 3.129 23.68-6.187 22.4v1.28l-34.489-20.551 26.524-67.058-29.3-17.422 22.187-179.129-39.253-34.631-38.614-48.209-69.333 70.827 7.964 40.036-22.187-6.258 3.769 31.716-157.582 85.973 2.773 118.471-64.782 4.693v-120.107c0-105.884-103.4-180.409-149.333-183.538-45.867-3.129-65.707 16.64-48.853 27.591.284.142.569.356.853.5.071.071.213.071.284.142.213.071.427.213.64.284.142.071.213.142.356.142.213.071.427.213.64.284.142.071.284.071.356.142a2.527 2.527 0 0 1 .64.284c.142.071.213.071.356.142.284.071.569.213.853.284.071 0 .142.071.284.071a5.325 5.325 0 0 0 1.138.284c.071 0 .213.071.284.071l.853.213c.142 0 .284.071.427.071a3.024 3.024 0 0 0 .782.142c.142 0 .356.071.5.071.285.071.569.071.782.142.142 0 .356.071.5.071.284.071.64.071.924.142.142 0 .284.071.427.071a8.711 8.711 0 0 0 1.351.142h.213c.427.071.782.071 1.209.142a1.21 1.21 0 0 1 .5.071c.284 0 .64.071.924.071a1.566 1.566 0 0 1 .569.071c.284 0 .64.071.924.071h.569a4.7 4.7 0 0 1 1 .071h7.467a5.382 5.382 0 0 0 1.067-.071h.569a6.9 6.9 0 0 0 1.209-.071h.427c.569 0 1.138-.071 1.636-.071h.356c.427 0 .853-.071 1.28-.071a1.969 1.969 0 0 0 .64-.071c.356 0 .711-.071 1.067-.071a1.969 1.969 0 0 0 .64-.071c.356 0 .711-.071 1.067-.071.213 0 .427-.071.64-.071a6.222 6.222 0 0 0 1.138-.142 1.566 1.566 0 0 0 .569-.071 13.882 13.882 0 0 1 1.636-.142h.071l1.707-.213c.213 0 .356-.071.569-.071.356-.071.782-.071 1.138-.142.213 0 .427-.071.64-.071.356-.071.711-.071 1.067-.142.213 0 .427-.071.64-.071.356-.071.711-.071 1.067-.142.213 0 .427-.071.64-.071a7.836 7.836 0 0 1 1.28-.142c.142 0 .284-.071.427-.071.569-.071 1.138-.142 1.636-.213.142 0 .284-.071.427-.071.427-.071.782-.142 1.209-.213.213 0 .427-.071.569-.071a5.49 5.49 0 0 1 1.067-.142c.213 0 .427-.071.64-.071a5.579 5.579 0 0 1 1-.142c.213 0 .427-.071.64-.071a5.488 5.488 0 0 1 1.067-.142c.142 0 .356-.071.5-.071a12.058 12.058 0 0 0 1.564-.284h.213c.427-.071.924-.142 1.351-.213.213 0 .356-.071.569-.071a4.8 4.8 0 0 1 1-.142c.213 0 .427-.071.569-.071a4.164 4.164 0 0 1 .924-.142c.213 0 .356-.071.569-.071a4.894 4.894 0 0 1 .924-.142c.142 0 .356-.071.5-.071.356-.071.782-.142 1.138-.213a.428.428 0 0 0 .284-.071 9.148 9.148 0 0 0 1.351-.284c.142 0 .284-.071.427-.071a3.569 3.569 0 0 1 .853-.142c.142 0 .356-.071.5-.071.284-.071.5-.071.782-.142.142 0 .356-.071.5-.071.284-.071.5-.071.782-.142.142 0 .284-.071.5-.071a3.024 3.024 0 0 1 .782-.142c.142 0 .284-.071.427-.071.356-.071.782-.142 1.138-.213.071 0 .213-.071.285-.071a3.668 3.668 0 0 1 .782-.142c.142 0 .284-.071.427-.071.213-.071.356-.071.569-.142.142 0 .284-.071.427-.071.213-.071.356-.071.569-.142.142 0 .284-.071.427-.071.213-.071.356-.071.569-.142.142 0 .213-.071.356-.071.213-.071.427-.071.64-.142 2.987-.64 4.693-1.067 4.693-1.067 80.853 36.622 107.093 117.76 107.093 160.427 0 25.956-.142 85.049-.214 120.747l-5.76.427c-10.951-51.484-21.973-83.627-31.075-103.538l3.769-5.262-6.045-4.693.356-16.711 6.827-7.253-9.173-8.818-4.409-1.849-1-.284-17.635 1.067-9.316 5.049 8.462 76.942 14.862 7.538h9.884l.356-15.147 5.191-7.324-4.907-4.409.356-15.147.284-.427c8.036 18.773 18.133 49.636 29.511 100.551l-91.337 6.678-4.409-104.676-1.778-18.347-13.084-16.284.924 17.209-3.413 12.231-1.067 111-5.333.356 1.138-115.342-10.027-17.564.284-26.027-7.182 25.671 2.844 19.413-4.053 114.987-8.818.64v-142.789l-8.82-27.878 2.489-26.311-12.229 24.464.284 18.489-7.538 55.111-3.769 101.191-132.2 9.671-4.83-118.755 5.9-26.738-11.947-35.058-3.84-37.476-12.942 35.84 3.982 30.436-7.964 28.8-1.636 125.369-7.68.569 1.351-139.236-19.342-29.3-3.982-74.738-16.283 83.132 10.24 23.538-10.524 22.542-4.693 117.26-91.947 6.687 23.467-103.964-65-148.267-59.52-55.964-2.769 80.208-43.378 37.338 23.324 96.356-24.747-20.836-9.6 63.644 45.938 81.849-41.815-18.133 13.8 89.458 4.338 6.4-9.1.284v12.3l14.222 17.351-134.044 5.476 30.075-110.787-32.427 7.538 37.12-81.778-28.16-236.8-95.786-71.26-49.849 181.053-24.818-85.262-20.693 42.738 12.231-97.209-48-104.32-84.551 201.529 36.622 277.76-20.693-14.08 45.653 153.6 20.836 10.169-.285 124.022a33.07 33.07 0 0 0 -5.333 5.689c-38.044-14.507-54.044 23.751-54.044 23.751-42.383-15.72-61.014 11.66-61.014 11.66v60.089h1920v-83.629c0 .071-5.547-11.52-30.364.996zm-1695.716-13.014s-4.551-3.769-6.827 4.267a79.85 79.85 0 0 0 -9.244 4.267 1.254 1.254 0 0 0 -1.422.782c-.356.213-.64.356-.853.5-.356-.285-.782-.64-1.28-1-3.7-27.307-39.04-9.529-39.04-9.529-1.422-3.84-3.2-6.044-5.049-7.111l-1.565-117.971 8.889 4.338 17.707-44.585 6.044 4.267 35.129 155.662c-1.067.993-1.92 2.913-2.489 6.113zm-27.236-195.129 39.751-100.267 2.7 72.462 15.573 25.458zm40.676-102.613 12.3-30.933 14.649 64.142zm1467.947 42.524 15.644-107.662 7.324 104.533-13.8-20.48 4.124 31.5zm42.1 264.6c-8.676-.64-16.071 1.92-14.365 12.942 0 0-6.044-5.049-11.662-6.258l22.471-114.987 3.911 19.556.213-.711zm31.715-261.547 3.769 43.164-8.32-4.978zm26.027 253.3c-8.747-2.56-21.262-1.493-34.56 14.364a97.9 97.9 0 0 0 -14.862-4.836l-1.067-111 9.956-29.8 6.756-56.889 12.8-7.4 5.973 67.84 13.8 24.036 1.209-.356v104.044zm48.64-10.24c-10.311-1.351-23.894 1.138-36.2 17.138a28.83 28.83 0 0 0 -6.258-4.409l-1.493-107.876 12.516-3.7 13.867-75.449 18.418 47.431z" transform="translate(0 -61.7)"/></svg>
