<svg xmlns="http://www.w3.org/2000/svg" width="36.898" height="30" viewBox="0 0 36.898 30">
  <path id="twitter-icon" d="M383.8,206.7c13.926,0,21.541-11.542,21.541-21.549,0-.328-.006-.655-.022-.979a15.408,15.408,0,0,0,3.776-3.921,15.108,15.108,0,0,1-4.347,1.192,7.605,7.605,0,0,0,3.33-4.19,15.245,15.245,0,0,1-4.807,1.839,7.578,7.578,0,0,0-12.9,6.908,21.5,21.5,0,0,1-15.606-7.915,7.582,7.582,0,0,0,2.345,10.111,7.512,7.512,0,0,1-3.429-.947c0,.032,0,.064,0,.1a7.575,7.575,0,0,0,6.074,7.424,7.6,7.6,0,0,1-2,.267,7.452,7.452,0,0,1-1.423-.137,7.578,7.578,0,0,0,7.072,5.26A15.289,15.289,0,0,1,372.2,203.3a21.41,21.41,0,0,0,11.6,3.4" transform="translate(-372.2 -176.7)" fill="#fff"/>
</svg>
