<svg xmlns="http://www.w3.org/2000/svg" width="500" height="671.4" viewBox="0 0 500 671.4">
  <g id="blinds" transform="translate(-56 -60.3)">
    <path id="Path_29" data-name="Path 29" d="M556,60.3V96H56V60.3ZM56,131.7H556V113.8H56Zm0,25H556V138.8H56Zm0,25H556V163.8H56Zm0,25H556V188.8H56Zm0,25,318.9-7.1L556,231.7V213.8H56Zm0,7.2v17.9H556V238.9l-278.6,5.4Zm0,42.8H556V263.8H56Zm0,25H556V288.8H56Zm0,25H556V313.8H56Zm0,25H556V338.8H56Zm0,7.2v17.9H556V363.9L200.3,371Zm0,42.8H556V388.8H56Zm0,25H556V413.8H56Zm0,25H556V438.8H56Zm0,25H556V463.8H56Zm0,25H556V488.8H56Zm0,7.2v17.9H556V513.9l-211.4,3.6Zm0,42.8H556V538.8H56Zm0,25H556V563.8H56Zm0,25H556V588.8H56Zm0,25H556V613.8H56Zm0,25H556V638.8H56Zm0,25,119.6-7.1L556,681.7V663.8H56Zm0,25H556V688.8H56Zm0,17.9,500,7.1V713.8H56Z" fill="#f124ad"/>
    <path id="Path_30" data-name="Path 30" d="M63.1,271H556v-7.1H56v17.9h7.1Zm0,125H556v-7.1H56v17.9h7.1Zm0-150,221.4,5.4L556,246v-7.1l-278.6,5.4L56,238.9v17.9h7.1Zm0,100H556v-7.1H56v17.9h7.1Zm0,25,144.3,7.1L556,371v-7.1L200.3,371,56,363.9v17.9h7.1Zm0-50H556v-7.1H56v17.9h7.1Zm0-25H556v-7.1H56v17.9h7.1Zm0-175H556v-7.1H56v17.9h7.1Zm0-53.6H556V60.3H56V96h7.1Zm0,78.6H556v-7.1H56v17.9h7.1Zm0,50H556v-7.1H56v17.9h7.1Zm0-25H556v-7.1H56v17.9h7.1Zm0,50H556v-7.1H56v17.9h7.1Zm0,450H556v-7.1H56v17.9l7.1-.4Zm0-25H556v-7.1H56v17.9h7.1Zm0-25H556v-7.1H56v17.9h7.1Zm0-200H556v-7.1H56v17.9h7.1Zm0,275H556v-7.1H56v17.9h7.1Zm0-100H556v-7.1H56v17.9h7.1Zm0,125H556v-7.1H56v10.7h7.1Zm0-250H556v-7.1H56v17.9h7.1Zm0,25H556v-7.1H56v17.9h7.1Zm0,75H556v-7.1H56v17.9h7.1Zm0-125H556v-7.1H56v17.9h7.1Zm0,75,288.6,3.6L556,521v-7.1l-211.4,3.6L56,513.9v17.9h7.1Zm0,25H556v-7.1H56v17.9h7.1Z" fill="#d61aa1"/>
  </g>
</svg>
