<svg xmlns="http://www.w3.org/2000/svg" xmlns:xlink="http://www.w3.org/1999/xlink" width="2240" height="922.089" viewBox="0 0 2240 922.089">
  <defs>
    <linearGradient id="linear-gradient" y1="0.5" x2="1" y2="0.5" gradientUnits="objectBoundingBox">
      <stop offset="0.013" stop-color="#86aada"/>
      <stop offset="0.293" stop-color="#84a7d6"/>
      <stop offset="0.443" stop-color="#7e9ecb"/>
      <stop offset="0.561" stop-color="#7591bd"/>
      <stop offset="0.663" stop-color="#697fac"/>
      <stop offset="0.755" stop-color="#596b98"/>
      <stop offset="0.839" stop-color="#475582"/>
      <stop offset="0.918" stop-color="#333c6b"/>
      <stop offset="0.99" stop-color="#1e2255"/>
      <stop offset="1" stop-color="#1b1d51"/>
    </linearGradient>
    <linearGradient id="linear-gradient-2" y1="0.502" x2="0.999" y2="0.502" gradientUnits="objectBoundingBox">
      <stop offset="0" stop-color="#1b1d51"/>
      <stop offset="1" stop-color="#86aada"/>
    </linearGradient>
    <linearGradient id="linear-gradient-3" x1="0.002" y1="0.501" x2="1" y2="0.501" gradientUnits="objectBoundingBox">
      <stop offset="0" stop-color="#1b1d51"/>
      <stop offset="0.122" stop-color="#313a68"/>
      <stop offset="0.263" stop-color="#485683"/>
      <stop offset="0.407" stop-color="#5d709c"/>
      <stop offset="0.552" stop-color="#6d86b3"/>
      <stop offset="0.698" stop-color="#7a99c6"/>
      <stop offset="0.846" stop-color="#82a5d3"/>
      <stop offset="1" stop-color="#86aada"/>
    </linearGradient>
    <linearGradient id="linear-gradient-4" x1="0" y1="0.499" x2="1" y2="0.499" xlink:href="#linear-gradient"/>
    <linearGradient id="linear-gradient-5" x1="0" y1="0.504" x2="0.999" y2="0.504" xlink:href="#linear-gradient"/>
    <linearGradient id="linear-gradient-6" x1="0.001" y1="0.498" x2="1.002" y2="0.498" xlink:href="#linear-gradient"/>
    <linearGradient id="linear-gradient-7" x1="0.002" y1="0.502" x2="1.001" y2="0.502" xlink:href="#linear-gradient"/>
    <linearGradient id="linear-gradient-8" x1="0.001" y1="0.501" x2="1.002" y2="0.501" xlink:href="#linear-gradient"/>
    <linearGradient id="linear-gradient-9" x1="0.214" y1="-4.186" x2="0.988" y2="-4.186" xlink:href="#linear-gradient"/>
    <linearGradient id="linear-gradient-10" x1="-0.001" y1="0.501" x2="0.999" y2="0.501" gradientUnits="objectBoundingBox">
      <stop offset="0" stop-color="#1b1d51"/>
      <stop offset="0.106" stop-color="#293060"/>
      <stop offset="0.332" stop-color="#475481"/>
      <stop offset="0.542" stop-color="#6074a1"/>
      <stop offset="0.73" stop-color="#738fbc"/>
      <stop offset="0.889" stop-color="#80a2cf"/>
      <stop offset="1" stop-color="#86aada"/>
    </linearGradient>
    <linearGradient id="linear-gradient-11" x1="0.002" y1="0.501" x2="1" y2="0.501" xlink:href="#linear-gradient-2"/>
    <linearGradient id="linear-gradient-12" x1="-0.003" y1="0.496" x2="0.996" y2="0.496" xlink:href="#linear-gradient-2"/>
    <linearGradient id="linear-gradient-13" x1="-0.001" y1="0.503" x2="1" y2="0.503" xlink:href="#linear-gradient-2"/>
    <linearGradient id="linear-gradient-14" x1="0" y1="0.501" x2="1" y2="0.501" xlink:href="#linear-gradient"/>
    <linearGradient id="linear-gradient-15" x1="-0.002" y1="0.497" x2="0.998" y2="0.497" xlink:href="#linear-gradient"/>
    <linearGradient id="linear-gradient-16" x1="-0.002" y1="0.502" x2="0.999" y2="0.502" xlink:href="#linear-gradient"/>
  </defs>
  <g id="clouds" transform="translate(310 -455)">
    <g id="cloud-3" transform="translate(-563.559 258.625)" opacity="0.5">
      <path id="Path_1" data-name="Path 1" d="M1149.314,660.925a97.822,97.822,0,0,1,14.894-3.282c6.311-1.01,12.874-1.262,19.438-1.767,7.573-.252,15.146-.5,22.467-.5,8.078,0,46.953-1.262,70.935-2.777,34.331-2.272,36.351-6.311,0-6.563-104.51,1.01-136.569-137.579-186.3-121.423-22.215,7.068-27.768,34.332-20.953,54.527,7.321,20.952,27.011,39.885,45.691,54.274-10.35-4.291-22.215-7.321-31.807-10.855-10.855-4.039-23.224-8.33-35.089-4.039-1.515.5-2.525,2.524-1.515,3.787.757.757,1.262,1.515,2.02,2.272-27.263-6.816-57.808-14.641-85.324-22.467-.757-28.021-47.458-40.643-47.458-46.7,0-4.039,5.806-3.534,5.806-6.816,0-20.7-63.362-79.266-103.752-82.042-.5,0-1.262.757-1.262,2.019,0,3.787,4.039,7.826,4.039,9.845,0,1.262-1.767,1.515-3.029,1.515-.252,0-41.147-19.438-60.838-19.438a48.243,48.243,0,0,0-13.127,1.767c-4.039-.757-6.563-1.262-6.563-1.262-1.262-4.039,11.36-9.593,9.34-15.9-2.524-7.321-16.661-6.563-22.467-13.127,8.33-6.059,10.855-12.622,9.593-19.185a14,14,0,0,0,9.593-6.563l.757-1.515a24.872,24.872,0,0,0,4.292.5,21.988,21.988,0,0,0,16.661-5.554c10.35,12.117,26.506,21.962,40.39,28.525,18.68,8.583,41.9,14.641,63.362,12.622a39.3,39.3,0,0,0,13.127-3.787,13.251,13.251,0,0,0,10.855-8.078c5.049-5.806,7.321-13.379,3.534-21.71-5.554-12.874-24.991-22.215-40.9-28.273a34.115,34.115,0,0,0-10.855-14.389c-.5-.5-.757-1.01-1.262-1.515-14.389-21.962-53.265-55.789-100.218-58.061-.253,0-.505-.252-.757-.252-7.573-2.777-17.671-8.078-26-3.282a12.735,12.735,0,0,0-5.806,7.321c-1.262.253-2.524.757-3.786,1.01-.5.252-.757.252-1.262.5a5.091,5.091,0,0,0-6.816.757,9.693,9.693,0,0,0-2.777,7.068c-6.311-2.524-13.127-2.777-16.913,4.039a15.431,15.431,0,0,0-1.262,3.029c-5.806-5.554-12.622-12.622-18.176-10.6-4.291,1.515-3.786,6.311-2.272,10.35-6.311-8.078-10.855-17.923-16.156-27.768,2.524-4.8.757-10.35-1.767-15.146-3.029-6.059-7.321-13.884-14.641-16.408a12.106,12.106,0,0,0-10.6,1.01,64.36,64.36,0,0,0-7.321-3.282c-24.486-7.826-43.672-45.691-57.051-41.4-.505.252-33.069-38.623-87.849-20.952-32.312,10.35-45.186,31.807-40.39,55.536-4.292,0-2.524-6.563-8.33-4.544-2.524.757-4.8,2.777-6.816,4.8-3.787-2.272-8.078-3.787-11.36-3.534A5.131,5.131,0,0,0,388.717,255l-.757-1.515a3.792,3.792,0,0,0,3.029-2.777c0-.253,0-.253.252-.5a3.578,3.578,0,0,0,1.767-4.039,20.4,20.4,0,0,0-2.777-6.816c-3.282-7.068-10.35-13.632-18.428-11.865-3.029-2.272-6.311-3.282-10.1-2.019-4.544,1.515-7.573,7.068-10.6,11.107-4.039-2.272-8.078-4.544-11.865-6.816-11.107-6.816-22.215-13.632-34.079-19.185a56.73,56.73,0,0,0-5.3-3.029,52.023,52.023,0,0,0-10.6-5.3c-1.515-.5-3.029,1.01-2.019,2.272.252,6.816-1.262,9.34-5.049,7.321-1.515-.5-3.029-1.262-4.544-1.767-2.524-1.01-5.049-2.02-7.573-3.282-5.554-2.524-10.855-4.8-16.156-7.573-.253-.252-.5.252-.253.5,6.563,3.787,13.127,7.321,19.69,10.855,1.515.757,3.534,2.02,5.554,3.282-.253.252-.757.5-.757.757a4.68,4.68,0,0,0-.5,1.767,6.018,6.018,0,0,0,1.515,2.777,8.312,8.312,0,0,0,1.767,3.282c2.272,2.272,7.068,5.3,11.107,5.3,2.524.252,5.049,0,6.311-1.767h1.767l3.029,1.515c5.3,6.563,11.107,12.874,15.9,18.176-1.515,2.02-1.515,4.544-1.01,7.068a17.75,17.75,0,0,0,4.544,13.379c0,.252.252.252.5.5a19.068,19.068,0,0,0,2.777,3.534,14.777,14.777,0,0,0,4.291,2.524c-.757,5.3-2.019,10.855-.5,15.651-1.515,5.554,3.787,11.612,9.845,13.632a30.55,30.55,0,0,0,0,9.593c1.767,9.845,7.573,18.176,15.4,24.234-2.272,17.166-3.029,36.1,2.777,52.76C376.1,442.06,449.3,446.857,509.131,427.419c9.34-3.029,23.982.5,23.982.5,2.272-.757.5-6.563,3.787-8.583,11.107,19.185,53.769,33.827,56.546,32.817,3.029-1.01,5.3-1.767,1.515-12.369-1.515-4.8-4.039-9.34-5.806-14.137a7.369,7.369,0,0,1-.5-2.272c6.311,11.36,19.943,19.943,32.06,24.739a17.417,17.417,0,0,1,2.524,1.01,71.228,71.228,0,0,0,11.612,5.806c1.767,7.826,9.845,16.661,19.438,21.71a9.271,9.271,0,0,0-.252,4.544,30.229,30.229,0,0,0,7.826,15.146c-9.845-2.019-18.176-1.01-20.2,6.311-2.524,9.34,7.068,15.651,14.137,19.943,6.563,3.787,15.146,10.35,23.729,14.137-.5.252-1.262.5-1.767.757-7.068,2.272-15.651,1.767-21.71,3.534-8.583,2.777-7.321,12.369-5.806,16.913,5.554,16.156,31.3,26.506,42.914,28.778C698.207,591,703,595.795,708.3,600.086c7.068,5.554,16.409,12.37,26.254,13.127,4.291,2.02,9.34,2.524,15.4.5,4.039-1.262,5.3-4.8,5.3-9.845,7.573.5,15.4,5.049,21.2,3.029,8.331-2.777-6.563-14.136,5.049-17.923a22.326,22.326,0,0,1,10.855-.5c50.488,30.293,140.1,89.868,184.027,82.8,14.389-2.272,21.962-9.593,25.244-16.661,59.828,14.389,153.987,21.71,152.725,17.671-1.767-5.049-10.1-8.078-10.6-9.34C1144.265,662.692,1148.809,661.177,1149.314,660.925Z" transform="translate(0 0)" fill="#131336"/>
      <path id="Path_2" data-name="Path 2" d="M738.8,439.313h2.109C659.132,430.174,628.435,326.837,588.6,325.9c14.059,7.733,28.119,29.525,28.119,41.241,0,8.2-.234,2.109-9.607,2.109-30.7,0,27.65.937,52.254,45.459-.7-8.67-5.389-16.4-8.2-24.135C670.379,419.4,704.825,439.313,738.8,439.313Z" transform="translate(525.385 208.212)" fill="url(#linear-gradient)"/>
      <path id="Path_3" data-name="Path 3" d="M457.639,244.824c2.343,1.406,89.746,33.04,97.479,81.076,0-1.875.234-3.749.234-5.624,0-16.871,31.4,11.716,31.4,24.838a32.507,32.507,0,0,1-2.578,12.185,13.28,13.28,0,0,0,1.875-3.046c4.687-5.389,6.8-12.419,3.281-20.152-5.155-11.951-23.2-20.621-37.961-26.244A31.67,31.67,0,0,0,541.292,294.5c-.469-.469-.7-.937-1.172-1.406C527,272.943,491.381,241.778,448.5,239.2,451.312,241.543,454.827,243.183,457.639,244.824Z" transform="translate(303.216 68.104)" opacity="0.47" fill="url(#linear-gradient-2)"/>
      <path id="Path_4" data-name="Path 4" d="M657.308,439.928c-20.386-5.155-41.944-11.013-61.862-16.4-.7-26.01-44.053-37.726-44.053-43.35,0-3.749,5.389-3.28,5.389-6.327,0-14.528-33.977-49.442-66.783-66.548,20.855,15.465,56.472,43.819,56.472,64.439,0,19.449,56.472,49.208,17.574,44.99,20.152,2.343,27.885,47.1,27.885,29.056C592.4,423.759,565.921,426.1,657.308,439.928Z" transform="translate(369.302 183.228)" fill="url(#linear-gradient-3)"/>
      <path id="Path_5" data-name="Path 5" d="M568.207,382.874c1.172,0,8.9,6.8,12.888,15.231-.937-14.06-13.591-37.492-32.805-49.208-.234-.234-38.195-18.043-56.472-18.043a44.781,44.781,0,0,0-12.185,1.64c-3.749-.7-6.093-1.172-6.093-1.172-1.172-3.749,10.545-8.9,8.67-14.762-2.343-6.8-15.465-6.092-20.855-12.185,7.03-4.921,9.373-10.545,9.139-15.934-5.389,11.248-17.106,18.746-17.106,18.746,9.373,0,19.449,3.28,19.449,12.419,0,4.452-2.812,8.67-4.921,12.419-5.624.234-11.951.469-15.231.937,0-7.967-1.64-19.215-10.076-25.073a22.134,22.134,0,0,0,1.64-6.561,16.253,16.253,0,0,0-5.624-12.419,7.557,7.557,0,0,0,2.812-6.092c0-2.343-1.406-6.561-1.406-3.046v.234c0,3.749-3.28,4.687-6.8,4.687h-5.155c.234.234,12.654,6.8,11.951,22.261a20.215,20.215,0,0,0-6.561-.937,16.083,16.083,0,0,0-8.67,2.343,17.839,17.839,0,0,1,4.921-.7,15.621,15.621,0,0,1,10.545,3.749c.234.469.234.469.469.469,5.624,5.389,8.67,15,10.31,21.792-7.5,1.172-10.076,3.281,3.515,8.67.469-2.812,9.607-4.921,18.98-6.561,39.835.234,35.383,39.132,35.383,19.449,0-10.31-6.8-18.98-17.574-21.558h1.172c17.34,0,53.895,12.419,67.954,28.119,3.281,3.749,2.109,6.561,2.109,7.967,0,.234,0,.469-.469.469-1.875,0-4.218-2.343-6.092-2.343a2.091,2.091,0,0,0-2.109,2.109c0,3.515,4.921,6.092,14.06,20.621l.469.469v-.234c0-2.109-1.406-4.218-1.406-6.327C567.269,382.874,567.5,382.874,568.207,382.874Z" transform="translate(266.961 130.582)" fill="#84a9d9" opacity="0.39"/>
      <path id="Path_6" data-name="Path 6" d="M454.5,293.53c0,22.027,3.515-5.389,3.515-7.733,0-12.888-7.967-25.541-19.449-25.541-3.046,0-4.686-3.515-7.03-7.733,0,.234-.234.234-.234.469-4.921-4.921-10.779-10.545-15.7-10.076,12.419,6.561,11.013,20.855,17.106,20.855C441.376,263.771,454.5,275.487,454.5,293.53Z" transform="translate(248.348 72.203)" fill="#84a9d9" opacity="0.31"/>
      <path id="Path_7" data-name="Path 7" d="M440.887,297.56c0-18.043-14.294-14.294-14.294-26.713,0-12.185-24.6-36.555-30.462-43.584A181.763,181.763,0,0,1,380.9,212.5c2.812,5.624,5.155,11.482,8.9,15.7,5.39,6.561,16.637,7.733,17.809,18.277a2.424,2.424,0,0,1,.937-.234c2.812,0,12.654,17.106,12.654,24.6,0,5.389-3.984,11.013-3.984,11.013C436.2,282.329,440.887,319.118,440.887,297.56Z" transform="translate(195.63 21.66)" fill="#84a9d9" opacity="0.24"/>
    </g>
    <g id="cloud-4" transform="translate(535.7 414.2)" opacity="0.496">
      <g id="Group_1" data-name="Group 1" transform="translate(788.357 273.43)">
        <path id="Path_8" data-name="Path 8" d="M1021.974,181.175a134.7,134.7,0,0,0-26.334-.246c1.231-3.2-.985-6.153-8.614-9.106-17.72-6.645-40.609-5.907-60.3-1.477a12.8,12.8,0,0,0-4.676-7.63c-11.813-10.091-32.241-6.891-46.762-1.723-17.474,6.4-37.9,14.521-45.531,27.565l-2.953,5.168a39.188,39.188,0,0,0-5.415,3.2c-11.813-2.707-27.072,4.184-30.026,12.06-1.476,3.692,0,7.63,2.954,11.075-.492.738-.985,1.231-1.477,1.969H792.1a9.1,9.1,0,0,0-2.707,1.231c0-.738-.738-1.231-1.723-1.477a5.625,5.625,0,0,0,1.723-2.461c0-.492-.246-.984-.738-.984-8.122-1.231-13.536,7.137-14.521,11.567a2.157,2.157,0,0,0,1.231,2.461c.492,2.953,3.2,6.153,7.137,7.63,5.907,7.137,19.2,9.6,31.257,8.122-.246.492-.246.738-.492,1.231-3.692,13.29,16.982,19.443,32.979,17.474,15.013-1.969,29.534-7.383,43.562-11.321,16-4.43,31.749-8.86,47.746-13.29a213.216,213.216,0,0,0,24.119-7.63h0c3.692,3.938,11.075,4.922,17.228,4.184a86.078,86.078,0,0,0,29.288-9.106c5.168-.738,9.6-2.953,14.521-4.922,13.044-5.907,34.7-12.8,36.179-24.858C1060.86,186.1,1036.987,182.652,1021.974,181.175Z" transform="translate(-774.074 -156.071)" fill="#131336"/>
        <path id="Path_9" data-name="Path 9" d="M899.9,156.1a81.035,81.035,0,0,0-24.612,4.922c-17.474,6.4-37.9,14.521-45.531,27.565l-2.953,5.168a39.174,39.174,0,0,0-5.415,3.2c-11.814-2.707-27.073,4.184-30.026,12.06-1.477,3.692,0,7.63,2.953,11.075-.492.738-.984,1.231-1.476,1.969H792.1a9.1,9.1,0,0,0-2.707,1.231c0-.738-.738-1.231-1.723-1.477a5.628,5.628,0,0,0,1.723-2.461c0-.492-.246-.984-.738-.984-8.122-1.231-13.536,7.137-14.521,11.567a2.157,2.157,0,0,0,1.231,2.461c.246,1.969,1.723,3.938,3.692,5.661v-1.231c0-5.907,3.446-10.829,7.137-10.829a7.457,7.457,0,0,1,5.415,2.461c.738-2.953,4.922-6.645,4.922-7.876,0-11.075,12.306-19.689,25.842-19.689h1.23c1.969,0,4.922-2.707,5.907-2.707,1.477,0,1.231.738,1.231-1.477,0-3.692,6.645-12.306,6.645-6.645,0,1.477,1.969,9.6,1.969,5.907,0-16.982,27.811-20.427,18.7-20.427C839.357,175.543,879.72,162.5,899.9,156.1Z" transform="translate(-774.074 -156.1)" fill="url(#linear-gradient-4)"/>
      </g>
      <g id="Group_2" data-name="Group 2" transform="translate(764.3 75.8)">
        <path id="Path_10" data-name="Path 10" d="M1373.718,218.054c-16.859,0-30.248,9.6-39.174,9.6-3.719,0-5.455-1.969-5.455-3.692,0-3.446,7.19-6.4,7.19-11.567,0-.984-.744-3.446-1.736-3.446h0c-10.909,1.231-21.074,2.707-30.744,4.43a8.673,8.673,0,0,1-2.479-6.645c0-13.29,56.529-47.008,56.529-78.51,0-10.583-5.7-23.381-23.306-23.381-12.892,0-28.264,5.661-41.157,5.661-7.934,0-12.644-2.707-12.644-6.153V104.1c.248-4.43,1.983-8.86,1.983-13.29,0-8.86-10.165-15.013-18.1-15.013-20.827,0-49.091,21.166-49.091,42.578a16.642,16.642,0,0,0,6.942,14.028,57.084,57.084,0,0,0-18.347,15.013c-2.479.492-4.959,1.231-7.438,1.969-7.686,1.969-14.38,4.43-22.066,7.137-8.182,3.2-14.132,6.4-20.826,9.106-21.322-1.231-50.082,3.446-79.091,15.505-.744.246-1.488.738-2.231.984-.248,0-.5.246-.744.246a10.189,10.189,0,0,0-4.215,2.953,8.66,8.66,0,0,0-2.232,1.477c-12.4,10.337-6.694,19.935,4.959,24.611a22.453,22.453,0,0,0,1.983,3.2c-17.6,5.907-33.471,16-33.471,30.026v.984c-4.711,1.231-9.174,3.692-9.174,7.63,0,1.477.248,2.953.248,4.184,0,5.907-12.4,3.2-15.372,11.321-2.975,7.63-3.719,15.259-5.207,23.135-.248.246-.5.492-.744.492-3.719-1.231-9.422-2.953-13.884-2.953-9.173,0-15.62,5.415-15.62,17.966v6.891c0,13.044-10.661,21.658-21.322,31.01-12.645,3.692-28.264,5.907-45.372,16.736-5.207,3.446-11.9,9.352-18.347,9.352-1.24,0-1.983,0-1.983-.984,0-.492,2.231-6.891,2.231-10.829,0-4.676-7.438-5.907-11.4-5.907-16.611,0-25.041,10.337-30.744,25.6-.744,1.723-6.942-.246-11.157,2.461-15.124,9.352-28.265,16.49-38.926,21.9-19.091,5.414-37.686,10.337-37.686,16.49,0,1.969,2.479,2.461,4.463,2.461,5.951,0,110.578-16,112.561-16l88.016-15.259c54.793-9.352,111.817-16,157.933-44.793,7.934-41.347,61.487-33.964,92.975-52.915,8.182,29.78,174.049-34.21,174.049-64.482C1394.545,221.007,1381.652,218.054,1373.718,218.054Z" transform="translate(-764.3 -75.8)" fill="#131336"/>
        <path id="Path_11" data-name="Path 11" d="M881.75,188.7c-16.49,0-24.857,10.337-30.518,25.6-.738,1.723-6.891-.246-11.075,2.461-15.013,9.352-28.057,16.49-38.64,21.9-16.982,4.922-33.472,9.352-36.917,14.521,4.43-1.723,19.935-8.122,42.085-15.259,16.736-5.414,33.471-21.412,42.086-20.181,0,0-3.938,9.845-3.938,12.06,0,8.86,12.06-38.886,46.27-39.132C888.4,189.192,884.211,188.7,881.75,188.7Z" transform="translate(-763.861 89.163)" fill="url(#linear-gradient-5)"/>
        <path id="Path_12" data-name="Path 12" d="M898.272,190.611c-.738.492-.246-12.8-.246-13.782,0-5.907,5.415-13.044,8.86-14.029-6.891,1.477-11.567,6.891-11.567,17.72v6.891c0,13.044-10.583,21.658-21.166,31.01-12.552,3.692-28.057,5.907-45.039,16.736-2.461,1.723-5.661,3.938-8.614,5.907.738-.246,31.995-15.259,52.915-19.443.984-.246,2.953-1.969,2.707,2.953-.246,3.692.492,7.876.738,5.907,2.953-17.966,24.857-39.87,40.609-39.87C917.715,190.611,904.671,187.165,898.272,190.611Z" transform="translate(-680.974 51.319)" fill="url(#linear-gradient-6)"/>
        <path id="Path_13" data-name="Path 13" d="M877.867,186.691a10.1,10.1,0,0,0-.246,2.707,10.885,10.885,0,0,0,1.723,5.907c.985-8.122,19.443-18.212,19.443-36.917,0-12.8,16.736-19.2,25.1-26.088-16.982,5.907-31.749,15.751-31.749,29.534v.984c-4.676,1.231-9.106,3.692-9.106,7.63,0,1.477.246,2.953.246,4.184,0,5.907-12.306,3.2-15.259,11.321-2.707,7.137-3.692,14.767-4.922,21.9C874.175,219.671,859.9,187.676,877.867,186.691Z" transform="translate(-617.949 6.754)" opacity="0.48" fill="url(#linear-gradient-7)"/>
        <path id="Path_14" data-name="Path 14" d="M1060.662,142.659c0-22.889,23.627-30.026,9.352-30.026-6.4,0-4.184,1.969-10.829,1.969-1.723,0-3.2,1.723-4.676,2.215h0s-.738-2.707-3.2-2.707c-.984,0-1.969.246-2.707.246-.492,0-.984-.246-.984-.738h0c.246-18.7,15.505-29.041,27.319-36.917-17.966,5.907-36.179,23.135-36.179,40.363a16.686,16.686,0,0,0,6.891,14.028,56.753,56.753,0,0,0-18.213,15.013c-2.461.492-4.922,1.231-7.383,1.969-7.63,1.969-14.275,4.43-21.9,7.137-8.122,3.2-14.029,6.4-20.674,9.106-21.166-1.231-49.715,3.446-78.51,15.505-.738.246-1.477.738-2.215.984-.246,0-.492.246-.738.246a10.116,10.116,0,0,0-4.184,2.953,8.592,8.592,0,0,0-2.215,1.477c-11.813,10.091-7.137,19.2,3.692,24.119-1.723-3.2-3.446-6.891-3.446-10.337,0-23.135,52.915-31.749,80.233-31.995a27.317,27.317,0,0,0-6.153,17.228c4.184-9.6,49.961-33.472,49.961-21.658l17.966-11.814c8.368-6.645,19.935-16.982,19.935-8.86,0,5.168,4.676,10.583,4.676,14.029,0,0-3.692,4.922-9.106,21.166,4.676-7.876,15.751-10.583,15.751-20.674C1063.616,151.519,1060.662,143.643,1060.662,142.659Z" transform="translate(-588.214 -74.485)" opacity="0.28" fill="url(#linear-gradient-8)"/>
      </g>
    </g>
    <g id="cloud-5" transform="translate(451.083 871.983)" opacity="0.504">
      <path id="Path_15" data-name="Path 15" d="M942.469,231.119c-16.208-2.482-34.65-6.681-47.132-7.063a27.538,27.538,0,0,0-11.736.954c-11.736,4.2-8.01,12.789-1.49,17.562l-6.706-1.718c-6.148-1.909-11.55-4.963-19-5.727a15.484,15.484,0,0,0-10.8,1.336c-.373-.191-.745-.573-1.118-.764-2.422-3.245-6.893-5.727-12.3-6.872-1.118-.382-2.235-.954-3.353-1.336a3.551,3.551,0,0,0-1.49-.191c-.373-6.681-5.775-11.835-14.531-13.744-10.619-2.482-24.777,4.009-29.993,10.881-7.824-4.2-18.629-8.208-31.483-2.291-9.315,4.39-12.482,9.354-12.482,13.935-9.315-3.245-21.051-5.345-33.719-.573-4.1,1.527-6.334,3.245-7.265,5.154a30.117,30.117,0,0,0-5.962.573,17.018,17.018,0,0,0-12.854,3.627c-.186.191-.373.191-.373.382-.186,0-.373.191-.745.382-3.167,1.527-4.285,3.818-3.912,5.345a9.431,9.431,0,0,0,.559,1.336.186.186,0,0,0-.186.191c-1.3-.191-2.422-.382-3.726-.573a215.976,215.976,0,0,0-39.308-2.291c-10.619.191-25.522.382-35.955,9.163-5.961,4.963-5.216,8.4-1.863,10.881a9.874,9.874,0,0,0-2.608,2.291c-7.452,8.4,7.638,11.071,14.345,12.98,3.726.954,7.824,1.909,12.3,2.672,49.554,17.753,138.788,12.6,230.817-23.861,14.158,4.39,36.141,3.054,54.77-4.581,10.8-4.39,16.766-8.208,15.276-12.408h2.794c7.824,2.482,28.689,8.4,59.427-4.2,10.246-4.2,6.707-6.681,12.3-8.972,1.863-.764,4.1-1.145,5.961-2.1C999.1,231.5,969.668,231.119,942.469,231.119Z" transform="translate(0 0)" fill="#131336"/>
      <path id="Path_16" data-name="Path 16" d="M922.493,227.511c-10.615-1.862-21.044-3.538-29.052-3.725a28.18,28.18,0,0,0-11.733.931c-11.733,4.1-8.008,12.478-1.49,17.133l-6.7-1.676c-6.146-1.862-11.546-4.842-19-5.587a13.859,13.859,0,0,0-4.842-.372,13.669,13.669,0,0,0-5.959,1.676c-.373-.186-.745-.559-1.117-.745-2.421-3.166-6.891-5.587-12.291-6.7-1.117-.372-2.235-.931-3.352-1.3a3.63,3.63,0,0,0-1.49-.186c-.373-6.518-5.773-11.546-14.526-13.409-10.615-2.421-24.769,3.911-29.983,10.615-7.822-4.1-18.623-8.008-31.473-2.235-9.312,4.283-12.478,9.125-12.478,13.595-9.312-3.166-21.044-5.215-33.708-.559-4.1,1.49-6.332,3.166-7.263,5.028a30.823,30.823,0,0,0-5.959.559,17.317,17.317,0,0,0-12.85,3.538c-.186.186-.373.186-.373.372-.186,0-.373.186-.745.372-3.166,1.49-4.283,3.725-3.911,5.215a9.065,9.065,0,0,0,.559,1.3.182.182,0,0,0-.186.186c-1.3-.186-2.421-.372-3.725-.559a221.153,221.153,0,0,0-39.295-2.235c-10.615.186-25.514.372-35.943,8.939A11.477,11.477,0,0,0,591,260.288l3.911-1.676c30.542-12.291,56.428-1.117,78.4,3.911-.372-6.518,1.117-12.664,12.85-17.32,13.595-5.4,16.016,1.862,15.085-.372-1.117-2.98,4.1-6.518,8.753-8.38,24.769-9.87,38.178,13.409,34.825,5.215-1.676-4.47-.186-10.988,8.008-14.34,14.526-5.773,26.631.186,34.825,5.587,1.3-2.235,2.235-5.028,5.4-6.332,14.9-5.959,47.862,17.692,51.772,16.016,15.085-6.146,46.931,10.243,43.206.931-1.117-2.98-.931-6.518,11.546-11.36C905.918,229.188,914.3,228.07,922.493,227.511Z" transform="translate(1.797 0)" fill="url(#linear-gradient-9)"/>
    </g>
    <g id="cloud-1" transform="translate(-340.7 799.763)" opacity="0.495">
      <path id="Path_17" data-name="Path 17" d="M913.369,454.668c0-7.715,68.685,11.2-92.078-70.427,6.221-10.7,4.231-24.388-7.715-26.628,4.479-23.144-17.42-12.443-20.407-25.384-1.742-7.466-7.964-14.434-14.683-16.176-1-14.932-1.244-31.854-22.9-31.854-12.692,0-31.356,9.706-31.356,15.18,0,2.489-7.217,4.479-11.2,4.479-21.153,0-9.208-41.311-41.062-41.311-10.95,0-13.438,4.728-22.9,4.728-8.959,0-11.945-3.235-17.42-3.235-7.964,0-23.144,9.457-23.891,9.457-4.231,0-8.959-6.47-15.18-6.47-9.208,0-10.95,13.438-15.181,13.438-.5,0-5.724-10.95-14.683-25.135-2.489-17.42-1.493-30.61-6.968-32.849-21.9-8.461-21.651-29.614-34.094-29.614-4.231,0-7.466,3.733-7.466,3.733h-.249a10.731,10.731,0,0,0-6.719-.5c-9.706-5.475-20.158-8.959-31.107-8.959-32.352,0-39.818,38.324-40.813,71.423-13.19-4.977-27.872-15.429-41.311-15.429-11.2,0-19.909,8.71-21.651,15.927-9.457-2.738-20.406-6.222-31.854-9.457-6.968-3.982-13.19-9.457-16.674-18.416,1-.249,5.724,1.244,7.466,1.244,9.954,0-27.375-45.292-27.375-26.13,0,2.986,1.244,6.221,1.244,8.959,0,3.235-1.991,5.475-3.484,5.973-6.968-3.733-15.678-6.47-18.167-13.438-1.991-5.724-2.24-22.646-11.448-22.646-5.973,0-8.71,9.954-9.457,9.954-.5,0-14.683-19.909-21.153-19.909-2.489,0-6.221,2.738-9.208,6.968-10.7-7.964-21.9-15.18-35.836-15.18-2.24,0-4.728.249-4.728.249-3.235,0-6.968-3.235-10.7-3.235-1.244,0-3.235,1.742-3.235,3.982,0,4.48,4.479,13.438-2.489,13.438-2.489,0-43.55-20.655-43.55-9.706,0,2.489,28.121,48.279,50.27,48.279,13.936,0,17.669-13.438,33.347-4.479a7.714,7.714,0,0,1,1.244,2.737c0,2.986-5.724,3.982-5.724,5.475h0a14.164,14.164,0,0,0,2.737,7.217c-8.212,6.47-3.733,18.913,2.489,27.126,1.742,4.728,4.231,8.71,4.231,14.185,0,7.217-5.724,10.2-5.724,14.683,0,20.158,93.074,51.016,168.976,59.726C468.158,379.015,557,382.5,536.1,360.6c20.655.249,21.651-.747,33.347-.747,46.537,0,51.763,54.5,103.028,54.5,18.664,0,37.578-14.683,38.822-14.683a7.236,7.236,0,0,1,6.221,2.986c36.085,68.188,328.744,98.051,331.232,98.051C1096.53,501.7,913.369,474.079,913.369,454.668Z" transform="translate(0 0)" fill="#121235"/>
      <path id="Path_18" data-name="Path 18" d="M396.015,242.05c3.243,0,4.865,3.706,4.865,6.718,0,5.791-2.316,2.316,3.475,2.316,6.486,0,12.972,11.119,12.972,16.91,0,3.011-.695,6.023-.695,9.266,0,6.486,0-8.339,8.107-8.339,4.865,0,8.339,5.1,8.571,11.119,0,.463,3.243,1.621,3.706,3.475v.232c0,.927-1.158,1.39-1.158,2.316a13.719,13.719,0,0,1,.927,3.475v1.39c0,3.706,4.633,5.328,4.633,8.339,0,1.853-2.085,3.475-2.085,5.328,0,5.1,68.566,36.368,89.877,45.17C514.847,340.5,489.6,326.6,446.976,305.057c5.791-9.961,3.938-22.7-7.181-24.786,4.169-21.543-16.215-11.582-18.995-23.627-1.622-6.949-7.413-13.435-13.667-15.057-.927-12.74-1.158-26.87-16.678-29.187,7.876,3.706,10.887,14.13,10.887,23.164,0,6.486-.232,1.621-.927.927-.695-.463-10.887-5.791-12.509-5.791-3.011,0-6.254,2.085-8.107,4.864,2.085-.927,4.4-2.085,6.718-2.085C395.088,233.943,389.529,242.05,396.015,242.05Z" transform="translate(378.291 78.55)" opacity="0.98" fill="url(#linear-gradient-10)"/>
      <path id="Path_19" data-name="Path 19" d="M406.957,278.189c-8.8-25.481-22.469-27.565-17.141-27.565,6.718,0,12.277,4.4,18.531,6.949-5.791-9.729-14.362-7.644-20.616-17.373-11.119-7.644-6.254-36.6-31.966-36.6a30.1,30.1,0,0,0-7.181.927c8.339,1.621,7.644,8.8,12.972,8.8,8.571,0,18.763,26.175,18.763,28.492,0,5.1-19.458-12.74-20.384-12.74-5.1,0-6.718-11.119-16.678-9.729-2.316.232,37.526,27.334,37.063,36.368-.232,4.17-3.011,7.412-3.011,11.582,0,0,1.853-6.486,6.486-7.412C404.177,255.024,419.234,313.63,406.957,278.189Z" transform="translate(317.909 61.528)" opacity="0.47" fill="url(#linear-gradient-11)"/>
      <path id="Path_20" data-name="Path 20" d="M313.9,209.206a14.967,14.967,0,0,1,6.254-1.158c12.277,0,9.5,8.107,21.079,8.107,5.1,0,9.961,4.4,11.582,9.266-.927-8.339-6.023-13.435-11.814-13.435a12.467,12.467,0,0,1-5.1-.927c-.463.232-.695.463-.927.463-3.938,0-8.339-6.023-14.13-6.023A8.42,8.42,0,0,0,313.9,209.206Z" transform="translate(272.708 62.262)" opacity="0.32" fill="url(#linear-gradient-12)"/>
      <path id="Path_21" data-name="Path 21" d="M371.65,260.166c-.695-.463-5.559-10.192-13.667-23.4-2.316-16.215-1.39-28.492-6.486-30.577-20.384-7.876-20.153-27.565-31.735-27.565-3.938,0-6.949,3.475-6.949,3.475h-.232a9.989,9.989,0,0,0-6.254-.463c-9.034-5.1-18.763-8.339-28.955-8.339a28.888,28.888,0,0,0-12.972,2.78,53.655,53.655,0,0,1,10.656-.927c11.814,0,23.627,3.938,29.65,15.52a6.169,6.169,0,0,1,6.254-5.559c2.316,0,21.079,10.424,21.774,23.4h0c0,.463-.463.695-1.158.695-1.39,0-3.706-.927-5.559-.927-1.158,0,3.706,22.006,6.718,22.006,2.316,0,3.706-7.181,7.181-7.181,5.559,0,8.8,21.543,16.678,21.543C363.543,245.109,371.418,309.273,371.65,260.166Z" transform="translate(200.788 12.243)" opacity="0.32" fill="url(#linear-gradient-13)"/>
    </g>
    <g id="cloud-2" transform="translate(478.2 815)" opacity="0.495">
      <g id="Group_3" data-name="Group 3" transform="translate(646.8 362.501)">
        <path id="Path_22" data-name="Path 22" d="M1277,209.5a79.073,79.073,0,0,0-14.634,2.561c-4.756,1.281-9.33.915-14.269,1.281-10.061.732-19.757,4.39-29.818,5.488-12.805,1.463-25.793,1.646-38.416,4.207-12.805,2.561-25.428,5.671-38.233,8.049-4.025.732-6.037-.366-9.512-1.646a21.163,21.163,0,0,0,2.927-2.012c.915-.732,1.464-2.012.549-2.927-5.3-5.854-12.256-6.22-20.305-6.22a311.39,311.39,0,0,0-41.16,2.927A303.281,303.281,0,0,0,964,259.079c-7.866,4.573-21.586,10.61-24.879,19.025-6.037,15.366,17.927,14.452,31.281,12.074-4.025.732-4.756,6.4-4.939,9.7a1.65,1.65,0,0,0,.183.915,1.3,1.3,0,0,0,1.1.549c1.463.183,8.6.915,5.3,3.476-1.829,1.463-.732,3.842,1.646,4.025-.183.366-.183.732-.366,1.1-10.244,5.854-23.049,7.317-34.208,10.427-12.073,3.293-24.147,7.317-36.038,10.976-5.854,1.829-11.525,3.476-17.379,5.3-1.829.549-17.744,4.39-17.927,5.488C868.331,335,887.9,334.081,887.9,324.2a1.715,1.715,0,0,0-1.1-1.463c.366-.183.549-.366.915-.549,2.2-1.463.915-4.756-2.012-4.573q-6.037.549-12.073,1.646c-.549-2.2-1.829-4.756-4.39-4.756h0c-14.452.366-42.989,13.9-42.989,13.9s-7.5-3.293-14.452-3.293c-11.342,0-19.208,6.037-26.342,14.269a56.927,56.927,0,0,0-4.207,5.122c-2.744-5.122-10.061-6.22-17.744-6.22-34.757,0-36.769,25.793-49.026,33.111-7.866,4.756-20.488,6.037-25.976,15.915a10.691,10.691,0,0,0-7.317-2.927c-4.39,0-13.171,5.305-13.171,9.878v.915c-6.586,3.659-15.183,1.281-21.22,7.317a10.663,10.663,0,0,0,5.305,1.1c15,0,44.452-8.6,65.856-8.6a47.935,47.935,0,0,1,5.122.183c-16.464,13.354,24.147,13.9,39.331,13.9,44.27,0,65.673-19.025,65.673-20.854,0-2.744-13.9-2.561-19.757-5.305a30.322,30.322,0,0,1,6.22-6.768,41.868,41.868,0,0,1,19.757-4.207c2.2,0,4.207,0,6.4.183,2.744.732,5.305,1.463,8.049,2.2,35.306,9.512,72.258,12.074,108.662,10.61,15.366-.549,30.733-2.012,45.916-3.842,33.842-4.207,67.319-11.159,100.43-18.476,27.806-6.037,58.721-10.244,79.575-29.635,2.2-2.012.549-5.854-2.561-6.22-5.671-.732-11.525-1.281-17.2-2.2-3.659-.549-7.317-.366-10.793-.732.549-1.463-.366-3.11-1.646-4.025-3.11-2.012-7.135.183-10.61,0-11.342-.732-22.5-.549-33.842-.549-9.879,0-20.306-.366-30.367,0a148.92,148.92,0,0,0-15.549,1.463c-4.756.732-9.329,2.378-14.269,2.561-5.122.183-11.525-.732-13.72-6.037-1.1-2.927,0-5.671,1.646-8.232a48.22,48.22,0,0,0,25.427-18.476,194.2,194.2,0,0,1,32.013-16.1c6.22-2.378,12.988-4.573,19.94-4.939,6.037-.366,7.683,1.281,7.134,3.659a12.659,12.659,0,0,0-1.829,3.476,36.454,36.454,0,0,1-8.049,7.317c-3.293,2.2.366,6.037,2.744,6.951a13.639,13.639,0,0,0,4.756.732c22.684.915,44.27-7.317,65.49-14.818,24.879-8.964,48.111-22.867,64.392-42.257.915-1.1,1.281-3.11.183-4.207-.915-.915-2.012-1.829-2.927-2.744,4.573-2.561,9.329-4.939,14.086-7.317,6.769-3.476,14.086-4.573,21.037-7.683A2,2,0,0,0,1277,209.5Z" transform="translate(-646.8 -209.495)" fill="#121235"/>
        <path id="Path_23" data-name="Path 23" d="M771.96,281.812a39.793,39.793,0,0,1,4.573.183c-3.476-1.646-8.415-2.2-13.171-2.2-34.757,0-36.769,25.793-49.026,33.111-7.866,4.756-20.488,6.037-25.977,15.915a10.691,10.691,0,0,0-7.317-2.927c-4.39,0-13.171,5.305-13.171,9.878v.915c-6.4,3.476-14.634,1.463-20.671,6.768,6.22-2.012,12.805-3.842,19.208-4.207a.179.179,0,0,1,.183.183c0,.366-.366,1.1-.366,1.646,0,0,8.781-10.793,15.366-10.793,2.744,0,5.305,1.646,5.305,2.2,0,1.829,24.147-19.94,24.147-12.805,0,.549.549.549,1.1.549h.549v.183c-3.293,3.11-3.11,8.232-4.39,12.074,1.647-6.4,13.9-11.525,19.025-14.452-2.744,4.573,1.464,5.122,14.269-8.964a3.439,3.439,0,0,0,.732-1.829c0-2.561-8.232,3.476-8.781,4.025a30.387,30.387,0,0,0-4.939,4.756c-.366,0-.915-.183-1.646-.183-1.646,0-3.293.549-4.939.549C720.007,316.752,730.8,281.812,771.96,281.812Z" transform="translate(-646.468 -151.189)" fill="url(#linear-gradient-14)"/>
        <path id="Path_24" data-name="Path 24" d="M808.639,266.8h0c-14.452.366-42.989,13.9-42.989,13.9s-7.5-3.293-14.452-3.293c-11.342,0-19.208,6.037-26.342,14.269a56.95,56.95,0,0,0-4.207,5.122,2.526,2.526,0,0,0-.549-.732v2.2s15.549-15.732,31.464-15.732c14.817,0,4.939,2.2,3.293,17.013,10.61-19.574,36.221-24.33,57.441-30C811.383,267.9,810.286,266.8,808.639,266.8Z" transform="translate(-586.01 -161.97)" opacity="0.48" fill="url(#linear-gradient-15)"/>
        <path id="Path_25" data-name="Path 25" d="M877.112,250.289c.915-2.927,4.024-4.39,7.317-4.39,2.744,0,6.4,1.829,6.4,1.829,0-3.293-5.305-5.122-8.6-5.122-5.305,0-10.061,3.842-14.817,5.854,2.927-3.476,10.427-11.891,15.549-11.891.366,0,.732.366,1.281.366,0,0,28.537-13.9,71.161-21.586.732-.183,2.2-.366,3.659-.549-5.671.549-11.342,1.1-16.83,2.012A303.279,303.279,0,0,0,832.11,254.679c-7.866,4.573-21.586,10.61-24.879,19.025-1.829,4.756-.915,7.866,1.829,9.878,3.11-11.342,14.269-26.342,14.269-13.9,0,1.829,21.4-22.5,21.4-14.269,0,.732.183,1.1,1.463,1.1,1.464,0,2.927-1.1,4.573-1.1,1.829,0,2.561,1.281,2.561,3.11a55.806,55.806,0,0,0-2.378,14.452c0,25.793,2.561-2.378,11.525-3.293a11.811,11.811,0,0,1-.732-3.476C861.379,258.155,873.27,262.179,877.112,250.289Z" transform="translate(-514.54 -205.095)" opacity="0.48" fill="url(#linear-gradient-16)"/>
      </g>
      <path id="Path_26" data-name="Path 26" d="M1192.315,27.927c-5.488,3.11-10.427,5.671-13.72,5.671-4.573,0-2.927-8.6-12.073-8.6-20.305,0-103.906,77.2-103.906,90.551,0,2.927,5.488,4.025,8.232,4.025,4.756,0,9.513-1.829,14.452-1.829,1.829,0,7.134.366,7.134,2.378,0,9.512-14.086,21.769-14.086,26.342,0,2.012,6.4,3.659,10.245,3.659,8.415,0,17.013-4.573,25.793-4.573,2.2,0,2.012,2.2.549,5.488-19.208,11.159-41.343,25.062-41.343,50.855,0,18.659,15,34.391,15,34.391,0,11.342-68.051,48.843-68.051,66.221,0,4.39,3.476,8.781,6.768,12.074-18.11,16.647-61.1,21.952-61.1,49.026,0,10.976,3.476,12.622,8.232,12.622,4.939,0,11.342-2.378,15.549-5.122-7.317,14.635-21.769,21.952-35.306,31.1-2.927,2.012-6.586,6.4-6.586,8.6,0,1.1.549,2.378,1.1,2.378h0c127.87-10.427,181.835-63.843,156.041-63.843-5.305,0-10.793,1.281-16.1,1.281-4.573,0-10.244-.549-10.244-5.122,0-6.037,36.038-54.88,86.161-54.88,12.073,0,15.915,5.122,15.915,9.33,0,17.562-30.367,38.05-30.367,61.465,0,5.122,2.012,7.134,3.293,7.134a92.382,92.382,0,0,0,38.6-8.415V27.927Z" transform="translate(249.302)" fill="#121235"/>
    </g>
  </g>
</svg>
